<ttFont>
    <TTGlyph name="A" xMin="12" yMin="0" xMax="1311" yMax="1456">
      <contour>
        <pt x="917" y="314" on="1"/>
        <pt x="406" y="314" on="1"/>
        <pt x="307" y="0" on="1"/>
        <pt x="12" y="0" on="1"/>
        <pt x="513" y="1456" on="1"/>
        <pt x="812" y="1456" on="1"/>
        <pt x="1311" y="0" on="1"/>
        <pt x="1016" y="0" on="1"/>
      </contour>
      <contour>
        <pt x="478" y="543" on="1"/>
        <pt x="845" y="543" on="1"/>
        <pt x="665" y="1115" on="1"/>
        <pt x="659" y="1115" on="1"/>
      </contour>
    </TTGlyph>
    <TTGlyph name="A.smcp" xMin="15" yMin="0" xMax="1233" yMax="1165">
      <contour>
        <pt x="850" y="207" on="1"/>
        <pt x="398" y="207" on="1"/>
        <pt x="324" y="0" on="1"/>
        <pt x="15" y="0" on="1"/>
        <pt x="466" y="1165" on="1"/>
        <pt x="783" y="1165" on="1"/>
        <pt x="1233" y="0" on="1"/>
        <pt x="925" y="0" on="1"/>
      </contour>
      <contour>
        <pt x="478" y="431" on="1"/>
        <pt x="770" y="431" on="1"/>
        <pt x="626" y="830" on="1"/>
        <pt x="620" y="830" on="1"/>
      </contour>
    </TTGlyph>
    <TTGlyph name="AE" xMin="3" yMin="0" xMax="1865" yMax="1456">
      <contour>
        <pt x="1865" y="0" on="1"/>
        <pt x="967" y="0" on="1"/>
        <pt x="953" y="335" on="1"/>
        <pt x="513" y="335" on="1"/>
        <pt x="345" y="0" on="1"/>
        <pt x="3" y="0" on="1"/>
        <pt x="787" y="1456" on="1"/>
        <pt x="1803" y="1456" on="1"/>
        <pt x="1803" y="1228" on="1"/>
        <pt x="1207" y="1228" on="1"/>
        <pt x="1223" y="862" on="1"/>
        <pt x="1722" y="862" on="1"/>
        <pt x="1722" y="635" on="1"/>
        <pt x="1232" y="635" on="1"/>
        <pt x="1249" y="227" on="1"/>
        <pt x="1865" y="227" on="1"/>
      </contour>
      <contour>
        <pt x="633" y="575" on="1"/>
        <pt x="943" y="575" on="1"/>
        <pt x="920" y="1134" on="1"/>
        <pt x="914" y="1135" on="1"/>
      </contour>
    </TTGlyph>
    <TTGlyph name="AEacute" xMin="3" yMin="0" xMax="1865" yMax="1826">
      <component glyphName="AE" x="0" y="0" flags="0x204"/>
      <component glyphName="acute" x="678" y="348" flags="0x4"/>
    </TTGlyph>
    <TTGlyph name="Aacute" xMin="12" yMin="0" xMax="1311" yMax="1826">
      <component glyphName="A" x="0" y="0" flags="0x204"/>
      <component glyphName="acute" x="411" y="348" flags="0x4"/>
    </TTGlyph>
    <TTGlyph name="Aacute.smcp" xMin="15" yMin="0" xMax="1233" yMax="1503">
      <component glyphName="A.smcp" x="0" y="0" flags="0x204"/>
      <component glyphName="acute" x="362" y="25" flags="0x4"/>
    </TTGlyph>
    <TTGlyph name="Abreve" xMin="12" yMin="0" xMax="1311" yMax="1896">
      <component glyphName="A" x="0" y="0" flags="0x204"/>
      <component glyphName="breve" x="203" y="440" flags="0x4"/>
    </TTGlyph>
    <TTGlyph name="Abreve.smcp" xMin="15" yMin="0" xMax="1233" yMax="1573">
      <component glyphName="A.smcp" x="0" y="0" flags="0x204"/>
      <component glyphName="breve" x="166" y="117" flags="0x4"/>
    </TTGlyph>
    <TTGlyph name="Acircumflex" xMin="12" yMin="0" xMax="1311" yMax="1858">
      <component glyphName="A" x="0" y="0" flags="0x204"/>
      <component glyphName="circumflex" x="149" y="340" flags="0x4"/>
    </TTGlyph>
    <TTGlyph name="Acircumflex.smcp" xMin="15" yMin="0" xMax="1233" yMax="1535">
      <component glyphName="A.smcp" x="0" y="0" flags="0x204"/>
      <component glyphName="circumflex" x="115" y="17" flags="0x4"/>
    </TTGlyph>
    <TTGlyph name="Adieresis" xMin="12" yMin="0" xMax="1311" yMax="1805">
      <component glyphName="A" x="0" y="0" flags="0x204"/>
      <component glyphName="dieresis" x="116" y="349" flags="0x4"/>
    </TTGlyph>
    <TTGlyph name="Adieresis.smcp" xMin="15" yMin="0" xMax="1233" yMax="1482">
      <component glyphName="A.smcp" x="0" y="0" flags="0x204"/>
      <component glyphName="dieresis" x="79" y="26" flags="0x4"/>
    </TTGlyph>
    <TTGlyph name="Agrave" xMin="12" yMin="0" xMax="1311" yMax="1826">
      <component glyphName="A" x="0" y="0" flags="0x204"/>
      <component glyphName="grave" x="230" y="348" flags="0x4"/>
    </TTGlyph>
    <TTGlyph name="Agrave.smcp" xMin="15" yMin="0" xMax="1233" yMax="1508">
      <component glyphName="A.smcp" x="0" y="0" flags="0x204"/>
      <component glyphName="grave" x="181" y="30" flags="0x4"/>
    </TTGlyph>
    <TTGlyph name="Alpha" xMin="12" yMin="0" xMax="1311" yMax="1456">
      <component glyphName="A" x="0" y="0" flags="0x204"/>
    </TTGlyph>
    <TTGlyph name="Alphatonos" xMin="12" yMin="0" xMax="1311" yMax="1624">
      <component glyphName="A" x="0" y="0" flags="0x204"/>
      <component glyphName="tonos" x="-134" y="0" flags="0x4"/>
    </TTGlyph>
    <TTGlyph name="Amacron" xMin="12" yMin="0" xMax="1311" yMax="1778">
      <component glyphName="A" x="0" y="0" flags="0x204"/>
      <component glyphName="macron" x="142" y="321" flags="0x4"/>
    </TTGlyph>
    <TTGlyph name="Amacron.smcp" xMin="15" yMin="0" xMax="1233" yMax="1457">
      <component glyphName="A.smcp" x="0" y="0" flags="0x204"/>
      <component glyphName="macron" x="106" y="0" flags="0x4"/>
    </TTGlyph>
    <TTGlyph name="Aogonek" xMin="12" yMin="-424" xMax="1338" yMax="1456">
      <component glyphName="A" x="0" y="0" flags="0x204"/>
      <component glyphName="ogonek" x="822" y="0" flags="0x4"/>
    </TTGlyph>
    <TTGlyph name="Aogonek.smcp" xMin="15" yMin="-424" xMax="1258" yMax="1165">
      <component glyphName="A.smcp" x="0" y="0" flags="0x204"/>
      <component glyphName="ogonek" x="742" y="0" flags="0x4"/>
    </TTGlyph>
    <TTGlyph name="Aring" xMin="12" yMin="0" xMax="1311" yMax="1935">
      <component glyphName="A" x="0" y="0" flags="0x204"/>
      <component glyphName="ring" x="315" y="441" flags="0x4"/>
    </TTGlyph>
    <TTGlyph name="Aring.smcp" xMin="15" yMin="0" xMax="1233" yMax="1612">
      <component glyphName="A.smcp" x="0" y="0" flags="0x204"/>
      <component glyphName="ring" x="277" y="118" flags="0x4"/>
    </TTGlyph>
    <TTGlyph name="Aringacute" xMin="12" yMin="0" xMax="1311" yMax="2140">
      <component glyphName="A" x="0" y="0" flags="0x204"/>
      <component glyphName="ringacute" x="310" y="406" flags="0x4"/>
    </TTGlyph>
    <TTGlyph name="Aringacute.smcp" xMin="15" yMin="0" xMax="1233" yMax="1817">
      <component glyphName="A.smcp" x="0" y="0" flags="0x204"/>
      <component glyphName="ringacute" x="272" y="83" flags="0x4"/>
    </TTGlyph>
    <TTGlyph name="Atilde" xMin="12" yMin="0" xMax="1311" yMax="1901">
      <component glyphName="A" x="0" y="0" flags="0x204"/>
      <component glyphName="tilde" x="162" y="372" flags="0x4"/>
    </TTGlyph>
    <TTGlyph name="Atilde.smcp" xMin="15" yMin="0" xMax="1233" yMax="1578">
      <component glyphName="A.smcp" x="0" y="0" flags="0x204"/>
      <component glyphName="tilde" x="124" y="49" flags="0x4"/>
    </TTGlyph>
    <TTGlyph name="B" xMin="136" yMin="0" xMax="1226" yMax="1456">
      <contour>
        <pt x="136" y="0" on="1"/>
        <pt x="136" y="1456" on="1"/>
        <pt x="628" y="1456" on="1"/>
        <pt x="885" y="1456" on="0"/>
        <pt x="1173" y="1256" on="0"/>
        <pt x="1173" y="1057" on="1"/>
        <pt x="1173" y="956" on="0"/>
        <pt x="1066" y="797" on="0"/>
        <pt x="964" y="757" on="1"/>
        <pt x="1095" y="729" on="0"/>
        <pt x="1226" y="545" on="0"/>
        <pt x="1226" y="424" on="1"/>
        <pt x="1226" y="215" on="0"/>
        <pt x="950" y="0" on="0"/>
        <pt x="697" y="0" on="1"/>
      </contour>
      <contour>
        <pt x="428" y="644" on="1"/>
        <pt x="428" y="224" on="1"/>
        <pt x="697" y="224" on="1"/>
        <pt x="813" y="224" on="0"/>
        <pt x="935" y="325" on="0"/>
        <pt x="935" y="424" on="1"/>
        <pt x="935" y="531" on="0"/>
        <pt x="831" y="644" on="0"/>
        <pt x="719" y="644" on="1"/>
      </contour>
      <contour>
        <pt x="428" y="846" on="1"/>
        <pt x="638" y="846" on="1"/>
        <pt x="755" y="846" on="0"/>
        <pt x="881" y="942" on="0"/>
        <pt x="881" y="1034" on="1"/>
        <pt x="881" y="1135" on="0"/>
        <pt x="754" y="1231" on="0"/>
        <pt x="628" y="1231" on="1"/>
        <pt x="428" y="1231" on="1"/>
      </contour>
    </TTGlyph>
    <TTGlyph name="B.smcp" xMin="129" yMin="0" xMax="1106" yMax="1165">
      <contour>
        <pt x="129" y="0" on="1"/>
        <pt x="129" y="1165" on="1"/>
        <pt x="594" y="1165" on="1"/>
        <pt x="810" y="1165" on="0"/>
        <pt x="1051" y="1002" on="0"/>
        <pt x="1051" y="843" on="1"/>
        <pt x="1051" y="760" on="0"/>
        <pt x="946" y="630" on="0"/>
        <pt x="850" y="596" on="1"/>
        <pt x="976" y="571" on="0"/>
        <pt x="1106" y="428" on="0"/>
        <pt x="1106" y="330" on="1"/>
        <pt x="1106" y="167" on="0"/>
        <pt x="877" y="0" on="0"/>
        <pt x="663" y="0" on="1"/>
      </contour>
      <contour>
        <pt x="421" y="495" on="1"/>
        <pt x="421" y="222" on="1"/>
        <pt x="663" y="222" on="1"/>
        <pt x="744" y="222" on="0"/>
        <pt x="815" y="285" on="0"/>
        <pt x="815" y="350" on="1"/>
        <pt x="815" y="422" on="0"/>
        <pt x="744" y="495" on="0"/>
        <pt x="663" y="495" on="1"/>
      </contour>
      <contour>
        <pt x="421" y="681" on="1"/>
        <pt x="594" y="681" on="1"/>
        <pt x="676" y="681" on="0"/>
        <pt x="760" y="744" on="0"/>
        <pt x="760" y="804" on="1"/>
        <pt x="760" y="873" on="0"/>
        <pt x="679" y="934" on="0"/>
        <pt x="594" y="934" on="1"/>
        <pt x="421" y="934" on="1"/>
      </contour>
    </TTGlyph>
    <TTGlyph name="Beta" xMin="136" yMin="0" xMax="1226" yMax="1456">
      <component glyphName="B" x="0" y="0" flags="0x204"/>
    </TTGlyph>
    <TTGlyph name="C" xMin="93" yMin="-21" xMax="1243" yMax="1477">
      <contour>
        <pt x="1235" y="495" on="1"/>
        <pt x="1237" y="489" on="1"/>
        <pt x="1241" y="254" on="0"/>
        <pt x="946" y="-21" on="0"/>
        <pt x="684" y="-21" on="1"/>
        <pt x="421" y="-21" on="0"/>
        <pt x="93" y="317" on="0"/>
        <pt x="93" y="583" on="1"/>
        <pt x="93" y="872" on="1"/>
        <pt x="93" y="1137" on="0"/>
        <pt x="413" y="1477" on="0"/>
        <pt x="669" y="1477" on="1"/>
        <pt x="939" y="1477" on="0"/>
        <pt x="1243" y="1200" on="0"/>
        <pt x="1239" y="961" on="1"/>
        <pt x="1237" y="955" on="1"/>
        <pt x="953" y="955" on="1"/>
        <pt x="953" y="1099" on="0"/>
        <pt x="815" y="1252" on="0"/>
        <pt x="669" y="1252" on="1"/>
        <pt x="538" y="1252" on="0"/>
        <pt x="384" y="1039" on="0"/>
        <pt x="384" y="874" on="1"/>
        <pt x="384" y="583" on="1"/>
        <pt x="384" y="416" on="0"/>
        <pt x="546" y="203" on="0"/>
        <pt x="684" y="203" on="1"/>
        <pt x="821" y="203" on="0"/>
        <pt x="952" y="350" on="0"/>
        <pt x="952" y="495" on="1"/>
      </contour>
    </TTGlyph>
    <TTGlyph name="C.smcp" xMin="95" yMin="-17" xMax="1082" yMax="1181">
      <contour>
        <pt x="1074" y="397" on="1"/>
        <pt x="1076" y="391" on="1"/>
        <pt x="1081" y="190" on="0"/>
        <pt x="830" y="-17" on="0"/>
        <pt x="598" y="-17" on="1"/>
        <pt x="373" y="-17" on="0"/>
        <pt x="95" y="248" on="0"/>
        <pt x="95" y="461" on="1"/>
        <pt x="95" y="704" on="1"/>
        <pt x="95" y="916" on="0"/>
        <pt x="373" y="1181" on="0"/>
        <pt x="598" y="1181" on="1"/>
        <pt x="832" y="1181" on="0"/>
        <pt x="1082" y="974" on="0"/>
        <pt x="1077" y="775" on="1"/>
        <pt x="1075" y="769" on="1"/>
        <pt x="793" y="769" on="1"/>
        <pt x="793" y="870" on="0"/>
        <pt x="704" y="958" on="0"/>
        <pt x="598" y="958" on="1"/>
        <pt x="497" y="958" on="0"/>
        <pt x="387" y="818" on="0"/>
        <pt x="387" y="705" on="1"/>
        <pt x="387" y="461" on="1"/>
        <pt x="387" y="346" on="0"/>
        <pt x="497" y="205" on="0"/>
        <pt x="598" y="205" on="1"/>
        <pt x="702" y="205" on="0"/>
        <pt x="791" y="295" on="0"/>
        <pt x="791" y="397" on="1"/>
      </contour>
    </TTGlyph>
    <TTGlyph name="Cacute" xMin="93" yMin="-21" xMax="1243" yMax="1847">
      <component glyphName="C" x="0" y="0" flags="0x204"/>
      <component glyphName="acute" x="417" y="369" flags="0x4"/>
    </TTGlyph>
    <TTGlyph name="Cacute.smcp" xMin="95" yMin="-17" xMax="1082" yMax="1519">
      <component glyphName="C.smcp" x="0" y="0" flags="0x204"/>
      <component glyphName="acute" x="331" y="41" flags="0x4"/>
    </TTGlyph>
    <TTGlyph name="Ccaron" xMin="93" yMin="-21" xMax="1243" yMax="1894">
      <component glyphName="C" x="0" y="0" flags="0x204"/>
      <component glyphName="caron" x="193" y="370" flags="0x4"/>
    </TTGlyph>
    <TTGlyph name="Ccaron.smcp" xMin="95" yMin="-17" xMax="1082" yMax="1566">
      <component glyphName="C.smcp" x="0" y="0" flags="0x204"/>
      <component glyphName="caron" x="107" y="42" flags="0x4"/>
    </TTGlyph>
    <TTGlyph name="Ccedilla" xMin="93" yMin="-460" xMax="1243" yMax="1477">
      <component glyphName="C" x="0" y="0" flags="0x204"/>
      <component glyphName="cedilla" x="427" y="-1" flags="0x4"/>
    </TTGlyph>
    <TTGlyph name="Ccedilla.smcp" xMin="95" yMin="-459" xMax="1082" yMax="1181">
      <component glyphName="C.smcp" x="0" y="0" flags="0x204"/>
      <component glyphName="cedilla" x="342" y="0" flags="0x4"/>
    </TTGlyph>
    <TTGlyph name="Ccircumflex" xMin="93" yMin="-21" xMax="1243" yMax="1879">
      <component glyphName="C" x="0" y="0" flags="0x204"/>
      <component glyphName="circumflex" x="170" y="361" flags="0x4"/>
    </TTGlyph>
    <TTGlyph name="Ccircumflex.smcp" xMin="95" yMin="-17" xMax="1082" yMax="1551">
      <component glyphName="C.smcp" x="0" y="0" flags="0x204"/>
      <component glyphName="circumflex" x="84" y="33" flags="0x4"/>
    </TTGlyph>
    <TTGlyph name="Chi" xMin="31" yMin="0" xMax="1287" yMax="1456">
      <component glyphName="X" x="0" y="0" flags="0x204"/>
    </TTGlyph>
    <TTGlyph name="D" xMin="136" yMin="0" xMax="1249" yMax="1456">
      <contour>
        <pt x="136" y="0" on="1"/>
        <pt x="136" y="1456" on="1"/>
        <pt x="636" y="1456" on="1"/>
        <pt x="903" y="1456" on="0"/>
        <pt x="1249" y="1115" on="0"/>
        <pt x="1249" y="848" on="1"/>
        <pt x="1249" y="607" on="1"/>
        <pt x="1249" y="339" on="0"/>
        <pt x="903" y="0" on="0"/>
        <pt x="636" y="0" on="1"/>
      </contour>
      <contour>
        <pt x="428" y="1231" on="1"/>
        <pt x="428" y="224" on="1"/>
        <pt x="621" y="224" on="1"/>
        <pt x="778" y="224" on="0"/>
        <pt x="956" y="436" on="0"/>
        <pt x="956" y="607" on="1"/>
        <pt x="956" y="850" on="1"/>
        <pt x="956" y="1019" on="0"/>
        <pt x="778" y="1231" on="0"/>
        <pt x="621" y="1231" on="1"/>
      </contour>
    </TTGlyph>
    <TTGlyph name="D.smcp" xMin="129" yMin="0" xMax="1107" yMax="1165">
      <contour>
        <pt x="129" y="0" on="1"/>
        <pt x="129" y="1165" on="1"/>
        <pt x="588" y="1165" on="1"/>
        <pt x="813" y="1165" on="0"/>
        <pt x="1107" y="897" on="0"/>
        <pt x="1107" y="687" on="1"/>
        <pt x="1107" y="477" on="1"/>
        <pt x="1107" y="266" on="0"/>
        <pt x="813" y="0" on="0"/>
        <pt x="588" y="0" on="1"/>
      </contour>
      <contour>
        <pt x="421" y="942" on="1"/>
        <pt x="421" y="222" on="1"/>
        <pt x="588" y="222" on="1"/>
        <pt x="689" y="222" on="0"/>
        <pt x="815" y="365" on="0"/>
        <pt x="815" y="477" on="1"/>
        <pt x="815" y="688" on="1"/>
        <pt x="815" y="799" on="0"/>
        <pt x="689" y="942" on="0"/>
        <pt x="588" y="942" on="1"/>
      </contour>
    </TTGlyph>
    <TTGlyph name="Dcaron" xMin="136" yMin="0" xMax="1249" yMax="1873">
      <component glyphName="D" x="0" y="0" flags="0x204"/>
      <component glyphName="caron" x="113" y="349" flags="0x4"/>
    </TTGlyph>
    <TTGlyph name="Dcaron.smcp" xMin="129" yMin="0" xMax="1107" yMax="1550">
      <component glyphName="D.smcp" x="0" y="0" flags="0x204"/>
      <component glyphName="caron" x="30" y="26" flags="0x4"/>
    </TTGlyph>
    <TTGlyph name="Dcroat" xMin="31" yMin="0" xMax="1279" yMax="1456">
      <contour>
        <pt x="166" y="0" on="1"/>
        <pt x="166" y="652" on="1"/>
        <pt x="31" y="652" on="1"/>
        <pt x="31" y="833" on="1"/>
        <pt x="166" y="833" on="1"/>
        <pt x="166" y="1456" on="1"/>
        <pt x="666" y="1456" on="1"/>
        <pt x="933" y="1456" on="0"/>
        <pt x="1279" y="1115" on="0"/>
        <pt x="1279" y="848" on="1"/>
        <pt x="1279" y="607" on="1"/>
        <pt x="1279" y="339" on="0"/>
        <pt x="933" y="0" on="0"/>
        <pt x="666" y="0" on="1"/>
      </contour>
      <contour>
        <pt x="702" y="652" on="1"/>
        <pt x="458" y="652" on="1"/>
        <pt x="458" y="224" on="1"/>
        <pt x="651" y="224" on="1"/>
        <pt x="808" y="224" on="0"/>
        <pt x="986" y="436" on="0"/>
        <pt x="986" y="607" on="1"/>
        <pt x="986" y="850" on="1"/>
        <pt x="986" y="1019" on="0"/>
        <pt x="808" y="1231" on="0"/>
        <pt x="651" y="1231" on="1"/>
        <pt x="458" y="1231" on="1"/>
        <pt x="458" y="833" on="1"/>
        <pt x="702" y="833" on="1"/>
      </contour>
    </TTGlyph>
    <TTGlyph name="Dcroat.smcp" xMin="-33" yMin="0" xMax="1107" yMax="1165">
      <component glyphName="D.smcp" x="0" y="0" flags="0x204"/>
      <component glyphName="crossbar" x="-189" y="-142" flags="0x4"/>
    </TTGlyph>
    <TTGlyph name="Delta" xMin="22" yMin="0" xMax="1477" yMax="1456">
      <contour>
        <pt x="605" y="1456" on="1"/>
        <pt x="905" y="1456" on="1"/>
        <pt x="1477" y="0" on="1"/>
        <pt x="22" y="0" on="1"/>
      </contour>
      <contour>
        <pt x="412" y="224" on="1"/>
        <pt x="1088" y="224" on="1"/>
        <pt x="757" y="1109" on="1"/>
        <pt x="751" y="1109" on="1"/>
      </contour>
    </TTGlyph>
    <TTGlyph name="E" xMin="136" yMin="0" xMax="1133" yMax="1456">
      <contour>
        <pt x="1031" y="640" on="1"/>
        <pt x="428" y="640" on="1"/>
        <pt x="428" y="224" on="1"/>
        <pt x="1133" y="224" on="1"/>
        <pt x="1133" y="0" on="1"/>
        <pt x="136" y="0" on="1"/>
        <pt x="136" y="1456" on="1"/>
        <pt x="1131" y="1456" on="1"/>
        <pt x="1131" y="1231" on="1"/>
        <pt x="428" y="1231" on="1"/>
        <pt x="428" y="865" on="1"/>
        <pt x="1031" y="865" on="1"/>
      </contour>
    </TTGlyph>
    <TTGlyph name="E.smcp" xMin="129" yMin="0" xMax="981" yMax="1165">
      <contour>
        <pt x="895" y="492" on="1"/>
        <pt x="421" y="492" on="1"/>
        <pt x="421" y="222" on="1"/>
        <pt x="981" y="222" on="1"/>
        <pt x="981" y="0" on="1"/>
        <pt x="129" y="0" on="1"/>
        <pt x="129" y="1165" on="1"/>
        <pt x="981" y="1165" on="1"/>
        <pt x="981" y="942" on="1"/>
        <pt x="421" y="942" on="1"/>
        <pt x="421" y="716" on="1"/>
        <pt x="895" y="716" on="1"/>
      </contour>
    </TTGlyph>
    <TTGlyph name="Eacute" xMin="136" yMin="0" xMax="1133" yMax="1826">
      <component glyphName="E" x="0" y="0" flags="0x204"/>
      <component glyphName="acute" x="348" y="348" flags="0x4"/>
    </TTGlyph>
    <TTGlyph name="Eacute.smcp" xMin="129" yMin="0" xMax="981" yMax="1503">
      <component glyphName="E.smcp" x="0" y="0" flags="0x204"/>
      <component glyphName="acute" x="287" y="25" flags="0x4"/>
    </TTGlyph>
    <TTGlyph name="Ebreve" xMin="136" yMin="0" xMax="1133" yMax="1896">
      <component glyphName="E" x="0" y="0" flags="0x204"/>
      <component glyphName="breve" x="152" y="440" flags="0x4"/>
    </TTGlyph>
    <TTGlyph name="Ebreve.smcp" xMin="129" yMin="0" xMax="981" yMax="1573">
      <component glyphName="E.smcp" x="0" y="0" flags="0x204"/>
      <component glyphName="breve" x="91" y="117" flags="0x4"/>
    </TTGlyph>
    <TTGlyph name="Ecaron" xMin="136" yMin="0" xMax="1133" yMax="1873">
      <component glyphName="E" x="0" y="0" flags="0x204"/>
      <component glyphName="caron" x="124" y="349" flags="0x4"/>
    </TTGlyph>
    <TTGlyph name="Ecaron.smcp" xMin="129" yMin="0" xMax="981" yMax="1550">
      <component glyphName="E.smcp" x="0" y="0" flags="0x204"/>
      <component glyphName="caron" x="63" y="26" flags="0x4"/>
    </TTGlyph>
    <TTGlyph name="Ecircumflex" xMin="136" yMin="0" xMax="1133" yMax="1858">
      <component glyphName="E" x="0" y="0" flags="0x204"/>
      <component glyphName="circumflex" x="101" y="340" flags="0x4"/>
    </TTGlyph>
    <TTGlyph name="Ecircumflex.smcp" xMin="129" yMin="0" xMax="981" yMax="1535">
      <component glyphName="E.smcp" x="0" y="0" flags="0x204"/>
      <component glyphName="circumflex" x="40" y="17" flags="0x4"/>
    </TTGlyph>
    <TTGlyph name="Edieresis" xMin="136" yMin="0" xMax="1133" yMax="1805">
      <component glyphName="E" x="0" y="0" flags="0x204"/>
      <component glyphName="dieresis" x="65" y="349" flags="0x4"/>
    </TTGlyph>
    <TTGlyph name="Edieresis.smcp" xMin="129" yMin="0" xMax="981" yMax="1482">
      <component glyphName="E.smcp" x="0" y="0" flags="0x204"/>
      <component glyphName="dieresis" x="4" y="26" flags="0x4"/>
    </TTGlyph>
    <TTGlyph name="Edotaccent" xMin="136" yMin="0" xMax="1133" yMax="1842">
      <component glyphName="E" x="0" y="0" flags="0x204"/>
      <component glyphName="dotaccent" x="303" y="374" flags="0x4"/>
    </TTGlyph>
    <TTGlyph name="Edotaccent.smcp" xMin="129" yMin="0" xMax="981" yMax="1519">
      <component glyphName="E.smcp" x="0" y="0" flags="0x204"/>
      <component glyphName="dotaccent" x="242" y="51" flags="0x4"/>
    </TTGlyph>
    <TTGlyph name="Egrave" xMin="136" yMin="0" xMax="1133" yMax="1826">
      <component glyphName="E" x="0" y="0" flags="0x204"/>
      <component glyphName="grave" x="167" y="348" flags="0x4"/>
    </TTGlyph>
    <TTGlyph name="Egrave.smcp" xMin="129" yMin="0" xMax="981" yMax="1508">
      <component glyphName="E.smcp" x="0" y="0" flags="0x204"/>
      <component glyphName="grave" x="106" y="30" flags="0x4"/>
    </TTGlyph>
    <TTGlyph name="Emacron" xMin="136" yMin="0" xMax="1133" yMax="1778">
      <component glyphName="E" x="0" y="0" flags="0x204"/>
      <component glyphName="macron" x="92" y="321" flags="0x4"/>
    </TTGlyph>
    <TTGlyph name="Emacron.smcp" xMin="129" yMin="0" xMax="981" yMax="1457">
      <component glyphName="E.smcp" x="0" y="0" flags="0x204"/>
      <component glyphName="macron" x="31" y="0" flags="0x4"/>
    </TTGlyph>
    <TTGlyph name="Eng" xMin="131" yMin="-437" xMax="1308" yMax="1456">
      <contour>
        <pt x="1308" y="1456" on="1"/>
        <pt x="1308" y="-40" on="1"/>
        <pt x="1308" y="-230" on="0"/>
        <pt x="1106" y="-437" on="0"/>
        <pt x="927" y="-437" on="1"/>
        <pt x="886" y="-437" on="0"/>
        <pt x="818" y="-429" on="0"/>
        <pt x="782" y="-420" on="1"/>
        <pt x="796" y="-199" on="1"/>
        <pt x="819" y="-205" on="0"/>
        <pt x="869" y="-212" on="0"/>
        <pt x="896" y="-212" on="1"/>
        <pt x="953" y="-212" on="0"/>
        <pt x="1017" y="-122" on="0"/>
        <pt x="1017" y="-40" on="1"/>
        <pt x="1017" y="0" on="1"/>
        <pt x="430" y="982" on="1"/>
        <pt x="424" y="981" on="1"/>
        <pt x="424" y="0" on="1"/>
        <pt x="131" y="0" on="1"/>
        <pt x="131" y="1456" on="1"/>
        <pt x="424" y="1456" on="1"/>
        <pt x="1011" y="475" on="1"/>
        <pt x="1017" y="476" on="1"/>
        <pt x="1017" y="1456" on="1"/>
      </contour>
    </TTGlyph>
    <TTGlyph name="Eogonek" xMin="136" yMin="-424" xMax="1133" yMax="1456">
      <component glyphName="E" x="0" y="0" flags="0x204"/>
      <component glyphName="ogonek" x="288" y="0" flags="0x4"/>
    </TTGlyph>
    <TTGlyph name="Eogonek.smcp" xMin="129" yMin="-424" xMax="981" yMax="1165">
      <component glyphName="E.smcp" x="0" y="0" flags="0x204"/>
      <component glyphName="ogonek" x="247" y="0" flags="0x4"/>
    </TTGlyph>
    <TTGlyph name="Epsilon" xMin="136" yMin="0" xMax="1133" yMax="1456">
      <component glyphName="E" x="0" y="0" flags="0x204"/>
    </TTGlyph>
    <TTGlyph name="Epsilontonos" xMin="-138" yMin="0" xMax="1233" yMax="1626">
      <component glyphName="E" x="100" y="0" flags="0x4"/>
      <component glyphName="tonos" x="-376" y="2" flags="0x4"/>
    </TTGlyph>
    <TTGlyph name="Eta" xMin="136" yMin="0" xMax="1313" yMax="1456">
      <component glyphName="H" x="0" y="0" flags="0x204"/>
    </TTGlyph>
    <TTGlyph name="Etatonos" xMin="-97" yMin="0" xMax="1413" yMax="1624">
      <component glyphName="H" x="100" y="0" flags="0x4"/>
      <component glyphName="tonos" x="-335" y="0" flags="0x4"/>
    </TTGlyph>
    <TTGlyph name="Eth" xMin="31" yMin="0" xMax="1279" yMax="1456">
      <contour>
        <pt x="166" y="0" on="1"/>
        <pt x="166" y="652" on="1"/>
        <pt x="31" y="652" on="1"/>
        <pt x="31" y="833" on="1"/>
        <pt x="166" y="833" on="1"/>
        <pt x="166" y="1456" on="1"/>
        <pt x="666" y="1456" on="1"/>
        <pt x="933" y="1456" on="0"/>
        <pt x="1279" y="1115" on="0"/>
        <pt x="1279" y="848" on="1"/>
        <pt x="1279" y="607" on="1"/>
        <pt x="1279" y="339" on="0"/>
        <pt x="933" y="0" on="0"/>
        <pt x="666" y="0" on="1"/>
      </contour>
      <contour>
        <pt x="702" y="652" on="1"/>
        <pt x="458" y="652" on="1"/>
        <pt x="458" y="224" on="1"/>
        <pt x="651" y="224" on="1"/>
        <pt x="808" y="224" on="0"/>
        <pt x="986" y="436" on="0"/>
        <pt x="986" y="607" on="1"/>
        <pt x="986" y="850" on="1"/>
        <pt x="986" y="1019" on="0"/>
        <pt x="808" y="1231" on="0"/>
        <pt x="651" y="1231" on="1"/>
        <pt x="458" y="1231" on="1"/>
        <pt x="458" y="833" on="1"/>
        <pt x="702" y="833" on="1"/>
      </contour>
    </TTGlyph>
    <TTGlyph name="Eth.smcp" xMin="-33" yMin="0" xMax="1107" yMax="1165">
      <component glyphName="D.smcp" x="0" y="0" flags="0x204"/>
      <component glyphName="crossbar" x="-189" y="-142" flags="0x4"/>
    </TTGlyph>
    <TTGlyph name="Euro" xMin="71" yMin="-21" xMax="1005" yMax="1477">
      <contour>
        <pt x="937" y="455" on="1"/>
        <pt x="509" y="455" on="1"/>
        <pt x="509" y="447" on="1"/>
        <pt x="509" y="348" on="0"/>
        <pt x="644" y="203" on="0"/>
        <pt x="764" y="203" on="1"/>
        <pt x="822" y="203" on="0"/>
        <pt x="933" y="220" on="0"/>
        <pt x="984" y="237" on="1"/>
        <pt x="1005" y="10" on="1"/>
        <pt x="948" y="-5" on="0"/>
        <pt x="826" y="-21" on="0"/>
        <pt x="764" y="-21" on="1"/>
        <pt x="519" y="-21" on="0"/>
        <pt x="217" y="254" on="0"/>
        <pt x="217" y="447" on="1"/>
        <pt x="217" y="455" on="1"/>
        <pt x="71" y="455" on="1"/>
        <pt x="71" y="655" on="1"/>
        <pt x="217" y="655" on="1"/>
        <pt x="217" y="771" on="1"/>
        <pt x="71" y="771" on="1"/>
        <pt x="71" y="971" on="1"/>
        <pt x="217" y="971" on="1"/>
        <pt x="217" y="984" on="1"/>
        <pt x="217" y="1187" on="0"/>
        <pt x="518" y="1477" on="0"/>
        <pt x="762" y="1477" on="1"/>
        <pt x="822" y="1477" on="0"/>
        <pt x="937" y="1461" on="0"/>
        <pt x="1005" y="1446" on="1"/>
        <pt x="984" y="1217" on="1"/>
        <pt x="931" y="1233" on="0"/>
        <pt x="818" y="1252" on="0"/>
        <pt x="762" y="1252" on="1"/>
        <pt x="644" y="1252" on="0"/>
        <pt x="509" y="1091" on="0"/>
        <pt x="509" y="986" on="1"/>
        <pt x="509" y="971" on="1"/>
        <pt x="937" y="971" on="1"/>
        <pt x="937" y="771" on="1"/>
        <pt x="509" y="771" on="1"/>
        <pt x="509" y="655" on="1"/>
        <pt x="937" y="655" on="1"/>
      </contour>
    </TTGlyph>
    <TTGlyph name="F" xMin="136" yMin="0" xMax="1140" yMax="1456">
      <contour>
        <pt x="1038" y="605" on="1"/>
        <pt x="428" y="605" on="1"/>
        <pt x="428" y="0" on="1"/>
        <pt x="136" y="0" on="1"/>
        <pt x="136" y="1456" on="1"/>
        <pt x="1140" y="1456" on="1"/>
        <pt x="1140" y="1231" on="1"/>
        <pt x="428" y="1231" on="1"/>
        <pt x="428" y="830" on="1"/>
        <pt x="1038" y="830" on="1"/>
      </contour>
    </TTGlyph>
    <TTGlyph name="F.smcp" xMin="129" yMin="0" xMax="1003" yMax="1165">
      <contour>
        <pt x="916" y="462" on="1"/>
        <pt x="421" y="462" on="1"/>
        <pt x="421" y="0" on="1"/>
        <pt x="129" y="0" on="1"/>
        <pt x="129" y="1165" on="1"/>
        <pt x="1003" y="1165" on="1"/>
        <pt x="1003" y="942" on="1"/>
        <pt x="421" y="942" on="1"/>
        <pt x="421" y="686" on="1"/>
        <pt x="916" y="686" on="1"/>
      </contour>
    </TTGlyph>
    <TTGlyph name="G" xMin="99" yMin="-21" xMax="1254" yMax="1477">
      <contour>
        <pt x="1254" y="199" on="1"/>
        <pt x="1189" y="113" on="0"/>
        <pt x="914" y="-21" on="0"/>
        <pt x="704" y="-21" on="1"/>
        <pt x="437" y="-21" on="0"/>
        <pt x="99" y="311" on="0"/>
        <pt x="99" y="576" on="1"/>
        <pt x="99" y="880" on="1"/>
        <pt x="99" y="1144" on="0"/>
        <pt x="424" y="1477" on="0"/>
        <pt x="680" y="1477" on="1"/>
        <pt x="946" y="1477" on="0"/>
        <pt x="1229" y="1218" on="0"/>
        <pt x="1232" y="1007" on="1"/>
        <pt x="1230" y="1001" on="1"/>
        <pt x="955" y="1001" on="1"/>
        <pt x="947" y="1117" on="0"/>
        <pt x="815" y="1252" on="0"/>
        <pt x="688" y="1252" on="1"/>
        <pt x="554" y="1252" on="0"/>
        <pt x="390" y="1045" on="0"/>
        <pt x="390" y="882" on="1"/>
        <pt x="390" y="576" on="1"/>
        <pt x="390" y="410" on="0"/>
        <pt x="560" y="203" on="0"/>
        <pt x="704" y="203" on="1"/>
        <pt x="806" y="203" on="0"/>
        <pt x="930" y="245" on="0"/>
        <pt x="962" y="276" on="1"/>
        <pt x="962" y="546" on="1"/>
        <pt x="704" y="546" on="1"/>
        <pt x="704" y="748" on="1"/>
        <pt x="1254" y="748" on="1"/>
      </contour>
    </TTGlyph>
    <TTGlyph name="G.smcp" xMin="95" yMin="-17" xMax="1140" yMax="1181">
      <contour>
        <pt x="1140" y="161" on="1"/>
        <pt x="1073" y="86" on="0"/>
        <pt x="828" y="-17" on="0"/>
        <pt x="633" y="-17" on="1"/>
        <pt x="394" y="-17" on="0"/>
        <pt x="95" y="248" on="0"/>
        <pt x="95" y="461" on="1"/>
        <pt x="95" y="704" on="1"/>
        <pt x="95" y="915" on="0"/>
        <pt x="389" y="1181" on="0"/>
        <pt x="619" y="1181" on="1"/>
        <pt x="853" y="1181" on="0"/>
        <pt x="1117" y="984" on="0"/>
        <pt x="1112" y="806" on="1"/>
        <pt x="1110" y="800" on="1"/>
        <pt x="828" y="800" on="1"/>
        <pt x="828" y="883" on="0"/>
        <pt x="730" y="958" on="0"/>
        <pt x="619" y="958" on="1"/>
        <pt x="512" y="958" on="0"/>
        <pt x="387" y="817" on="0"/>
        <pt x="387" y="705" on="1"/>
        <pt x="387" y="461" on="1"/>
        <pt x="387" y="347" on="0"/>
        <pt x="518" y="205" on="0"/>
        <pt x="633" y="205" on="1"/>
        <pt x="720" y="205" on="0"/>
        <pt x="818" y="229" on="0"/>
        <pt x="849" y="250" on="1"/>
        <pt x="849" y="431" on="1"/>
        <pt x="630" y="431" on="1"/>
        <pt x="630" y="624" on="1"/>
        <pt x="1140" y="624" on="1"/>
      </contour>
    </TTGlyph>
    <TTGlyph name="Gamma" xMin="136" yMin="0" xMax="1085" yMax="1456">
      <contour>
        <pt x="1085" y="1231" on="1"/>
        <pt x="428" y="1231" on="1"/>
        <pt x="428" y="0" on="1"/>
        <pt x="136" y="0" on="1"/>
        <pt x="136" y="1456" on="1"/>
        <pt x="1085" y="1456" on="1"/>
      </contour>
    </TTGlyph>
    <TTGlyph name="Gbreve" xMin="99" yMin="-21" xMax="1254" yMax="1917">
      <component glyphName="G" x="0" y="0" flags="0x204"/>
      <component glyphName="breve" x="222" y="461" flags="0x4"/>
    </TTGlyph>
    <TTGlyph name="Gbreve.smcp" xMin="95" yMin="-17" xMax="1140" yMax="1589">
      <component glyphName="G.smcp" x="0" y="0" flags="0x204"/>
      <component glyphName="breve" x="156" y="133" flags="0x4"/>
    </TTGlyph>
    <TTGlyph name="Gcircumflex" xMin="99" yMin="-21" xMax="1254" yMax="1879">
      <component glyphName="G" x="0" y="0" flags="0x204"/>
      <component glyphName="circumflex" x="171" y="361" flags="0x4"/>
    </TTGlyph>
    <TTGlyph name="Gcircumflex.smcp" xMin="95" yMin="-17" xMax="1140" yMax="1551">
      <component glyphName="G.smcp" x="0" y="0" flags="0x204"/>
      <component glyphName="circumflex" x="105" y="33" flags="0x4"/>
    </TTGlyph>
    <TTGlyph name="Gcommaaccent" xMin="99" yMin="-501" xMax="1254" yMax="1477">
      <component glyphName="G" x="0" y="0" flags="0x204"/>
      <component glyphName="commaaccent" x="466" y="-377" flags="0x4"/>
    </TTGlyph>
    <TTGlyph name="Gcommaaccent.smcp" xMin="95" yMin="-500" xMax="1140" yMax="1181">
      <component glyphName="G.smcp" x="0" y="0" flags="0x204"/>
      <component glyphName="commaaccent" x="399" y="-376" flags="0x4"/>
    </TTGlyph>
    <TTGlyph name="H" xMin="136" yMin="0" xMax="1313" yMax="1456">
      <contour>
        <pt x="1313" y="0" on="1"/>
        <pt x="1022" y="0" on="1"/>
        <pt x="1022" y="605" on="1"/>
        <pt x="428" y="605" on="1"/>
        <pt x="428" y="0" on="1"/>
        <pt x="136" y="0" on="1"/>
        <pt x="136" y="1456" on="1"/>
        <pt x="428" y="1456" on="1"/>
        <pt x="428" y="830" on="1"/>
        <pt x="1022" y="830" on="1"/>
        <pt x="1022" y="1456" on="1"/>
        <pt x="1313" y="1456" on="1"/>
      </contour>
    </TTGlyph>
    <TTGlyph name="H.smcp" xMin="129" yMin="0" xMax="1180" yMax="1165">
      <contour>
        <pt x="1180" y="0" on="1"/>
        <pt x="888" y="0" on="1"/>
        <pt x="888" y="458" on="1"/>
        <pt x="421" y="458" on="1"/>
        <pt x="421" y="0" on="1"/>
        <pt x="129" y="0" on="1"/>
        <pt x="129" y="1165" on="1"/>
        <pt x="421" y="1165" on="1"/>
        <pt x="421" y="682" on="1"/>
        <pt x="888" y="682" on="1"/>
        <pt x="888" y="1165" on="1"/>
        <pt x="1180" y="1165" on="1"/>
      </contour>
    </TTGlyph>
    <TTGlyph name="Hbar" xMin="16" yMin="0" xMax="1438" yMax="1456">
      <contour>
        <pt x="1311" y="1199" on="1"/>
        <pt x="1438" y="1199" on="1"/>
        <pt x="1438" y="1028" on="1"/>
        <pt x="1311" y="1028" on="1"/>
        <pt x="1311" y="0" on="1"/>
        <pt x="1020" y="0" on="1"/>
        <pt x="1020" y="605" on="1"/>
        <pt x="426" y="605" on="1"/>
        <pt x="426" y="0" on="1"/>
        <pt x="134" y="0" on="1"/>
        <pt x="134" y="1028" on="1"/>
        <pt x="16" y="1028" on="1"/>
        <pt x="16" y="1199" on="1"/>
        <pt x="134" y="1199" on="1"/>
        <pt x="134" y="1456" on="1"/>
        <pt x="426" y="1456" on="1"/>
        <pt x="426" y="1199" on="1"/>
        <pt x="1020" y="1199" on="1"/>
        <pt x="1020" y="1456" on="1"/>
        <pt x="1311" y="1456" on="1"/>
      </contour>
      <contour>
        <pt x="426" y="830" on="1"/>
        <pt x="1020" y="830" on="1"/>
        <pt x="1020" y="1028" on="1"/>
        <pt x="426" y="1028" on="1"/>
      </contour>
    </TTGlyph>
    <TTGlyph name="Hcircumflex" xMin="136" yMin="0" xMax="1313" yMax="1858">
      <component glyphName="H" x="0" y="0" flags="0x204"/>
      <component glyphName="circumflex" x="219" y="340" flags="0x4"/>
    </TTGlyph>
    <TTGlyph name="Hcircumflex.smcp" xMin="129" yMin="0" xMax="1180" yMax="1535">
      <component glyphName="H.smcp" x="0" y="0" flags="0x204"/>
      <component glyphName="circumflex" x="135" y="17" flags="0x4"/>
    </TTGlyph>
    <TTGlyph name="I" xMin="154" yMin="0" xMax="446" yMax="1456">
      <contour>
        <pt x="446" y="0" on="1"/>
        <pt x="154" y="0" on="1"/>
        <pt x="154" y="1456" on="1"/>
        <pt x="446" y="1456" on="1"/>
      </contour>
    </TTGlyph>
    <TTGlyph name="I.smcp" xMin="129" yMin="0" xMax="421" yMax="1165">
      <contour>
        <pt x="421" y="0" on="1"/>
        <pt x="129" y="0" on="1"/>
        <pt x="129" y="1165" on="1"/>
        <pt x="421" y="1165" on="1"/>
      </contour>
    </TTGlyph>
    <TTGlyph name="IJ" xMin="154" yMin="-21" xMax="1638" yMax="1456">
      <component glyphName="I" x="0" y="0" flags="0x4"/>
      <component glyphName="J" x="601" y="0" flags="0x4"/>
    </TTGlyph>
    <TTGlyph name="Iacute" xMin="152" yMin="0" xMax="662" yMax="1826">
      <component glyphName="I" x="0" y="0" flags="0x204"/>
      <component glyphName="acute" x="44" y="348" flags="0x4"/>
    </TTGlyph>
    <TTGlyph name="Iacute.smcp" xMin="127" yMin="0" xMax="637" yMax="1503">
      <component glyphName="I.smcp" x="0" y="0" flags="0x204"/>
      <component glyphName="acute" x="19" y="25" flags="0x4"/>
    </TTGlyph>
    <TTGlyph name="Ibreve" xMin="-44" yMin="0" xMax="648" yMax="1896">
      <component glyphName="I" x="0" y="0" flags="0x204"/>
      <component glyphName="breve" x="-150" y="440" flags="0x4"/>
    </TTGlyph>
    <TTGlyph name="Ibreve.smcp" xMin="-69" yMin="0" xMax="623" yMax="1573">
      <component glyphName="I.smcp" x="0" y="0" flags="0x204"/>
      <component glyphName="breve" x="-175" y="117" flags="0x4"/>
    </TTGlyph>
    <TTGlyph name="Icircumflex" xMin="-64" yMin="0" xMax="674" yMax="1858">
      <component glyphName="I" x="0" y="0" flags="0x204"/>
      <component glyphName="circumflex" x="-201" y="340" flags="0x4"/>
    </TTGlyph>
    <TTGlyph name="Icircumflex.smcp" xMin="-89" yMin="0" xMax="649" yMax="1535">
      <component glyphName="I.smcp" x="0" y="0" flags="0x204"/>
      <component glyphName="circumflex" x="-226" y="17" flags="0x4"/>
    </TTGlyph>
    <TTGlyph name="Idieresis" xMin="-81" yMin="0" xMax="685" yMax="1805">
      <component glyphName="I" x="0" y="0" flags="0x204"/>
      <component glyphName="dieresis" x="-237" y="349" flags="0x4"/>
    </TTGlyph>
    <TTGlyph name="Idieresis.smcp" xMin="-106" yMin="0" xMax="660" yMax="1482">
      <component glyphName="I.smcp" x="0" y="0" flags="0x204"/>
      <component glyphName="dieresis" x="-262" y="26" flags="0x4"/>
    </TTGlyph>
    <TTGlyph name="Idotaccent" xMin="146" yMin="0" xMax="450" yMax="1842">
      <component glyphName="I" x="0" y="0" flags="0x204"/>
      <component glyphName="dotaccent" x="0" y="374" flags="0x4"/>
    </TTGlyph>
    <TTGlyph name="Idotaccent.smcp" xMin="122" yMin="0" xMax="426" yMax="1519">
      <component glyphName="I.smcp" x="0" y="0" flags="0x204"/>
      <component glyphName="dotaccent" x="-24" y="51" flags="0x4"/>
    </TTGlyph>
    <TTGlyph name="Igrave" xMin="-58" yMin="0" xMax="450" yMax="1826">
      <component glyphName="I" x="0" y="0" flags="0x204"/>
      <component glyphName="grave" x="-135" y="348" flags="0x4"/>
    </TTGlyph>
    <TTGlyph name="Igrave.smcp" xMin="-83" yMin="0" xMax="425" yMax="1508">
      <component glyphName="I.smcp" x="0" y="0" flags="0x204"/>
      <component glyphName="grave" x="-160" y="30" flags="0x4"/>
    </TTGlyph>
    <TTGlyph name="Imacron" xMin="-62" yMin="0" xMax="669" yMax="1778">
      <component glyphName="I" x="0" y="0" flags="0x204"/>
      <component glyphName="macron" x="-210" y="321" flags="0x4"/>
    </TTGlyph>
    <TTGlyph name="Imacron.smcp" xMin="-87" yMin="0" xMax="644" yMax="1457">
      <component glyphName="I.smcp" x="0" y="0" flags="0x204"/>
      <component glyphName="macron" x="-235" y="0" flags="0x4"/>
    </TTGlyph>
    <TTGlyph name="Iogonek" xMin="41" yMin="-424" xMax="474" yMax="1456">
      <component glyphName="I" x="0" y="0" flags="0x204"/>
      <component glyphName="ogonek" x="-42" y="0" flags="0x4"/>
    </TTGlyph>
    <TTGlyph name="Iogonek.smcp" xMin="61" yMin="-424" xMax="494" yMax="1165">
      <component glyphName="I.smcp" x="0" y="0" flags="0x204"/>
      <component glyphName="ogonek" x="-22" y="0" flags="0x4"/>
    </TTGlyph>
    <TTGlyph name="Iota" xMin="154" yMin="0" xMax="446" yMax="1456">
      <component glyphName="I" x="0" y="0" flags="0x204"/>
    </TTGlyph>
    <TTGlyph name="Iotadieresis" xMin="-81" yMin="0" xMax="685" yMax="1805">
      <component glyphName="I" x="0" y="0" flags="0x204"/>
      <component glyphName="dieresis" x="-237" y="349" flags="0x4"/>
    </TTGlyph>
    <TTGlyph name="Iotatonos" xMin="-88" yMin="0" xMax="546" yMax="1626">
      <component glyphName="I" x="100" y="0" flags="0x4"/>
      <component glyphName="tonos" x="-326" y="2" flags="0x4"/>
    </TTGlyph>
    <TTGlyph name="Itilde" xMin="-73" yMin="0" xMax="676" yMax="1901">
      <component glyphName="I" x="0" y="0" flags="0x204"/>
      <component glyphName="tilde" x="-192" y="372" flags="0x4"/>
    </TTGlyph>
    <TTGlyph name="Itilde.smcp" xMin="-98" yMin="0" xMax="651" yMax="1578">
      <component glyphName="I.smcp" x="0" y="0" flags="0x204"/>
      <component glyphName="tilde" x="-217" y="49" flags="0x4"/>
    </TTGlyph>
    <TTGlyph name="J" xMin="58" yMin="-21" xMax="1037" yMax="1456">
      <contour>
        <pt x="746" y="1456" on="1"/>
        <pt x="1037" y="1456" on="1"/>
        <pt x="1037" y="437" on="1"/>
        <pt x="1037" y="226" on="0"/>
        <pt x="762" y="-21" on="0"/>
        <pt x="552" y="-21" on="1"/>
        <pt x="324" y="-21" on="0"/>
        <pt x="58" y="201" on="0"/>
        <pt x="63" y="417" on="1"/>
        <pt x="65" y="423" on="1"/>
        <pt x="349" y="423" on="1"/>
        <pt x="349" y="308" on="0"/>
        <pt x="459" y="203" on="0"/>
        <pt x="552" y="203" on="1"/>
        <pt x="633" y="203" on="0"/>
        <pt x="746" y="328" on="0"/>
        <pt x="746" y="437" on="1"/>
      </contour>
    </TTGlyph>
    <TTGlyph name="J.smcp" xMin="28" yMin="-19" xMax="931" yMax="1165">
      <contour>
        <pt x="639" y="1165" on="1"/>
        <pt x="931" y="1165" on="1"/>
        <pt x="931" y="383" on="1"/>
        <pt x="931" y="200" on="0"/>
        <pt x="682" y="-19" on="0"/>
        <pt x="487" y="-19" on="1"/>
        <pt x="276" y="-19" on="0"/>
        <pt x="28" y="177" on="0"/>
        <pt x="34" y="361" on="1"/>
        <pt x="36" y="367" on="1"/>
        <pt x="320" y="367" on="1"/>
        <pt x="320" y="285" on="0"/>
        <pt x="414" y="204" on="0"/>
        <pt x="487" y="204" on="1"/>
        <pt x="553" y="204" on="0"/>
        <pt x="639" y="301" on="0"/>
        <pt x="639" y="383" on="1"/>
      </contour>
    </TTGlyph>
    <TTGlyph name="Jcircumflex" xMin="58" yMin="-21" xMax="1246" yMax="1854">
      <component glyphName="J" x="0" y="0" flags="0x204"/>
      <component glyphName="circumflex" x="371" y="336" flags="0x4"/>
    </TTGlyph>
    <TTGlyph name="Jcircumflex.smcp" xMin="28" yMin="-19" xMax="1149" yMax="1535">
      <component glyphName="J.smcp" x="0" y="0" flags="0x204"/>
      <component glyphName="circumflex" x="274" y="17" flags="0x4"/>
    </TTGlyph>
    <TTGlyph name="K" xMin="136" yMin="0" xMax="1337" yMax="1456">
      <contour>
        <pt x="590" y="608" on="1"/>
        <pt x="428" y="608" on="1"/>
        <pt x="428" y="0" on="1"/>
        <pt x="136" y="0" on="1"/>
        <pt x="136" y="1456" on="1"/>
        <pt x="428" y="1456" on="1"/>
        <pt x="428" y="861" on="1"/>
        <pt x="555" y="861" on="1"/>
        <pt x="941" y="1456" on="1"/>
        <pt x="1298" y="1456" on="1"/>
        <pt x="808" y="778" on="1"/>
        <pt x="1337" y="0" on="1"/>
        <pt x="981" y="0" on="1"/>
      </contour>
    </TTGlyph>
    <TTGlyph name="K.smcp" xMin="129" yMin="0" xMax="1142" yMax="1165">
      <contour>
        <pt x="531" y="446" on="1"/>
        <pt x="421" y="446" on="1"/>
        <pt x="421" y="0" on="1"/>
        <pt x="129" y="0" on="1"/>
        <pt x="129" y="1165" on="1"/>
        <pt x="421" y="1165" on="1"/>
        <pt x="421" y="707" on="1"/>
        <pt x="508" y="707" on="1"/>
        <pt x="756" y="1165" on="1"/>
        <pt x="1125" y="1165" on="1"/>
        <pt x="763" y="626" on="1"/>
        <pt x="1142" y="0" on="1"/>
        <pt x="768" y="0" on="1"/>
      </contour>
    </TTGlyph>
    <TTGlyph name="Kappa" xMin="136" yMin="0" xMax="1337" yMax="1456">
      <component glyphName="K" x="0" y="0" flags="0x204"/>
    </TTGlyph>
    <TTGlyph name="Kcommaaccent" xMin="136" yMin="-489" xMax="1337" yMax="1456">
      <component glyphName="K" x="0" y="0" flags="0x204"/>
      <component glyphName="commaaccent" x="422" y="-365" flags="0x4"/>
    </TTGlyph>
    <TTGlyph name="Kcommaaccent.smcp" xMin="129" yMin="-491" xMax="1142" yMax="1165">
      <component glyphName="K.smcp" x="0" y="0" flags="0x204"/>
      <component glyphName="commaaccent" x="326" y="-367" flags="0x4"/>
    </TTGlyph>
    <TTGlyph name="L" xMin="136" yMin="0" xMax="1076" yMax="1456">
      <contour>
        <pt x="428" y="224" on="1"/>
        <pt x="1076" y="224" on="1"/>
        <pt x="1076" y="0" on="1"/>
        <pt x="136" y="0" on="1"/>
        <pt x="136" y="1456" on="1"/>
        <pt x="428" y="1456" on="1"/>
      </contour>
    </TTGlyph>
    <TTGlyph name="L.smcp" xMin="129" yMin="0" xMax="904" yMax="1165">
      <contour>
        <pt x="421" y="222" on="1"/>
        <pt x="904" y="222" on="1"/>
        <pt x="904" y="0" on="1"/>
        <pt x="129" y="0" on="1"/>
        <pt x="129" y="1165" on="1"/>
        <pt x="421" y="1165" on="1"/>
      </contour>
    </TTGlyph>
    <TTGlyph name="Lacute" xMin="136" yMin="0" xMax="1076" yMax="1803">
      <component glyphName="L" x="0" y="0" flags="0x204"/>
      <component glyphName="acute" x="28" y="325" flags="0x4"/>
    </TTGlyph>
    <TTGlyph name="Lacute.smcp" xMin="80" yMin="0" xMax="904" yMax="1485">
      <component glyphName="L.smcp" x="0" y="0" flags="0x204"/>
      <component glyphName="acute" x="-28" y="7" flags="0x4"/>
    </TTGlyph>
    <TTGlyph name="Lambda" xMin="19" yMin="0" xMax="1306" yMax="1456">
      <contour>
        <pt x="666" y="1136" on="1"/>
        <pt x="660" y="1136" on="1"/>
        <pt x="325" y="0" on="1"/>
        <pt x="19" y="0" on="1"/>
        <pt x="513" y="1456" on="1"/>
        <pt x="812" y="1456" on="1"/>
        <pt x="1306" y="0" on="1"/>
        <pt x="1001" y="0" on="1"/>
      </contour>
    </TTGlyph>
    <TTGlyph name="Lcaron" xMin="136" yMin="0" xMax="1076" yMax="1458">
      <component glyphName="L" x="0" y="0" flags="0x204"/>
      <component glyphName="commaaccent" x="554" y="1186" flags="0x4"/>
    </TTGlyph>
    <TTGlyph name="Lcaron.smcp" xMin="129" yMin="0" xMax="904" yMax="1166">
      <component glyphName="L.smcp" x="0" y="0" flags="0x204"/>
      <component glyphName="commaaccent" x="477" y="894" flags="0x4"/>
    </TTGlyph>
    <TTGlyph name="Lcommaaccent" xMin="136" yMin="-488" xMax="1076" yMax="1456">
      <component glyphName="L" x="0" y="0" flags="0x204"/>
      <component glyphName="commaaccent" x="384" y="-364" flags="0x4"/>
    </TTGlyph>
    <TTGlyph name="Lcommaaccent.smcp" xMin="129" yMin="-490" xMax="904" yMax="1165">
      <component glyphName="L.smcp" x="0" y="0" flags="0x204"/>
      <component glyphName="commaaccent" x="267" y="-366" flags="0x4"/>
    </TTGlyph>
    <TTGlyph name="Ldot" xMin="136" yMin="0" xMax="1076" yMax="1456">
      <component glyphName="L" x="0" y="0" flags="0x204"/>
      <component glyphName="dotaccent" x="432" y="-546" flags="0x4"/>
    </TTGlyph>
    <TTGlyph name="Ldot.smcp" xMin="129" yMin="0" xMax="904" yMax="1165">
      <component glyphName="L.smcp" x="0" y="0" flags="0x204"/>
      <component glyphName="dotaccent" x="361" y="-713" flags="0x4"/>
    </TTGlyph>
    <TTGlyph name="Lslash" xMin="12" yMin="0" xMax="1059" yMax="1456">
      <contour>
        <pt x="411" y="882" on="1"/>
        <pt x="662" y="954" on="1"/>
        <pt x="662" y="759" on="1"/>
        <pt x="411" y="687" on="1"/>
        <pt x="411" y="224" on="1"/>
        <pt x="1059" y="224" on="1"/>
        <pt x="1059" y="0" on="1"/>
        <pt x="119" y="0" on="1"/>
        <pt x="119" y="603" on="1"/>
        <pt x="12" y="572" on="1"/>
        <pt x="12" y="767" on="1"/>
        <pt x="119" y="798" on="1"/>
        <pt x="119" y="1456" on="1"/>
        <pt x="411" y="1456" on="1"/>
      </contour>
    </TTGlyph>
    <TTGlyph name="M" xMin="136" yMin="0" xMax="1650" yMax="1456">
      <contour>
        <pt x="517" y="1456" on="1"/>
        <pt x="888" y="383" on="1"/>
        <pt x="894" y="383" on="1"/>
        <pt x="1268" y="1456" on="1"/>
        <pt x="1650" y="1456" on="1"/>
        <pt x="1650" y="0" on="1"/>
        <pt x="1358" y="0" on="1"/>
        <pt x="1358" y="434" on="1"/>
        <pt x="1386" y="1077" on="1"/>
        <pt x="1380" y="1078" on="1"/>
        <pt x="990" y="0" on="1"/>
        <pt x="794" y="0" on="1"/>
        <pt x="406" y="1074" on="1"/>
        <pt x="400" y="1073" on="1"/>
        <pt x="428" y="434" on="1"/>
        <pt x="428" y="0" on="1"/>
        <pt x="136" y="0" on="1"/>
        <pt x="136" y="1456" on="1"/>
      </contour>
    </TTGlyph>
    <TTGlyph name="M.smcp" xMin="129" yMin="0" xMax="1416" yMax="1165">
      <contour>
        <pt x="766" y="341" on="1"/>
        <pt x="772" y="341" on="1"/>
        <pt x="1051" y="1165" on="1"/>
        <pt x="1416" y="1165" on="1"/>
        <pt x="1416" y="0" on="1"/>
        <pt x="1125" y="0" on="1"/>
        <pt x="1125" y="696" on="1"/>
        <pt x="1119" y="697" on="1"/>
        <pt x="868" y="0" on="1"/>
        <pt x="672" y="0" on="1"/>
        <pt x="427" y="682" on="1"/>
        <pt x="421" y="681" on="1"/>
        <pt x="421" y="0" on="1"/>
        <pt x="129" y="0" on="1"/>
        <pt x="129" y="1165" on="1"/>
        <pt x="491" y="1165" on="1"/>
      </contour>
    </TTGlyph>
    <TTGlyph name="Mu" xMin="136" yMin="0" xMax="1650" yMax="1456">
      <component glyphName="M" x="0" y="0" flags="0x204"/>
    </TTGlyph>
    <TTGlyph name="N" xMin="136" yMin="0" xMax="1313" yMax="1456">
      <contour>
        <pt x="1313" y="0" on="1"/>
        <pt x="1022" y="0" on="1"/>
        <pt x="434" y="995" on="1"/>
        <pt x="428" y="994" on="1"/>
        <pt x="428" y="0" on="1"/>
        <pt x="136" y="0" on="1"/>
        <pt x="136" y="1456" on="1"/>
        <pt x="428" y="1456" on="1"/>
        <pt x="1016" y="462" on="1"/>
        <pt x="1022" y="463" on="1"/>
        <pt x="1022" y="1456" on="1"/>
        <pt x="1313" y="1456" on="1"/>
      </contour>
    </TTGlyph>
    <TTGlyph name="N.smcp" xMin="129" yMin="0" xMax="1173" yMax="1165">
      <contour>
        <pt x="1173" y="0" on="1"/>
        <pt x="881" y="0" on="1"/>
        <pt x="427" y="717" on="1"/>
        <pt x="421" y="715" on="1"/>
        <pt x="421" y="0" on="1"/>
        <pt x="129" y="0" on="1"/>
        <pt x="129" y="1165" on="1"/>
        <pt x="421" y="1165" on="1"/>
        <pt x="875" y="449" on="1"/>
        <pt x="881" y="451" on="1"/>
        <pt x="881" y="1165" on="1"/>
        <pt x="1173" y="1165" on="1"/>
      </contour>
    </TTGlyph>
    <TTGlyph name="Nacute" xMin="136" yMin="0" xMax="1313" yMax="1826">
      <component glyphName="N" x="0" y="0" flags="0x204"/>
      <component glyphName="acute" x="468" y="348" flags="0x4"/>
    </TTGlyph>
    <TTGlyph name="Nacute.smcp" xMin="129" yMin="0" xMax="1173" yMax="1503">
      <component glyphName="N.smcp" x="0" y="0" flags="0x204"/>
      <component glyphName="acute" x="379" y="25" flags="0x4"/>
    </TTGlyph>
    <TTGlyph name="Ncaron" xMin="136" yMin="0" xMax="1313" yMax="1873">
      <component glyphName="N" x="0" y="0" flags="0x204"/>
      <component glyphName="caron" x="244" y="349" flags="0x4"/>
    </TTGlyph>
    <TTGlyph name="Ncaron.smcp" xMin="129" yMin="0" xMax="1173" yMax="1550">
      <component glyphName="N.smcp" x="0" y="0" flags="0x204"/>
      <component glyphName="caron" x="155" y="26" flags="0x4"/>
    </TTGlyph>
    <TTGlyph name="Ncommaaccent" xMin="136" yMin="-488" xMax="1313" yMax="1456">
      <component glyphName="N" x="0" y="0" flags="0x204"/>
      <component glyphName="commaaccent" x="500" y="-364" flags="0x4"/>
    </TTGlyph>
    <TTGlyph name="Ncommaaccent.smcp" xMin="129" yMin="-490" xMax="1173" yMax="1165">
      <component glyphName="N.smcp" x="0" y="0" flags="0x204"/>
      <component glyphName="commaaccent" x="411" y="-366" flags="0x4"/>
    </TTGlyph>
    <TTGlyph name="Ntilde" xMin="136" yMin="0" xMax="1313" yMax="1901">
      <component glyphName="N" x="0" y="0" flags="0x204"/>
      <component glyphName="tilde" x="230" y="372" flags="0x4"/>
    </TTGlyph>
    <TTGlyph name="Ntilde.smcp" xMin="129" yMin="0" xMax="1173" yMax="1578">
      <component glyphName="N.smcp" x="0" y="0" flags="0x204"/>
      <component glyphName="tilde" x="141" y="49" flags="0x4"/>
    </TTGlyph>
    <TTGlyph name="Nu" xMin="136" yMin="0" xMax="1313" yMax="1456">
      <component glyphName="N" x="0" y="0" flags="0x204"/>
    </TTGlyph>
    <TTGlyph name="O" xMin="92" yMin="-21" xMax="1307" yMax="1477">
      <contour>
        <pt x="1307" y="597" on="1"/>
        <pt x="1307" y="329" on="0"/>
        <pt x="968" y="-21" on="0"/>
        <pt x="697" y="-21" on="1"/>
        <pt x="428" y="-21" on="0"/>
        <pt x="92" y="329" on="0"/>
        <pt x="92" y="597" on="1"/>
        <pt x="92" y="859" on="1"/>
        <pt x="92" y="1126" on="0"/>
        <pt x="427" y="1477" on="0"/>
        <pt x="696" y="1477" on="1"/>
        <pt x="967" y="1477" on="0"/>
        <pt x="1307" y="1126" on="0"/>
        <pt x="1307" y="859" on="1"/>
      </contour>
      <contour>
        <pt x="1015" y="861" on="1"/>
        <pt x="1015" y="1031" on="0"/>
        <pt x="845" y="1249" on="0"/>
        <pt x="696" y="1249" on="1"/>
        <pt x="547" y="1249" on="0"/>
        <pt x="383" y="1032" on="0"/>
        <pt x="383" y="861" on="1"/>
        <pt x="383" y="597" on="1"/>
        <pt x="383" y="424" on="0"/>
        <pt x="549" y="206" on="0"/>
        <pt x="697" y="206" on="1"/>
        <pt x="847" y="206" on="0"/>
        <pt x="1015" y="424" on="0"/>
        <pt x="1015" y="597" on="1"/>
      </contour>
    </TTGlyph>
    <TTGlyph name="O.smcp" xMin="91" yMin="-19" xMax="1132" yMax="1181">
      <contour>
        <pt x="1132" y="461" on="1"/>
        <pt x="1132" y="248" on="0"/>
        <pt x="842" y="-19" on="0"/>
        <pt x="612" y="-19" on="1"/>
        <pt x="382" y="-19" on="0"/>
        <pt x="91" y="248" on="0"/>
        <pt x="91" y="461" on="1"/>
        <pt x="91" y="704" on="1"/>
        <pt x="91" y="916" on="0"/>
        <pt x="380" y="1181" on="0"/>
        <pt x="611" y="1181" on="1"/>
        <pt x="841" y="1181" on="0"/>
        <pt x="1132" y="915" on="0"/>
        <pt x="1132" y="704" on="1"/>
      </contour>
      <contour>
        <pt x="841" y="705" on="1"/>
        <pt x="841" y="814" on="0"/>
        <pt x="716" y="958" on="0"/>
        <pt x="611" y="958" on="1"/>
        <pt x="503" y="958" on="0"/>
        <pt x="383" y="815" on="0"/>
        <pt x="383" y="705" on="1"/>
        <pt x="383" y="461" on="1"/>
        <pt x="383" y="349" on="0"/>
        <pt x="504" y="204" on="0"/>
        <pt x="612" y="204" on="1"/>
        <pt x="718" y="204" on="0"/>
        <pt x="841" y="349" on="0"/>
        <pt x="841" y="461" on="1"/>
      </contour>
    </TTGlyph>
    <TTGlyph name="OE" xMin="97" yMin="-21" xMax="1858" yMax="1477">
      <contour>
        <pt x="1858" y="0" on="1"/>
        <pt x="991" y="0" on="1"/>
        <pt x="899" y="-10" on="0"/>
        <pt x="770" y="-21" on="0"/>
        <pt x="703" y="-21" on="1"/>
        <pt x="433" y="-21" on="0"/>
        <pt x="97" y="310" on="0"/>
        <pt x="97" y="576" on="1"/>
        <pt x="97" y="880" on="1"/>
        <pt x="97" y="1145" on="0"/>
        <pt x="431" y="1477" on="0"/>
        <pt x="701" y="1477" on="1"/>
        <pt x="770" y="1477" on="0"/>
        <pt x="912" y="1465" on="0"/>
        <pt x="991" y="1456" on="1"/>
        <pt x="1856" y="1456" on="1"/>
        <pt x="1856" y="1231" on="1"/>
        <pt x="1153" y="1231" on="1"/>
        <pt x="1153" y="865" on="1"/>
        <pt x="1756" y="865" on="1"/>
        <pt x="1756" y="640" on="1"/>
        <pt x="1153" y="640" on="1"/>
        <pt x="1153" y="224" on="1"/>
        <pt x="1858" y="224" on="1"/>
      </contour>
      <contour>
        <pt x="703" y="204" on="1"/>
        <pt x="743" y="204" on="0"/>
        <pt x="822" y="208" on="0"/>
        <pt x="861" y="213" on="1"/>
        <pt x="861" y="1243" on="1"/>
        <pt x="816" y="1247" on="0"/>
        <pt x="739" y="1252" on="0"/>
        <pt x="701" y="1252" on="1"/>
        <pt x="553" y="1252" on="0"/>
        <pt x="388" y="1063" on="0"/>
        <pt x="388" y="882" on="1"/>
        <pt x="388" y="576" on="1"/>
        <pt x="388" y="394" on="0"/>
        <pt x="555" y="204" on="0"/>
      </contour>
    </TTGlyph>
    <TTGlyph name="Oacute" xMin="92" yMin="-21" xMax="1307" yMax="1847">
      <component glyphName="O" x="0" y="0" flags="0x204"/>
      <component glyphName="acute" x="443" y="369" flags="0x4"/>
    </TTGlyph>
    <TTGlyph name="Oacute.smcp" xMin="91" yMin="-19" xMax="1132" yMax="1522">
      <component glyphName="O.smcp" x="0" y="0" flags="0x204"/>
      <component glyphName="acute" x="342" y="44" flags="0x4"/>
    </TTGlyph>
    <TTGlyph name="Obreve" xMin="92" yMin="-21" xMax="1307" yMax="1917">
      <component glyphName="O" x="0" y="0" flags="0x204"/>
      <component glyphName="breve" x="247" y="461" flags="0x4"/>
    </TTGlyph>
    <TTGlyph name="Obreve.smcp" xMin="91" yMin="-19" xMax="1132" yMax="1592">
      <component glyphName="O.smcp" x="0" y="0" flags="0x204"/>
      <component glyphName="breve" x="146" y="136" flags="0x4"/>
    </TTGlyph>
    <TTGlyph name="Ocircumflex" xMin="92" yMin="-21" xMax="1307" yMax="1879">
      <component glyphName="O" x="0" y="0" flags="0x204"/>
      <component glyphName="circumflex" x="196" y="361" flags="0x4"/>
    </TTGlyph>
    <TTGlyph name="Ocircumflex.smcp" xMin="91" yMin="-19" xMax="1132" yMax="1554">
      <component glyphName="O.smcp" x="0" y="0" flags="0x204"/>
      <component glyphName="circumflex" x="95" y="36" flags="0x4"/>
    </TTGlyph>
    <TTGlyph name="Odieresis" xMin="92" yMin="-21" xMax="1307" yMax="1826">
      <component glyphName="O" x="0" y="0" flags="0x204"/>
      <component glyphName="dieresis" x="160" y="370" flags="0x4"/>
    </TTGlyph>
    <TTGlyph name="Odieresis.smcp" xMin="91" yMin="-19" xMax="1132" yMax="1501">
      <component glyphName="O.smcp" x="0" y="0" flags="0x204"/>
      <component glyphName="dieresis" x="59" y="45" flags="0x4"/>
    </TTGlyph>
    <TTGlyph name="Ograve" xMin="92" yMin="-21" xMax="1307" yMax="1826">
      <component glyphName="O" x="0" y="0" flags="0x204"/>
      <component glyphName="grave" x="262" y="348" flags="0x4"/>
    </TTGlyph>
    <TTGlyph name="Ograve.smcp" xMin="91" yMin="-19" xMax="1132" yMax="1508">
      <component glyphName="O.smcp" x="0" y="0" flags="0x204"/>
      <component glyphName="grave" x="161" y="30" flags="0x4"/>
    </TTGlyph>
    <TTGlyph name="Ohorn" xMin="87" yMin="-21" xMax="1562" yMax="1617">
      <contour>
        <pt x="1302" y="597" on="1"/>
        <pt x="1302" y="329" on="0"/>
        <pt x="963" y="-21" on="0"/>
        <pt x="692" y="-21" on="1"/>
        <pt x="423" y="-21" on="0"/>
        <pt x="87" y="329" on="0"/>
        <pt x="87" y="597" on="1"/>
        <pt x="87" y="859" on="1"/>
        <pt x="87" y="1126" on="0"/>
        <pt x="422" y="1477" on="0"/>
        <pt x="691" y="1477" on="1"/>
        <pt x="825" y="1477" on="0"/>
        <pt x="1052" y="1383" on="0"/>
        <pt x="1134" y="1299" on="1"/>
        <pt x="1238" y="1325" on="0"/>
        <pt x="1346" y="1489" on="0"/>
        <pt x="1346" y="1617" on="1"/>
        <pt x="1562" y="1617" on="1"/>
        <pt x="1562" y="1425" on="0"/>
        <pt x="1402" y="1171" on="0"/>
        <pt x="1251" y="1119" on="1"/>
        <pt x="1276" y="1059" on="0"/>
        <pt x="1302" y="928" on="0"/>
        <pt x="1302" y="859" on="1"/>
      </contour>
      <contour>
        <pt x="1010" y="861" on="1"/>
        <pt x="1010" y="1031" on="0"/>
        <pt x="840" y="1249" on="0"/>
        <pt x="691" y="1249" on="1"/>
        <pt x="542" y="1249" on="0"/>
        <pt x="378" y="1032" on="0"/>
        <pt x="378" y="861" on="1"/>
        <pt x="378" y="597" on="1"/>
        <pt x="378" y="424" on="0"/>
        <pt x="544" y="206" on="0"/>
        <pt x="692" y="206" on="1"/>
        <pt x="842" y="206" on="0"/>
        <pt x="1010" y="424" on="0"/>
        <pt x="1010" y="597" on="1"/>
      </contour>
    </TTGlyph>
    <TTGlyph name="Ohungarumlaut" xMin="92" yMin="-21" xMax="1307" yMax="1888">
      <component glyphName="O" x="0" y="0" flags="0x204"/>
      <component glyphName="hungarumlaut" x="249" y="370" flags="0x4"/>
    </TTGlyph>
    <TTGlyph name="Ohungarumlaut.smcp" xMin="91" yMin="-19" xMax="1156" yMax="1563">
      <component glyphName="O.smcp" x="0" y="0" flags="0x204"/>
      <component glyphName="hungarumlaut" x="148" y="45" flags="0x4"/>
    </TTGlyph>
    <TTGlyph name="Omacron" xMin="92" yMin="-21" xMax="1307" yMax="1799">
      <component glyphName="O" x="0" y="0" flags="0x204"/>
      <component glyphName="macron" x="187" y="342" flags="0x4"/>
    </TTGlyph>
    <TTGlyph name="Omacron.smcp" xMin="91" yMin="-19" xMax="1132" yMax="1474">
      <component glyphName="O.smcp" x="0" y="0" flags="0x204"/>
      <component glyphName="macron" x="86" y="17" flags="0x4"/>
    </TTGlyph>
    <TTGlyph name="Omega" xMin="104" yMin="0" xMax="1255" yMax="1477">
      <contour>
        <pt x="735" y="231" on="1"/>
        <pt x="827" y="264" on="0"/>
        <pt x="933" y="527" on="0"/>
        <pt x="933" y="764" on="1"/>
        <pt x="933" y="858" on="1"/>
        <pt x="933" y="1049" on="0"/>
        <pt x="798" y="1249" on="0"/>
        <pt x="678" y="1249" on="1"/>
        <pt x="559" y="1249" on="0"/>
        <pt x="426" y="1048" on="0"/>
        <pt x="426" y="858" on="1"/>
        <pt x="426" y="764" on="1"/>
        <pt x="426" y="525" on="0"/>
        <pt x="533" y="264" on="0"/>
        <pt x="630" y="231" on="1"/>
        <pt x="630" y="0" on="1"/>
        <pt x="126" y="0" on="1"/>
        <pt x="126" y="227" on="1"/>
        <pt x="370" y="227" on="1"/>
        <pt x="250" y="318" on="0"/>
        <pt x="104" y="604" on="0"/>
        <pt x="104" y="764" on="1"/>
        <pt x="104" y="856" on="1"/>
        <pt x="104" y="1129" on="0"/>
        <pt x="423" y="1477" on="0"/>
        <pt x="678" y="1477" on="1"/>
        <pt x="933" y="1477" on="0"/>
        <pt x="1255" y="1129" on="0"/>
        <pt x="1255" y="856" on="1"/>
        <pt x="1255" y="764" on="1"/>
        <pt x="1255" y="603" on="0"/>
        <pt x="1108" y="319" on="0"/>
        <pt x="990" y="227" on="1"/>
        <pt x="1240" y="227" on="1"/>
        <pt x="1240" y="0" on="1"/>
        <pt x="735" y="0" on="1"/>
      </contour>
    </TTGlyph>
    <TTGlyph name="Omegatonos" xMin="-26" yMin="0" xMax="1275" yMax="1624">
      <component glyphName="Omega" x="20" y="0" flags="0x4"/>
      <component glyphName="tonos" x="-264" y="0" flags="0x4"/>
    </TTGlyph>
    <TTGlyph name="Omicron" xMin="92" yMin="-21" xMax="1307" yMax="1477">
      <component glyphName="O" x="0" y="0" flags="0x204"/>
    </TTGlyph>
    <TTGlyph name="Omicrontonos" xMin="-15" yMin="-21" xMax="1327" yMax="1624">
      <component glyphName="O" x="20" y="0" flags="0x4"/>
      <component glyphName="tonos" x="-253" y="0" flags="0x4"/>
    </TTGlyph>
    <TTGlyph name="Oslash" xMin="92" yMin="-95" xMax="1307" yMax="1518">
      <contour>
        <pt x="1307" y="597" on="1"/>
        <pt x="1307" y="329" on="0"/>
        <pt x="968" y="-21" on="0"/>
        <pt x="697" y="-21" on="1"/>
        <pt x="618" y="-21" on="0"/>
        <pt x="474" y="11" on="0"/>
        <pt x="413" y="42" on="1"/>
        <pt x="333" y="-95" on="1"/>
        <pt x="190" y="-95" on="1"/>
        <pt x="309" y="109" on="1"/>
        <pt x="205" y="192" on="0"/>
        <pt x="92" y="445" on="0"/>
        <pt x="92" y="597" on="1"/>
        <pt x="92" y="859" on="1"/>
        <pt x="92" y="1126" on="0"/>
        <pt x="427" y="1477" on="0"/>
        <pt x="696" y="1477" on="1"/>
        <pt x="796" y="1477" on="0"/>
        <pt x="973" y="1424" on="0"/>
        <pt x="1047" y="1376" on="1"/>
        <pt x="1130" y="1518" on="1"/>
        <pt x="1273" y="1518" on="1"/>
        <pt x="1143" y="1295" on="1"/>
        <pt x="1222" y="1212" on="0"/>
        <pt x="1307" y="988" on="0"/>
        <pt x="1307" y="859" on="1"/>
      </contour>
      <contour>
        <pt x="383" y="597" on="1"/>
        <pt x="383" y="523" on="0"/>
        <pt x="414" y="396" on="0"/>
        <pt x="444" y="352" on="1"/>
        <pt x="450" y="351" on="1"/>
        <pt x="918" y="1154" on="1"/>
        <pt x="876" y="1199" on="0"/>
        <pt x="764" y="1249" on="0"/>
        <pt x="696" y="1249" on="1"/>
        <pt x="547" y="1249" on="0"/>
        <pt x="383" y="1032" on="0"/>
        <pt x="383" y="861" on="1"/>
      </contour>
      <contour>
        <pt x="1015" y="861" on="1"/>
        <pt x="1015" y="906" on="0"/>
        <pt x="1001" y="990" on="0"/>
        <pt x="990" y="1021" on="1"/>
        <pt x="984" y="1022" on="1"/>
        <pt x="535" y="251" on="1"/>
        <pt x="568" y="229" on="0"/>
        <pt x="650" y="206" on="0"/>
        <pt x="697" y="206" on="1"/>
        <pt x="847" y="206" on="0"/>
        <pt x="1015" y="424" on="0"/>
        <pt x="1015" y="597" on="1"/>
      </contour>
    </TTGlyph>
    <TTGlyph name="Oslashacute" xMin="92" yMin="-95" xMax="1307" yMax="1888">
      <component glyphName="Oslash" x="0" y="0" flags="0x204"/>
      <component glyphName="acute" x="457" y="410" flags="0x4"/>
    </TTGlyph>
    <TTGlyph name="Otilde" xMin="92" yMin="-21" xMax="1307" yMax="1922">
      <component glyphName="O" x="0" y="0" flags="0x204"/>
      <component glyphName="tilde" x="205" y="393" flags="0x4"/>
    </TTGlyph>
    <TTGlyph name="Otilde.smcp" xMin="91" yMin="-19" xMax="1132" yMax="1597">
      <component glyphName="O.smcp" x="0" y="0" flags="0x204"/>
      <component glyphName="tilde" x="104" y="68" flags="0x4"/>
    </TTGlyph>
    <TTGlyph name="P" xMin="136" yMin="0" xMax="1255" yMax="1456">
      <contour>
        <pt x="428" y="528" on="1"/>
        <pt x="428" y="0" on="1"/>
        <pt x="136" y="0" on="1"/>
        <pt x="136" y="1456" on="1"/>
        <pt x="716" y="1456" on="1"/>
        <pt x="967" y="1456" on="0"/>
        <pt x="1255" y="1200" on="0"/>
        <pt x="1255" y="991" on="1"/>
        <pt x="1255" y="782" on="0"/>
        <pt x="967" y="528" on="0"/>
        <pt x="716" y="528" on="1"/>
      </contour>
      <contour>
        <pt x="428" y="753" on="1"/>
        <pt x="716" y="753" on="1"/>
        <pt x="838" y="753" on="0"/>
        <pt x="964" y="886" on="0"/>
        <pt x="964" y="989" on="1"/>
        <pt x="964" y="1094" on="0"/>
        <pt x="839" y="1231" on="0"/>
        <pt x="716" y="1231" on="1"/>
        <pt x="428" y="1231" on="1"/>
      </contour>
    </TTGlyph>
    <TTGlyph name="P.smcp" xMin="129" yMin="0" xMax="1123" yMax="1165">
      <contour>
        <pt x="421" y="365" on="1"/>
        <pt x="421" y="0" on="1"/>
        <pt x="129" y="0" on="1"/>
        <pt x="129" y="1165" on="1"/>
        <pt x="632" y="1165" on="1"/>
        <pt x="854" y="1165" on="0"/>
        <pt x="1123" y="940" on="0"/>
        <pt x="1123" y="765" on="1"/>
        <pt x="1123" y="589" on="0"/>
        <pt x="854" y="365" on="0"/>
        <pt x="632" y="365" on="1"/>
      </contour>
      <contour>
        <pt x="421" y="589" on="1"/>
        <pt x="632" y="589" on="1"/>
        <pt x="725" y="589" on="0"/>
        <pt x="832" y="691" on="0"/>
        <pt x="832" y="763" on="1"/>
        <pt x="832" y="836" on="0"/>
        <pt x="725" y="942" on="0"/>
        <pt x="632" y="942" on="1"/>
        <pt x="421" y="942" on="1"/>
      </contour>
    </TTGlyph>
    <TTGlyph name="Phi" xMin="59" yMin="0" xMax="1464" yMax="1456">
      <contour>
        <pt x="909" y="1255" on="1"/>
        <pt x="1157" y="1239" on="0"/>
        <pt x="1464" y="949" on="0"/>
        <pt x="1464" y="720" on="1"/>
        <pt x="1464" y="495" on="0"/>
        <pt x="1156" y="210" on="0"/>
        <pt x="909" y="195" on="1"/>
        <pt x="909" y="0" on="1"/>
        <pt x="617" y="0" on="1"/>
        <pt x="617" y="195" on="1"/>
        <pt x="367" y="208" on="0"/>
        <pt x="59" y="492" on="0"/>
        <pt x="59" y="718" on="1"/>
        <pt x="59" y="949" on="0"/>
        <pt x="367" y="1241" on="0"/>
        <pt x="617" y="1255" on="1"/>
        <pt x="617" y="1456" on="1"/>
        <pt x="909" y="1456" on="1"/>
      </contour>
      <contour>
        <pt x="345" y="718" on="1"/>
        <pt x="345" y="593" on="0"/>
        <pt x="488" y="447" on="0"/>
        <pt x="611" y="441" on="1"/>
        <pt x="617" y="443" on="1"/>
        <pt x="617" y="1007" on="1"/>
        <pt x="611" y="1009" on="1"/>
        <pt x="488" y="1001" on="0"/>
        <pt x="345" y="849" on="0"/>
      </contour>
      <contour>
        <pt x="1177" y="720" on="1"/>
        <pt x="1177" y="849" on="0"/>
        <pt x="1036" y="1000" on="0"/>
        <pt x="915" y="1009" on="1"/>
        <pt x="909" y="1007" on="1"/>
        <pt x="909" y="443" on="1"/>
        <pt x="915" y="441" on="1"/>
        <pt x="1036" y="449" on="0"/>
        <pt x="1177" y="595" on="0"/>
      </contour>
    </TTGlyph>
    <TTGlyph name="Pi" xMin="136" yMin="0" xMax="1314" yMax="1456">
      <contour>
        <pt x="1314" y="0" on="1"/>
        <pt x="1022" y="0" on="1"/>
        <pt x="1022" y="1231" on="1"/>
        <pt x="428" y="1231" on="1"/>
        <pt x="428" y="0" on="1"/>
        <pt x="136" y="0" on="1"/>
        <pt x="136" y="1456" on="1"/>
        <pt x="1314" y="1456" on="1"/>
      </contour>
    </TTGlyph>
    <TTGlyph name="Psi" xMin="56" yMin="0" xMax="1422" yMax="1456">
      <contour>
        <pt x="888" y="581" on="1"/>
        <pt x="894" y="580" on="1"/>
        <pt x="1009" y="595" on="0"/>
        <pt x="1129" y="777" on="0"/>
        <pt x="1129" y="939" on="1"/>
        <pt x="1129" y="1456" on="1"/>
        <pt x="1422" y="1456" on="1"/>
        <pt x="1422" y="939" on="1"/>
        <pt x="1422" y="679" on="0"/>
        <pt x="1134" y="369" on="0"/>
        <pt x="888" y="343" on="1"/>
        <pt x="888" y="0" on="1"/>
        <pt x="597" y="0" on="1"/>
        <pt x="597" y="342" on="1"/>
        <pt x="346" y="363" on="0"/>
        <pt x="56" y="674" on="0"/>
        <pt x="56" y="939" on="1"/>
        <pt x="56" y="1456" on="1"/>
        <pt x="347" y="1456" on="1"/>
        <pt x="347" y="939" on="1"/>
        <pt x="347" y="781" on="0"/>
        <pt x="475" y="598" on="0"/>
        <pt x="591" y="580" on="1"/>
        <pt x="597" y="582" on="1"/>
        <pt x="597" y="1456" on="1"/>
        <pt x="888" y="1456" on="1"/>
      </contour>
    </TTGlyph>
    <TTGlyph name="Q" xMin="92" yMin="-235" xMax="1382" yMax="1477">
      <contour>
        <pt x="1307" y="597" on="1"/>
        <pt x="1307" y="465" on="0"/>
        <pt x="1221" y="240" on="0"/>
        <pt x="1141" y="157" on="1"/>
        <pt x="1382" y="-79" on="1"/>
        <pt x="1191" y="-235" on="1"/>
        <pt x="929" y="19" on="1"/>
        <pt x="875" y="0" on="0"/>
        <pt x="759" y="-21" on="0"/>
        <pt x="697" y="-21" on="1"/>
        <pt x="428" y="-21" on="0"/>
        <pt x="92" y="329" on="0"/>
        <pt x="92" y="597" on="1"/>
        <pt x="92" y="859" on="1"/>
        <pt x="92" y="1126" on="0"/>
        <pt x="427" y="1477" on="0"/>
        <pt x="696" y="1477" on="1"/>
        <pt x="967" y="1477" on="0"/>
        <pt x="1307" y="1126" on="0"/>
        <pt x="1307" y="859" on="1"/>
      </contour>
      <contour>
        <pt x="1015" y="861" on="1"/>
        <pt x="1015" y="1031" on="0"/>
        <pt x="845" y="1249" on="0"/>
        <pt x="696" y="1249" on="1"/>
        <pt x="547" y="1249" on="0"/>
        <pt x="383" y="1032" on="0"/>
        <pt x="383" y="861" on="1"/>
        <pt x="383" y="597" on="1"/>
        <pt x="383" y="424" on="0"/>
        <pt x="549" y="206" on="0"/>
        <pt x="697" y="206" on="1"/>
        <pt x="847" y="206" on="0"/>
        <pt x="1015" y="424" on="0"/>
        <pt x="1015" y="597" on="1"/>
      </contour>
    </TTGlyph>
    <TTGlyph name="Q.smcp" xMin="95" yMin="-139" xMax="1164" yMax="1181">
      <contour>
        <pt x="1136" y="461" on="1"/>
        <pt x="1136" y="367" on="0"/>
        <pt x="1076" y="207" on="0"/>
        <pt x="1021" y="145" on="1"/>
        <pt x="1164" y="1" on="1"/>
        <pt x="977" y="-139" on="1"/>
        <pt x="823" y="14" on="1"/>
        <pt x="775" y="-2" on="0"/>
        <pt x="671" y="-19" on="0"/>
        <pt x="616" y="-19" on="1"/>
        <pt x="386" y="-19" on="0"/>
        <pt x="95" y="248" on="0"/>
        <pt x="95" y="461" on="1"/>
        <pt x="95" y="704" on="1"/>
        <pt x="95" y="916" on="0"/>
        <pt x="384" y="1181" on="0"/>
        <pt x="615" y="1181" on="1"/>
        <pt x="845" y="1181" on="0"/>
        <pt x="1136" y="915" on="0"/>
        <pt x="1136" y="704" on="1"/>
      </contour>
      <contour>
        <pt x="845" y="705" on="1"/>
        <pt x="845" y="814" on="0"/>
        <pt x="720" y="958" on="0"/>
        <pt x="615" y="958" on="1"/>
        <pt x="507" y="958" on="0"/>
        <pt x="387" y="815" on="0"/>
        <pt x="387" y="705" on="1"/>
        <pt x="387" y="461" on="1"/>
        <pt x="387" y="349" on="0"/>
        <pt x="508" y="204" on="0"/>
        <pt x="616" y="204" on="1"/>
        <pt x="722" y="204" on="0"/>
        <pt x="845" y="349" on="0"/>
        <pt x="845" y="461" on="1"/>
      </contour>
    </TTGlyph>
    <TTGlyph name="R" xMin="136" yMin="0" xMax="1298" yMax="1456">
      <contour>
        <pt x="428" y="582" on="1"/>
        <pt x="428" y="0" on="1"/>
        <pt x="136" y="0" on="1"/>
        <pt x="136" y="1456" on="1"/>
        <pt x="685" y="1456" on="1"/>
        <pt x="934" y="1456" on="0"/>
        <pt x="1215" y="1229" on="0"/>
        <pt x="1215" y="1026" on="1"/>
        <pt x="1215" y="913" on="0"/>
        <pt x="1097" y="751" on="0"/>
        <pt x="983" y="701" on="1"/>
        <pt x="1112" y="663" on="0"/>
        <pt x="1225" y="485" on="0"/>
        <pt x="1225" y="354" on="1"/>
        <pt x="1225" y="247" on="1"/>
        <pt x="1225" y="186" on="0"/>
        <pt x="1258" y="53" on="0"/>
        <pt x="1298" y="21" on="1"/>
        <pt x="1298" y="0" on="1"/>
        <pt x="997" y="0" on="1"/>
        <pt x="957" y="32" on="0"/>
        <pt x="933" y="182" on="0"/>
        <pt x="933" y="249" on="1"/>
        <pt x="933" y="352" on="1"/>
        <pt x="933" y="461" on="0"/>
        <pt x="814" y="582" on="0"/>
        <pt x="706" y="582" on="1"/>
      </contour>
      <contour>
        <pt x="428" y="807" on="1"/>
        <pt x="680" y="807" on="1"/>
        <pt x="803" y="807" on="0"/>
        <pt x="924" y="911" on="0"/>
        <pt x="924" y="1013" on="1"/>
        <pt x="924" y="1113" on="0"/>
        <pt x="803" y="1231" on="0"/>
        <pt x="685" y="1231" on="1"/>
        <pt x="428" y="1231" on="1"/>
      </contour>
    </TTGlyph>
    <TTGlyph name="R.smcp" xMin="129" yMin="0" xMax="1101" yMax="1165">
      <contour>
        <pt x="421" y="418" on="1"/>
        <pt x="421" y="0" on="1"/>
        <pt x="129" y="0" on="1"/>
        <pt x="129" y="1165" on="1"/>
        <pt x="591" y="1165" on="1"/>
        <pt x="806" y="1165" on="0"/>
        <pt x="1061" y="975" on="0"/>
        <pt x="1061" y="812" on="1"/>
        <pt x="1061" y="717" on="0"/>
        <pt x="958" y="577" on="0"/>
        <pt x="859" y="534" on="1"/>
        <pt x="973" y="504" on="0"/>
        <pt x="1074" y="360" on="0"/>
        <pt x="1074" y="255" on="1"/>
        <pt x="1074" y="172" on="1"/>
        <pt x="1074" y="136" on="0"/>
        <pt x="1086" y="33" on="0"/>
        <pt x="1101" y="14" on="1"/>
        <pt x="1101" y="0" on="1"/>
        <pt x="800" y="0" on="1"/>
        <pt x="789" y="19" on="0"/>
        <pt x="783" y="123" on="0"/>
        <pt x="783" y="173" on="1"/>
        <pt x="783" y="254" on="1"/>
        <pt x="783" y="334" on="0"/>
        <pt x="690" y="418" on="0"/>
        <pt x="600" y="418" on="1"/>
      </contour>
      <contour>
        <pt x="421" y="642" on="1"/>
        <pt x="591" y="642" on="1"/>
        <pt x="676" y="642" on="0"/>
        <pt x="768" y="722" on="0"/>
        <pt x="768" y="791" on="1"/>
        <pt x="768" y="856" on="0"/>
        <pt x="674" y="942" on="0"/>
        <pt x="591" y="942" on="1"/>
        <pt x="421" y="942" on="1"/>
      </contour>
    </TTGlyph>
    <TTGlyph name="Racute" xMin="136" yMin="0" xMax="1298" yMax="1826">
      <component glyphName="R" x="0" y="0" flags="0x204"/>
      <component glyphName="acute" x="374" y="348" flags="0x4"/>
    </TTGlyph>
    <TTGlyph name="Racute.smcp" xMin="129" yMin="0" xMax="1101" yMax="1503">
      <component glyphName="R.smcp" x="0" y="0" flags="0x204"/>
      <component glyphName="acute" x="286" y="25" flags="0x4"/>
    </TTGlyph>
    <TTGlyph name="Rcaron" xMin="136" yMin="0" xMax="1298" yMax="1873">
      <component glyphName="R" x="0" y="0" flags="0x204"/>
      <component glyphName="caron" x="150" y="349" flags="0x4"/>
    </TTGlyph>
    <TTGlyph name="Rcaron.smcp" xMin="129" yMin="0" xMax="1101" yMax="1550">
      <component glyphName="R.smcp" x="0" y="0" flags="0x204"/>
      <component glyphName="caron" x="62" y="26" flags="0x4"/>
    </TTGlyph>
    <TTGlyph name="Rcommaaccent" xMin="136" yMin="-488" xMax="1298" yMax="1456">
      <component glyphName="R" x="0" y="0" flags="0x204"/>
      <component glyphName="commaaccent" x="406" y="-364" flags="0x4"/>
    </TTGlyph>
    <TTGlyph name="Rcommaaccent.smcp" xMin="129" yMin="-490" xMax="1101" yMax="1165">
      <component glyphName="R.smcp" x="0" y="0" flags="0x204"/>
      <component glyphName="commaaccent" x="318" y="-366" flags="0x4"/>
    </TTGlyph>
    <TTGlyph name="Rho" xMin="136" yMin="0" xMax="1255" yMax="1456">
      <component glyphName="P" x="0" y="0" flags="0x204"/>
    </TTGlyph>
    <TTGlyph name="S" xMin="85" yMin="-21" xMax="1214" yMax="1477">
      <contour>
        <pt x="922" y="380" on="1"/>
        <pt x="922" y="464" on="0"/>
        <pt x="803" y="566" on="0"/>
        <pt x="654" y="611" on="1"/>
        <pt x="394" y="686" on="0"/>
        <pt x="128" y="892" on="0"/>
        <pt x="128" y="1071" on="1"/>
        <pt x="128" y="1250" on="0"/>
        <pt x="433" y="1477" on="0"/>
        <pt x="670" y="1477" on="1"/>
        <pt x="910" y="1477" on="0"/>
        <pt x="1212" y="1222" on="0"/>
        <pt x="1207" y="1035" on="1"/>
        <pt x="1205" y="1029" on="1"/>
        <pt x="922" y="1029" on="1"/>
        <pt x="922" y="1130" on="0"/>
        <pt x="787" y="1255" on="0"/>
        <pt x="665" y="1255" on="1"/>
        <pt x="548" y="1255" on="0"/>
        <pt x="420" y="1151" on="0"/>
        <pt x="420" y="1070" on="1"/>
        <pt x="420" y="996" on="0"/>
        <pt x="557" y="901" on="0"/>
        <pt x="725" y="848" on="1"/>
        <pt x="966" y="781" on="0"/>
        <pt x="1214" y="561" on="0"/>
        <pt x="1214" y="382" on="1"/>
        <pt x="1214" y="195" on="0"/>
        <pt x="919" y="-21" on="0"/>
        <pt x="677" y="-21" on="1"/>
        <pt x="439" y="-21" on="0"/>
        <pt x="85" y="224" on="0"/>
        <pt x="90" y="445" on="1"/>
        <pt x="92" y="451" on="1"/>
        <pt x="376" y="451" on="1"/>
        <pt x="376" y="321" on="0"/>
        <pt x="535" y="200" on="0"/>
        <pt x="677" y="200" on="1"/>
        <pt x="796" y="200" on="0"/>
        <pt x="922" y="298" on="0"/>
      </contour>
    </TTGlyph>
    <TTGlyph name="S.smcp" xMin="67" yMin="-19" xMax="1057" yMax="1181">
      <contour>
        <pt x="766" y="322" on="1"/>
        <pt x="766" y="376" on="0"/>
        <pt x="671" y="448" on="0"/>
        <pt x="546" y="476" on="1"/>
        <pt x="317" y="520" on="0"/>
        <pt x="111" y="679" on="0"/>
        <pt x="111" y="840" on="1"/>
        <pt x="111" y="987" on="0"/>
        <pt x="360" y="1181" on="0"/>
        <pt x="571" y="1181" on="1"/>
        <pt x="791" y="1181" on="0"/>
        <pt x="1037" y="983" on="0"/>
        <pt x="1032" y="815" on="1"/>
        <pt x="1030" y="809" on="1"/>
        <pt x="748" y="809" on="1"/>
        <pt x="748" y="881" on="0"/>
        <pt x="665" y="959" on="0"/>
        <pt x="571" y="959" on="1"/>
        <pt x="482" y="959" on="0"/>
        <pt x="401" y="893" on="0"/>
        <pt x="401" y="842" on="1"/>
        <pt x="401" y="784" on="0"/>
        <pt x="491" y="716" on="0"/>
        <pt x="632" y="687" on="1"/>
        <pt x="847" y="643" on="0"/>
        <pt x="1057" y="481" on="0"/>
        <pt x="1057" y="326" on="1"/>
        <pt x="1057" y="170" on="0"/>
        <pt x="791" y="-19" on="0"/>
        <pt x="571" y="-19" on="1"/>
        <pt x="337" y="-19" on="0"/>
        <pt x="67" y="179" on="0"/>
        <pt x="73" y="351" on="1"/>
        <pt x="75" y="357" on="1"/>
        <pt x="357" y="357" on="1"/>
        <pt x="359" y="273" on="0"/>
        <pt x="472" y="203" on="0"/>
        <pt x="571" y="203" on="1"/>
        <pt x="671" y="203" on="0"/>
        <pt x="766" y="268" on="0"/>
      </contour>
    </TTGlyph>
    <TTGlyph name="Sacute" xMin="85" yMin="-21" xMax="1214" yMax="1847">
      <component glyphName="S" x="0" y="0" flags="0x204"/>
      <component glyphName="acute" x="393" y="369" flags="0x4"/>
    </TTGlyph>
    <TTGlyph name="Sacute.smcp" xMin="67" yMin="-19" xMax="1057" yMax="1522">
      <component glyphName="S.smcp" x="0" y="0" flags="0x204"/>
      <component glyphName="acute" x="296" y="44" flags="0x4"/>
    </TTGlyph>
    <TTGlyph name="Scaron" xMin="85" yMin="-21" xMax="1214" yMax="1894">
      <component glyphName="S" x="0" y="0" flags="0x204"/>
      <component glyphName="caron" x="169" y="370" flags="0x4"/>
    </TTGlyph>
    <TTGlyph name="Scaron.smcp" xMin="67" yMin="-19" xMax="1057" yMax="1569">
      <component glyphName="S.smcp" x="0" y="0" flags="0x204"/>
      <component glyphName="caron" x="72" y="45" flags="0x4"/>
    </TTGlyph>
    <TTGlyph name="Scedilla" xMin="85" yMin="-467" xMax="1214" yMax="1477">
      <component glyphName="S" x="0" y="0" flags="0x204"/>
      <component glyphName="cedilla" x="433" y="-8" flags="0x4"/>
    </TTGlyph>
    <TTGlyph name="Scedilla.smcp" xMin="67" yMin="-464" xMax="1057" yMax="1181">
      <component glyphName="S.smcp" x="0" y="0" flags="0x204"/>
      <component glyphName="cedilla" x="318" y="-5" flags="0x4"/>
    </TTGlyph>
    <TTGlyph name="Scircumflex" xMin="85" yMin="-21" xMax="1214" yMax="1879">
      <component glyphName="S" x="0" y="0" flags="0x204"/>
      <component glyphName="circumflex" x="146" y="361" flags="0x4"/>
    </TTGlyph>
    <TTGlyph name="Scircumflex.smcp" xMin="67" yMin="-19" xMax="1057" yMax="1554">
      <component glyphName="S.smcp" x="0" y="0" flags="0x204"/>
      <component glyphName="circumflex" x="49" y="36" flags="0x4"/>
    </TTGlyph>
    <TTGlyph name="Scommaaccent" xMin="85" yMin="-508" xMax="1214" yMax="1477">
      <component glyphName="S" x="0" y="0" flags="0x204"/>
      <component glyphName="commaaccent" x="443" y="-384" flags="0x4"/>
    </TTGlyph>
    <TTGlyph name="Sigma" xMin="72" yMin="0" xMax="1105" yMax="1456">
      <contour>
        <pt x="824" y="724" on="1"/>
        <pt x="460" y="225" on="1"/>
        <pt x="1105" y="225" on="1"/>
        <pt x="1105" y="0" on="1"/>
        <pt x="72" y="0" on="1"/>
        <pt x="72" y="152" on="1"/>
        <pt x="515" y="733" on="1"/>
        <pt x="72" y="1305" on="1"/>
        <pt x="72" y="1456" on="1"/>
        <pt x="1078" y="1456" on="1"/>
        <pt x="1078" y="1231" on="1"/>
        <pt x="462" y="1231" on="1"/>
        <pt x="824" y="741" on="1"/>
      </contour>
    </TTGlyph>
    <TTGlyph name="T" xMin="28" yMin="0" xMax="1142" yMax="1456">
      <contour>
        <pt x="1142" y="1231" on="1"/>
        <pt x="730" y="1231" on="1"/>
        <pt x="730" y="0" on="1"/>
        <pt x="438" y="0" on="1"/>
        <pt x="438" y="1231" on="1"/>
        <pt x="28" y="1231" on="1"/>
        <pt x="28" y="1456" on="1"/>
        <pt x="1142" y="1456" on="1"/>
      </contour>
    </TTGlyph>
    <TTGlyph name="T.smcp" xMin="48" yMin="0" xMax="1028" yMax="1165">
      <contour>
        <pt x="1028" y="942" on="1"/>
        <pt x="682" y="942" on="1"/>
        <pt x="682" y="0" on="1"/>
        <pt x="389" y="0" on="1"/>
        <pt x="389" y="942" on="1"/>
        <pt x="48" y="942" on="1"/>
        <pt x="48" y="1165" on="1"/>
        <pt x="1028" y="1165" on="1"/>
      </contour>
    </TTGlyph>
    <TTGlyph name="Tau" xMin="28" yMin="0" xMax="1142" yMax="1456">
      <component glyphName="T" x="0" y="0" flags="0x204"/>
    </TTGlyph>
    <TTGlyph name="Tbar" xMin="28" yMin="0" xMax="1142" yMax="1456">
      <contour>
        <pt x="927" y="757" on="1"/>
        <pt x="730" y="757" on="1"/>
        <pt x="730" y="0" on="1"/>
        <pt x="438" y="0" on="1"/>
        <pt x="438" y="757" on="1"/>
        <pt x="256" y="757" on="1"/>
        <pt x="256" y="938" on="1"/>
        <pt x="438" y="938" on="1"/>
        <pt x="438" y="1231" on="1"/>
        <pt x="28" y="1231" on="1"/>
        <pt x="28" y="1456" on="1"/>
        <pt x="1142" y="1456" on="1"/>
        <pt x="1142" y="1231" on="1"/>
        <pt x="730" y="1231" on="1"/>
        <pt x="730" y="938" on="1"/>
        <pt x="927" y="938" on="1"/>
      </contour>
    </TTGlyph>
    <TTGlyph name="Tbar.smcp" xMin="48" yMin="0" xMax="1028" yMax="1165">
      <component glyphName="T.smcp" x="0" y="0" flags="0x204"/>
      <component glyphName="crossbar" x="47" y="-58" flags="0x4"/>
    </TTGlyph>
    <TTGlyph name="Tcaron" xMin="28" yMin="0" xMax="1142" yMax="1873">
      <component glyphName="T" x="0" y="0" flags="0x204"/>
      <component glyphName="caron" x="107" y="349" flags="0x4"/>
    </TTGlyph>
    <TTGlyph name="Tcaron.smcp" xMin="48" yMin="0" xMax="1028" yMax="1550">
      <component glyphName="T.smcp" x="0" y="0" flags="0x204"/>
      <component glyphName="caron" x="53" y="26" flags="0x4"/>
    </TTGlyph>
    <TTGlyph name="Tcommaaccent" xMin="28" yMin="-488" xMax="1142" yMax="1456">
      <component glyphName="T" x="0" y="0" flags="0x204"/>
      <component glyphName="commaaccent" x="363" y="-364" flags="0x4"/>
    </TTGlyph>
    <TTGlyph name="Tcommaaccent.smcp" xMin="48" yMin="-490" xMax="1028" yMax="1165">
      <component glyphName="T.smcp" x="0" y="0" flags="0x204"/>
      <component glyphName="commaaccent" x="309" y="-366" flags="0x4"/>
    </TTGlyph>
    <TTGlyph name="Theta" xMin="92" yMin="-21" xMax="1307" yMax="1477">
      <contour>
        <pt x="900" y="613" on="1"/>
        <pt x="520" y="613" on="1"/>
        <pt x="520" y="837" on="1"/>
        <pt x="900" y="837" on="1"/>
      </contour>
      <contour>
        <pt x="1307" y="597" on="1"/>
        <pt x="1307" y="329" on="0"/>
        <pt x="968" y="-21" on="0"/>
        <pt x="697" y="-21" on="1"/>
        <pt x="428" y="-21" on="0"/>
        <pt x="92" y="329" on="0"/>
        <pt x="92" y="597" on="1"/>
        <pt x="92" y="859" on="1"/>
        <pt x="92" y="1126" on="0"/>
        <pt x="427" y="1477" on="0"/>
        <pt x="696" y="1477" on="1"/>
        <pt x="967" y="1477" on="0"/>
        <pt x="1307" y="1126" on="0"/>
        <pt x="1307" y="859" on="1"/>
      </contour>
      <contour>
        <pt x="1015" y="861" on="1"/>
        <pt x="1015" y="1031" on="0"/>
        <pt x="845" y="1249" on="0"/>
        <pt x="696" y="1249" on="1"/>
        <pt x="547" y="1249" on="0"/>
        <pt x="383" y="1032" on="0"/>
        <pt x="383" y="861" on="1"/>
        <pt x="383" y="597" on="1"/>
        <pt x="383" y="424" on="0"/>
        <pt x="549" y="206" on="0"/>
        <pt x="697" y="206" on="1"/>
        <pt x="847" y="206" on="0"/>
        <pt x="1015" y="424" on="0"/>
        <pt x="1015" y="597" on="1"/>
      </contour>
    </TTGlyph>
    <TTGlyph name="Thorn" xMin="132" yMin="0" xMax="1183" yMax="1456">
      <contour>
        <pt x="424" y="1456" on="1"/>
        <pt x="424" y="1186" on="1"/>
        <pt x="645" y="1186" on="1"/>
        <pt x="899" y="1186" on="0"/>
        <pt x="1183" y="938" on="0"/>
        <pt x="1183" y="738" on="1"/>
        <pt x="1183" y="537" on="0"/>
        <pt x="899" y="289" on="0"/>
        <pt x="645" y="289" on="1"/>
        <pt x="424" y="289" on="1"/>
        <pt x="424" y="0" on="1"/>
        <pt x="132" y="0" on="1"/>
        <pt x="132" y="1456" on="1"/>
      </contour>
      <contour>
        <pt x="424" y="961" on="1"/>
        <pt x="424" y="514" on="1"/>
        <pt x="645" y="514" on="1"/>
        <pt x="768" y="514" on="0"/>
        <pt x="891" y="641" on="0"/>
        <pt x="891" y="736" on="1"/>
        <pt x="891" y="831" on="0"/>
        <pt x="768" y="961" on="0"/>
        <pt x="645" y="961" on="1"/>
      </contour>
    </TTGlyph>
    <TTGlyph name="U" xMin="120" yMin="-21" xMax="1288" yMax="1456">
      <contour>
        <pt x="1288" y="1456" on="1"/>
        <pt x="1288" y="490" on="1"/>
        <pt x="1288" y="245" on="0"/>
        <pt x="964" y="-21" on="0"/>
        <pt x="702" y="-21" on="1"/>
        <pt x="441" y="-21" on="0"/>
        <pt x="120" y="245" on="0"/>
        <pt x="120" y="490" on="1"/>
        <pt x="120" y="1456" on="1"/>
        <pt x="413" y="1456" on="1"/>
        <pt x="413" y="490" on="1"/>
        <pt x="413" y="346" on="0"/>
        <pt x="567" y="203" on="0"/>
        <pt x="702" y="203" on="1"/>
        <pt x="839" y="203" on="0"/>
        <pt x="995" y="345" on="0"/>
        <pt x="995" y="490" on="1"/>
        <pt x="995" y="1456" on="1"/>
      </contour>
    </TTGlyph>
    <TTGlyph name="U.smcp" xMin="113" yMin="-19" xMax="1156" yMax="1165">
      <contour>
        <pt x="1156" y="1165" on="1"/>
        <pt x="1156" y="413" on="1"/>
        <pt x="1156" y="209" on="0"/>
        <pt x="871" y="-19" on="0"/>
        <pt x="635" y="-19" on="1"/>
        <pt x="398" y="-19" on="0"/>
        <pt x="113" y="210" on="0"/>
        <pt x="113" y="413" on="1"/>
        <pt x="113" y="1165" on="1"/>
        <pt x="405" y="1165" on="1"/>
        <pt x="405" y="413" on="1"/>
        <pt x="405" y="310" on="0"/>
        <pt x="523" y="204" on="0"/>
        <pt x="635" y="204" on="1"/>
        <pt x="747" y="204" on="0"/>
        <pt x="863" y="309" on="0"/>
        <pt x="863" y="413" on="1"/>
        <pt x="863" y="1165" on="1"/>
      </contour>
    </TTGlyph>
    <TTGlyph name="Uacute" xMin="120" yMin="-21" xMax="1288" yMax="1826">
      <component glyphName="U" x="0" y="0" flags="0x204"/>
      <component glyphName="acute" x="448" y="348" flags="0x4"/>
    </TTGlyph>
    <TTGlyph name="Uacute.smcp" xMin="113" yMin="-19" xMax="1156" yMax="1506">
      <component glyphName="U.smcp" x="0" y="0" flags="0x204"/>
      <component glyphName="acute" x="365" y="28" flags="0x4"/>
    </TTGlyph>
    <TTGlyph name="Ubreve" xMin="120" yMin="-21" xMax="1288" yMax="1896">
      <component glyphName="U" x="0" y="0" flags="0x204"/>
      <component glyphName="breve" x="252" y="440" flags="0x4"/>
    </TTGlyph>
    <TTGlyph name="Ubreve.smcp" xMin="113" yMin="-19" xMax="1156" yMax="1576">
      <component glyphName="U.smcp" x="0" y="0" flags="0x204"/>
      <component glyphName="breve" x="169" y="120" flags="0x4"/>
    </TTGlyph>
    <TTGlyph name="Ucircumflex" xMin="120" yMin="-21" xMax="1288" yMax="1858">
      <component glyphName="U" x="0" y="0" flags="0x204"/>
      <component glyphName="circumflex" x="201" y="340" flags="0x4"/>
    </TTGlyph>
    <TTGlyph name="Ucircumflex.smcp" xMin="113" yMin="-19" xMax="1156" yMax="1538">
      <component glyphName="U.smcp" x="0" y="0" flags="0x204"/>
      <component glyphName="circumflex" x="118" y="20" flags="0x4"/>
    </TTGlyph>
    <TTGlyph name="Udieresis" xMin="120" yMin="-21" xMax="1288" yMax="1805">
      <component glyphName="U" x="0" y="0" flags="0x204"/>
      <component glyphName="dieresis" x="165" y="349" flags="0x4"/>
    </TTGlyph>
    <TTGlyph name="Udieresis.smcp" xMin="113" yMin="-19" xMax="1156" yMax="1485">
      <component glyphName="U.smcp" x="0" y="0" flags="0x204"/>
      <component glyphName="dieresis" x="82" y="29" flags="0x4"/>
    </TTGlyph>
    <TTGlyph name="Ugrave" xMin="120" yMin="-21" xMax="1288" yMax="1826">
      <component glyphName="U" x="0" y="0" flags="0x204"/>
      <component glyphName="grave" x="267" y="348" flags="0x4"/>
    </TTGlyph>
    <TTGlyph name="Ugrave.smcp" xMin="113" yMin="-19" xMax="1156" yMax="1508">
      <component glyphName="U.smcp" x="0" y="0" flags="0x204"/>
      <component glyphName="grave" x="184" y="30" flags="0x4"/>
    </TTGlyph>
    <TTGlyph name="Uhorn" xMin="120" yMin="-21" xMax="1664" yMax="1607">
      <contour>
        <pt x="1288" y="1456" on="1"/>
        <pt x="1288" y="1275" on="1"/>
        <pt x="1294" y="1274" on="1"/>
        <pt x="1377" y="1294" on="0"/>
        <pt x="1449" y="1462" on="0"/>
        <pt x="1449" y="1607" on="1"/>
        <pt x="1664" y="1607" on="1"/>
        <pt x="1664" y="1376" on="0"/>
        <pt x="1481" y="1110" on="0"/>
        <pt x="1288" y="1082" on="1"/>
        <pt x="1288" y="490" on="1"/>
        <pt x="1288" y="245" on="0"/>
        <pt x="964" y="-21" on="0"/>
        <pt x="702" y="-21" on="1"/>
        <pt x="441" y="-21" on="0"/>
        <pt x="120" y="245" on="0"/>
        <pt x="120" y="490" on="1"/>
        <pt x="120" y="1456" on="1"/>
        <pt x="413" y="1456" on="1"/>
        <pt x="413" y="490" on="1"/>
        <pt x="413" y="346" on="0"/>
        <pt x="567" y="203" on="0"/>
        <pt x="702" y="203" on="1"/>
        <pt x="839" y="203" on="0"/>
        <pt x="995" y="345" on="0"/>
        <pt x="995" y="490" on="1"/>
        <pt x="995" y="1456" on="1"/>
      </contour>
    </TTGlyph>
    <TTGlyph name="Uhungarumlaut" xMin="120" yMin="-21" xMax="1288" yMax="1867">
      <component glyphName="U" x="0" y="0" flags="0x204"/>
      <component glyphName="hungarumlaut" x="254" y="349" flags="0x4"/>
    </TTGlyph>
    <TTGlyph name="Uhungarumlaut.smcp" xMin="113" yMin="-19" xMax="1179" yMax="1547">
      <component glyphName="U.smcp" x="0" y="0" flags="0x204"/>
      <component glyphName="hungarumlaut" x="171" y="29" flags="0x4"/>
    </TTGlyph>
    <TTGlyph name="Umacron" xMin="120" yMin="-21" xMax="1288" yMax="1778">
      <component glyphName="U" x="0" y="0" flags="0x204"/>
      <component glyphName="macron" x="192" y="321" flags="0x4"/>
    </TTGlyph>
    <TTGlyph name="Umacron.smcp" xMin="113" yMin="-19" xMax="1156" yMax="1458">
      <component glyphName="U.smcp" x="0" y="0" flags="0x204"/>
      <component glyphName="macron" x="109" y="1" flags="0x4"/>
    </TTGlyph>
    <TTGlyph name="Uogonek" xMin="120" yMin="-424" xMax="1288" yMax="1456">
      <component glyphName="U" x="0" y="0" flags="0x204"/>
      <component glyphName="ogonek" x="404" y="0" flags="0x4"/>
    </TTGlyph>
    <TTGlyph name="Uogonek.smcp" xMin="113" yMin="-424" xMax="1156" yMax="1165">
      <component glyphName="U.smcp" x="0" y="0" flags="0x204"/>
      <component glyphName="ogonek" x="338" y="0" flags="0x4"/>
    </TTGlyph>
    <TTGlyph name="Upsilon" xMin="5" yMin="0" xMax="1287" yMax="1456">
      <component glyphName="Y" x="0" y="0" flags="0x204"/>
    </TTGlyph>
    <TTGlyph name="Upsilondieresis" xMin="5" yMin="0" xMax="1287" yMax="1805">
      <component glyphName="Y" x="0" y="0" flags="0x204"/>
      <component glyphName="dieresis" x="113" y="349" flags="0x4"/>
    </TTGlyph>
    <TTGlyph name="Upsilontonos" xMin="-194" yMin="0" xMax="1387" yMax="1624">
      <component glyphName="Y" x="100" y="0" flags="0x4"/>
      <component glyphName="tonos" x="-432" y="0" flags="0x4"/>
    </TTGlyph>
    <TTGlyph name="Uring" xMin="120" yMin="-21" xMax="1288" yMax="1935">
      <component glyphName="U" x="0" y="0" flags="0x204"/>
      <component glyphName="ring" x="363" y="441" flags="0x4"/>
    </TTGlyph>
    <TTGlyph name="Uring.smcp" xMin="113" yMin="-19" xMax="1156" yMax="1615">
      <component glyphName="U.smcp" x="0" y="0" flags="0x204"/>
      <component glyphName="ring" x="280" y="121" flags="0x4"/>
    </TTGlyph>
    <TTGlyph name="Utilde" xMin="120" yMin="-21" xMax="1288" yMax="1901">
      <component glyphName="U" x="0" y="0" flags="0x204"/>
      <component glyphName="tilde" x="210" y="372" flags="0x4"/>
    </TTGlyph>
    <TTGlyph name="Utilde.smcp" xMin="113" yMin="-19" xMax="1156" yMax="1581">
      <component glyphName="U.smcp" x="0" y="0" flags="0x204"/>
      <component glyphName="tilde" x="127" y="52" flags="0x4"/>
    </TTGlyph>
    <TTGlyph name="V" xMin="7" yMin="0" xMax="1296" yMax="1456">
      <contour>
        <pt x="630" y="387" on="1"/>
        <pt x="648" y="308" on="1"/>
        <pt x="654" y="308" on="1"/>
        <pt x="671" y="385" on="1"/>
        <pt x="988" y="1456" on="1"/>
        <pt x="1296" y="1456" on="1"/>
        <pt x="801" y="0" on="1"/>
        <pt x="501" y="0" on="1"/>
        <pt x="7" y="1456" on="1"/>
        <pt x="315" y="1456" on="1"/>
      </contour>
    </TTGlyph>
    <TTGlyph name="V.smcp" xMin="15" yMin="0" xMax="1170" yMax="1165">
      <contour>
        <pt x="581" y="312" on="1"/>
        <pt x="589" y="274" on="1"/>
        <pt x="595" y="274" on="1"/>
        <pt x="602" y="307" on="1"/>
        <pt x="865" y="1165" on="1"/>
        <pt x="1170" y="1165" on="1"/>
        <pt x="751" y="0" on="1"/>
        <pt x="435" y="0" on="1"/>
        <pt x="15" y="1165" on="1"/>
        <pt x="322" y="1165" on="1"/>
      </contour>
    </TTGlyph>
    <TTGlyph name="W" xMin="24" yMin="0" xMax="1787" yMax="1456">
      <contour>
        <pt x="1288" y="458" on="1"/>
        <pt x="1294" y="458" on="1"/>
        <pt x="1502" y="1456" on="1"/>
        <pt x="1787" y="1456" on="1"/>
        <pt x="1447" y="0" on="1"/>
        <pt x="1176" y="0" on="1"/>
        <pt x="909" y="961" on="1"/>
        <pt x="903" y="961" on="1"/>
        <pt x="636" y="0" on="1"/>
        <pt x="365" y="0" on="1"/>
        <pt x="24" y="1456" on="1"/>
        <pt x="310" y="1456" on="1"/>
        <pt x="519" y="459" on="1"/>
        <pt x="525" y="458" on="1"/>
        <pt x="798" y="1456" on="1"/>
        <pt x="1013" y="1456" on="1"/>
      </contour>
    </TTGlyph>
    <TTGlyph name="W.smcp" xMin="40" yMin="0" xMax="1521" yMax="1165">
      <contour>
        <pt x="1080" y="449" on="1"/>
        <pt x="1086" y="449" on="1"/>
        <pt x="1216" y="1165" on="1"/>
        <pt x="1521" y="1165" on="1"/>
        <pt x="1247" y="0" on="1"/>
        <pt x="962" y="0" on="1"/>
        <pt x="781" y="681" on="1"/>
        <pt x="775" y="681" on="1"/>
        <pt x="599" y="0" on="1"/>
        <pt x="314" y="0" on="1"/>
        <pt x="40" y="1165" on="1"/>
        <pt x="345" y="1165" on="1"/>
        <pt x="474" y="447" on="1"/>
        <pt x="480" y="447" on="1"/>
        <pt x="661" y="1165" on="1"/>
        <pt x="901" y="1165" on="1"/>
      </contour>
    </TTGlyph>
    <TTGlyph name="Wacute" xMin="24" yMin="0" xMax="1787" yMax="1826">
      <component glyphName="W" x="0" y="0" flags="0x204"/>
      <component glyphName="acute" x="650" y="348" flags="0x4"/>
    </TTGlyph>
    <TTGlyph name="Wcircumflex" xMin="24" yMin="0" xMax="1787" yMax="1858">
      <component glyphName="W" x="0" y="0" flags="0x204"/>
      <component glyphName="circumflex" x="403" y="340" flags="0x4"/>
    </TTGlyph>
    <TTGlyph name="Wcircumflex.smcp" xMin="40" yMin="0" xMax="1521" yMax="1535">
      <component glyphName="W.smcp" x="0" y="0" flags="0x204"/>
      <component glyphName="circumflex" x="274" y="17" flags="0x4"/>
    </TTGlyph>
    <TTGlyph name="Wdieresis" xMin="24" yMin="0" xMax="1787" yMax="1805">
      <component glyphName="W" x="0" y="0" flags="0x204"/>
      <component glyphName="dieresis" x="367" y="349" flags="0x4"/>
    </TTGlyph>
    <TTGlyph name="Wgrave" xMin="24" yMin="0" xMax="1787" yMax="1826">
      <component glyphName="W" x="0" y="0" flags="0x204"/>
      <component glyphName="grave" x="469" y="348" flags="0x4"/>
    </TTGlyph>
    <TTGlyph name="X" xMin="31" yMin="0" xMax="1287" yMax="1456">
      <contour>
        <pt x="649" y="940" on="1"/>
        <pt x="922" y="1456" on="1"/>
        <pt x="1262" y="1456" on="1"/>
        <pt x="830" y="734" on="1"/>
        <pt x="1287" y="0" on="1"/>
        <pt x="934" y="0" on="1"/>
        <pt x="653" y="525" on="1"/>
        <pt x="372" y="0" on="1"/>
        <pt x="31" y="0" on="1"/>
        <pt x="474" y="734" on="1"/>
        <pt x="42" y="1456" on="1"/>
        <pt x="380" y="1456" on="1"/>
      </contour>
    </TTGlyph>
    <TTGlyph name="X.smcp" xMin="31" yMin="0" xMax="1121" yMax="1165">
      <contour>
        <pt x="574" y="780" on="1"/>
        <pt x="776" y="1165" on="1"/>
        <pt x="1113" y="1165" on="1"/>
        <pt x="758" y="588" on="1"/>
        <pt x="1121" y="0" on="1"/>
        <pt x="786" y="0" on="1"/>
        <pt x="577" y="393" on="1"/>
        <pt x="368" y="0" on="1"/>
        <pt x="31" y="0" on="1"/>
        <pt x="396" y="588" on="1"/>
        <pt x="40" y="1165" on="1"/>
        <pt x="375" y="1165" on="1"/>
      </contour>
    </TTGlyph>
    <TTGlyph name="Xi" xMin="98" yMin="0" xMax="1079" yMax="1456">
      <contour>
        <pt x="98" y="224" on="1"/>
        <pt x="1079" y="224" on="1"/>
        <pt x="1079" y="0" on="1"/>
        <pt x="98" y="0" on="1"/>
      </contour>
      <contour>
        <pt x="210" y="849" on="1"/>
        <pt x="966" y="849" on="1"/>
        <pt x="966" y="632" on="1"/>
        <pt x="210" y="632" on="1"/>
      </contour>
      <contour>
        <pt x="120" y="1456" on="1"/>
        <pt x="1038" y="1456" on="1"/>
        <pt x="1038" y="1231" on="1"/>
        <pt x="120" y="1231" on="1"/>
      </contour>
    </TTGlyph>
    <TTGlyph name="Y" xMin="5" yMin="0" xMax="1287" yMax="1456">
      <contour>
        <pt x="643" y="785" on="1"/>
        <pt x="649" y="785" on="1"/>
        <pt x="967" y="1456" on="1"/>
        <pt x="1287" y="1456" on="1"/>
        <pt x="787" y="512" on="1"/>
        <pt x="787" y="0" on="1"/>
        <pt x="496" y="0" on="1"/>
        <pt x="496" y="527" on="1"/>
        <pt x="5" y="1456" on="1"/>
        <pt x="325" y="1456" on="1"/>
      </contour>
    </TTGlyph>
    <TTGlyph name="Y.smcp" xMin="7" yMin="0" xMax="1093" yMax="1165">
      <contour>
        <pt x="547" y="665" on="1"/>
        <pt x="553" y="665" on="1"/>
        <pt x="776" y="1165" on="1"/>
        <pt x="1093" y="1165" on="1"/>
        <pt x="693" y="411" on="1"/>
        <pt x="693" y="0" on="1"/>
        <pt x="401" y="0" on="1"/>
        <pt x="401" y="420" on="1"/>
        <pt x="7" y="1165" on="1"/>
        <pt x="323" y="1165" on="1"/>
      </contour>
    </TTGlyph>
    <TTGlyph name="Yacute" xMin="5" yMin="0" xMax="1287" yMax="1826">
      <component glyphName="Y" x="0" y="0" flags="0x204"/>
      <component glyphName="acute" x="396" y="348" flags="0x4"/>
    </TTGlyph>
    <TTGlyph name="Yacute.smcp" xMin="7" yMin="0" xMax="1093" yMax="1503">
      <component glyphName="Y.smcp" x="0" y="0" flags="0x204"/>
      <component glyphName="acute" x="297" y="25" flags="0x4"/>
    </TTGlyph>
    <TTGlyph name="Ycircumflex" xMin="5" yMin="0" xMax="1287" yMax="1858">
      <component glyphName="Y" x="0" y="0" flags="0x204"/>
      <component glyphName="circumflex" x="149" y="340" flags="0x4"/>
    </TTGlyph>
    <TTGlyph name="Ycircumflex.smcp" xMin="7" yMin="0" xMax="1093" yMax="1535">
      <component glyphName="Y.smcp" x="0" y="0" flags="0x204"/>
      <component glyphName="circumflex" x="50" y="17" flags="0x4"/>
    </TTGlyph>
    <TTGlyph name="Ydieresis" xMin="5" yMin="0" xMax="1287" yMax="1805">
      <component glyphName="Y" x="0" y="0" flags="0x204"/>
      <component glyphName="dieresis" x="113" y="349" flags="0x4"/>
    </TTGlyph>
    <TTGlyph name="Ydieresis.smcp" xMin="7" yMin="0" xMax="1093" yMax="1482">
      <component glyphName="Y.smcp" x="0" y="0" flags="0x204"/>
      <component glyphName="dieresis" x="14" y="26" flags="0x4"/>
    </TTGlyph>
    <TTGlyph name="Ygrave" xMin="5" yMin="0" xMax="1287" yMax="1826">
      <component glyphName="Y" x="0" y="0" flags="0x204"/>
      <component glyphName="grave" x="215" y="348" flags="0x4"/>
    </TTGlyph>
    <TTGlyph name="Z" xMin="77" yMin="0" xMax="1142" yMax="1456">
      <contour>
        <pt x="430" y="224" on="1"/>
        <pt x="1142" y="224" on="1"/>
        <pt x="1142" y="0" on="1"/>
        <pt x="77" y="0" on="1"/>
        <pt x="77" y="152" on="1"/>
        <pt x="769" y="1231" on="1"/>
        <pt x="78" y="1231" on="1"/>
        <pt x="78" y="1456" on="1"/>
        <pt x="1125" y="1456" on="1"/>
        <pt x="1125" y="1310" on="1"/>
      </contour>
    </TTGlyph>
    <TTGlyph name="Z.smcp" xMin="68" yMin="0" xMax="1025" yMax="1165">
      <contour>
        <pt x="443" y="222" on="1"/>
        <pt x="1025" y="222" on="1"/>
        <pt x="1025" y="0" on="1"/>
        <pt x="68" y="0" on="1"/>
        <pt x="68" y="122" on="1"/>
        <pt x="639" y="942" on="1"/>
        <pt x="101" y="942" on="1"/>
        <pt x="101" y="1165" on="1"/>
        <pt x="1018" y="1165" on="1"/>
        <pt x="1018" y="1048" on="1"/>
      </contour>
    </TTGlyph>
    <TTGlyph name="Zacute" xMin="77" yMin="0" xMax="1142" yMax="1827">
      <component glyphName="Z" x="0" y="0" flags="0x204"/>
      <component glyphName="acute" x="345" y="349" flags="0x4"/>
    </TTGlyph>
    <TTGlyph name="Zacute.smcp" xMin="68" yMin="0" xMax="1025" yMax="1504">
      <component glyphName="Z.smcp" x="0" y="0" flags="0x204"/>
      <component glyphName="acute" x="303" y="26" flags="0x4"/>
    </TTGlyph>
    <TTGlyph name="Zcaron" xMin="77" yMin="0" xMax="1142" yMax="1874">
      <component glyphName="Z" x="0" y="0" flags="0x204"/>
      <component glyphName="caron" x="121" y="350" flags="0x4"/>
    </TTGlyph>
    <TTGlyph name="Zcaron.smcp" xMin="68" yMin="0" xMax="1025" yMax="1551">
      <component glyphName="Z.smcp" x="0" y="0" flags="0x204"/>
      <component glyphName="caron" x="79" y="27" flags="0x4"/>
    </TTGlyph>
    <TTGlyph name="Zdotaccent" xMin="77" yMin="0" xMax="1142" yMax="1843">
      <component glyphName="Z" x="0" y="0" flags="0x204"/>
      <component glyphName="dotaccent" x="300" y="375" flags="0x4"/>
    </TTGlyph>
    <TTGlyph name="Zdotaccent.smcp" xMin="68" yMin="0" xMax="1025" yMax="1520">
      <component glyphName="Z.smcp" x="0" y="0" flags="0x204"/>
      <component glyphName="dotaccent" x="258" y="52" flags="0x4"/>
    </TTGlyph>
    <TTGlyph name="Zeta" xMin="77" yMin="0" xMax="1142" yMax="1456">
      <component glyphName="Z" x="0" y="0" flags="0x204"/>
    </TTGlyph>
    <TTGlyph name="a" xMin="55" yMin="-21" xMax="1039" yMax="1102">
      <contour>
        <pt x="747" y="0" on="1"/>
        <pt x="731" y="37" on="0"/>
        <pt x="708" y="119" on="0"/>
        <pt x="703" y="162" on="1"/>
        <pt x="658" y="83" on="0"/>
        <pt x="511" y="-21" on="0"/>
        <pt x="409" y="-21" on="1"/>
        <pt x="239" y="-21" on="0"/>
        <pt x="55" y="154" on="0"/>
        <pt x="55" y="305" on="1"/>
        <pt x="55" y="464" on="0"/>
        <pt x="300" y="639" on="0"/>
        <pt x="535" y="639" on="1"/>
        <pt x="698" y="639" on="1"/>
        <pt x="698" y="725" on="1"/>
        <pt x="698" y="803" on="0"/>
        <pt x="616" y="889" on="0"/>
        <pt x="536" y="889" on="1"/>
        <pt x="465" y="889" on="0"/>
        <pt x="388" y="820" on="0"/>
        <pt x="388" y="759" on="1"/>
        <pt x="106" y="760" on="1"/>
        <pt x="105" y="766" on="1"/>
        <pt x="98" y="903" on="0"/>
        <pt x="350" y="1102" on="0"/>
        <pt x="555" y="1102" on="1"/>
        <pt x="749" y="1102" on="0"/>
        <pt x="991" y="905" on="0"/>
        <pt x="991" y="723" on="1"/>
        <pt x="991" y="276" on="1"/>
        <pt x="991" y="200" on="0"/>
        <pt x="1014" y="66" on="0"/>
        <pt x="1039" y="0" on="1"/>
      </contour>
      <contour>
        <pt x="480" y="195" on="1"/>
        <pt x="557" y="195" on="0"/>
        <pt x="677" y="271" on="0"/>
        <pt x="698" y="321" on="1"/>
        <pt x="698" y="474" on="1"/>
        <pt x="535" y="474" on="1"/>
        <pt x="442" y="474" on="0"/>
        <pt x="346" y="381" on="0"/>
        <pt x="346" y="315" on="1"/>
        <pt x="346" y="261" on="0"/>
        <pt x="418" y="195" on="0"/>
      </contour>
    </TTGlyph>
    <TTGlyph name="aacute" xMin="55" yMin="-21" xMax="1039" yMax="1498">
      <component glyphName="a" x="0" y="0" flags="0x204"/>
      <component glyphName="acute" x="288" y="20" flags="0x4"/>
    </TTGlyph>
    <TTGlyph name="abreve" xMin="55" yMin="-21" xMax="1039" yMax="1574">
      <component glyphName="a" x="0" y="0" flags="0x204"/>
      <component glyphName="breve" x="92" y="118" flags="0x4"/>
    </TTGlyph>
    <TTGlyph name="acircumflex" xMin="55" yMin="-21" xMax="1039" yMax="1536">
      <component glyphName="a" x="0" y="0" flags="0x204"/>
      <component glyphName="circumflex" x="41" y="18" flags="0x4"/>
    </TTGlyph>
    <TTGlyph name="acute" xMin="108" yMin="1212" xMax="618" yMax="1478">
      <contour>
        <pt x="307" y="1478" on="1"/>
        <pt x="616" y="1478" on="1"/>
        <pt x="618" y="1472" on="1"/>
        <pt x="341" y="1212" on="1"/>
        <pt x="108" y="1212" on="1"/>
      </contour>
    </TTGlyph>
    <TTGlyph name="acutecomb" xMin="-777" yMin="1202" xMax="-412" yMax="1516">
      <contour>
        <pt x="-642" y="1516" on="1"/>
        <pt x="-412" y="1516" on="1"/>
        <pt x="-603" y="1202" on="1"/>
        <pt x="-777" y="1202" on="1"/>
      </contour>
    </TTGlyph>
    <TTGlyph name="adieresis" xMin="55" yMin="-21" xMax="1039" yMax="1483">
      <component glyphName="a" x="0" y="0" flags="0x204"/>
      <component glyphName="dieresis" x="5" y="27" flags="0x4"/>
    </TTGlyph>
    <TTGlyph name="ae" xMin="46" yMin="-21" xMax="1677" yMax="1102">
      <contour>
        <pt x="1246" y="-21" on="1"/>
        <pt x="1117" y="-21" on="0"/>
        <pt x="916" y="60" on="0"/>
        <pt x="849" y="136" on="1"/>
        <pt x="789" y="68" on="0"/>
        <pt x="586" y="-21" on="0"/>
        <pt x="447" y="-21" on="1"/>
        <pt x="255" y="-21" on="0"/>
        <pt x="46" y="160" on="0"/>
        <pt x="46" y="317" on="1"/>
        <pt x="46" y="476" on="0"/>
        <pt x="300" y="648" on="0"/>
        <pt x="543" y="648" on="1"/>
        <pt x="724" y="648" on="1"/>
        <pt x="724" y="707" on="1"/>
        <pt x="724" y="786" on="0"/>
        <pt x="642" y="877" on="0"/>
        <pt x="568" y="877" on="1"/>
        <pt x="487" y="877" on="0"/>
        <pt x="395" y="802" on="0"/>
        <pt x="395" y="746" on="1"/>
        <pt x="112" y="764" on="1"/>
        <pt x="110" y="770" on="1"/>
        <pt x="104" y="914" on="0"/>
        <pt x="359" y="1102" on="0"/>
        <pt x="571" y="1102" on="1"/>
        <pt x="673" y="1102" on="0"/>
        <pt x="841" y="1047" on="0"/>
        <pt x="900" y="995" on="1"/>
        <pt x="961" y="1047" on="0"/>
        <pt x="1124" y="1102" on="0"/>
        <pt x="1223" y="1102" on="1"/>
        <pt x="1435" y="1102" on="0"/>
        <pt x="1677" y="838" on="0"/>
        <pt x="1677" y="612" on="1"/>
        <pt x="1677" y="454" on="1"/>
        <pt x="1027" y="454" on="1"/>
        <pt x="1025" y="448" on="1"/>
        <pt x="1029" y="336" on="0"/>
        <pt x="1153" y="203" on="0"/>
        <pt x="1277" y="203" on="1"/>
        <pt x="1369" y="203" on="0"/>
        <pt x="1493" y="243" on="0"/>
        <pt x="1571" y="284" on="1"/>
        <pt x="1648" y="100" on="1"/>
        <pt x="1586" y="52" on="0"/>
        <pt x="1372" y="-21" on="0"/>
      </contour>
      <contour>
        <pt x="503" y="185" on="1"/>
        <pt x="561" y="185" on="0"/>
        <pt x="687" y="246" on="0"/>
        <pt x="724" y="288" on="1"/>
        <pt x="724" y="464" on="1"/>
        <pt x="545" y="464" on="1"/>
        <pt x="447" y="464" on="0"/>
        <pt x="338" y="376" on="0"/>
        <pt x="338" y="313" on="1"/>
        <pt x="338" y="254" on="0"/>
        <pt x="421" y="185" on="0"/>
      </contour>
      <contour>
        <pt x="1223" y="877" on="1"/>
        <pt x="1128" y="877" on="0"/>
        <pt x="1034" y="754" on="0"/>
        <pt x="1027" y="649" on="1"/>
        <pt x="1029" y="644" on="1"/>
        <pt x="1391" y="644" on="1"/>
        <pt x="1391" y="672" on="1"/>
        <pt x="1391" y="766" on="0"/>
        <pt x="1306" y="877" on="0"/>
      </contour>
    </TTGlyph>
    <TTGlyph name="aeacute" xMin="46" yMin="-21" xMax="1677" yMax="1505">
      <component glyphName="ae" x="0" y="0" flags="0x204"/>
      <component glyphName="acute" x="606" y="27" flags="0x4"/>
    </TTGlyph>
    <TTGlyph name="agrave" xMin="55" yMin="-21" xMax="1039" yMax="1498">
      <component glyphName="a" x="0" y="0" flags="0x204"/>
      <component glyphName="grave" x="107" y="20" flags="0x4"/>
    </TTGlyph>
    <TTGlyph name="alpha" xMin="73" yMin="-21" xMax="1166" yMax="1102">
      <contour>
        <pt x="1029" y="1081" on="1"/>
        <pt x="1029" y="325" on="1"/>
        <pt x="1029" y="261" on="0"/>
        <pt x="1064" y="210" on="0"/>
        <pt x="1100" y="210" on="1"/>
        <pt x="1113" y="210" on="0"/>
        <pt x="1131" y="213" on="0"/>
        <pt x="1141" y="217" on="1"/>
        <pt x="1166" y="7" on="1"/>
        <pt x="1131" y="-9" on="0"/>
        <pt x="1067" y="-21" on="0"/>
        <pt x="1025" y="-21" on="1"/>
        <pt x="932" y="-21" on="0"/>
        <pt x="803" y="55" on="0"/>
        <pt x="770" y="133" on="1"/>
        <pt x="721" y="58" on="0"/>
        <pt x="585" y="-21" on="0"/>
        <pt x="494" y="-21" on="1"/>
        <pt x="294" y="-21" on="0"/>
        <pt x="73" y="271" on="0"/>
        <pt x="73" y="511" on="1"/>
        <pt x="73" y="532" on="1"/>
        <pt x="73" y="788" on="0"/>
        <pt x="295" y="1102" on="0"/>
        <pt x="496" y="1102" on="1"/>
        <pt x="583" y="1102" on="0"/>
        <pt x="716" y="1022" on="0"/>
        <pt x="765" y="948" on="1"/>
        <pt x="811" y="1081" on="1"/>
      </contour>
      <contour>
        <pt x="365" y="511" on="1"/>
        <pt x="365" y="368" on="0"/>
        <pt x="460" y="203" on="0"/>
        <pt x="568" y="203" on="1"/>
        <pt x="627" y="203" on="0"/>
        <pt x="711" y="248" on="0"/>
        <pt x="738" y="292" on="1"/>
        <pt x="737" y="299" on="0"/>
        <pt x="737" y="314" on="0"/>
        <pt x="737" y="325" on="1"/>
        <pt x="737" y="783" on="1"/>
        <pt x="709" y="828" on="0"/>
        <pt x="627" y="877" on="0"/>
        <pt x="570" y="877" on="1"/>
        <pt x="463" y="877" on="0"/>
        <pt x="365" y="686" on="0"/>
        <pt x="365" y="532" on="1"/>
      </contour>
    </TTGlyph>
    <TTGlyph name="alphatonos" xMin="73" yMin="-21" xMax="1166" yMax="1578">
      <component glyphName="alpha" x="0" y="0" flags="0x204"/>
      <component glyphName="tonos" x="268" y="-46" flags="0x4"/>
    </TTGlyph>
    <TTGlyph name="amacron" xMin="55" yMin="-21" xMax="1039" yMax="1457">
      <component glyphName="a" x="0" y="0" flags="0x204"/>
      <component glyphName="macron" x="32" y="0" flags="0x4"/>
    </TTGlyph>
    <TTGlyph name="ampersand" xMin="61" yMin="-21" xMax="1308" yMax="1477">
      <contour>
        <pt x="61" y="392" on="1"/>
        <pt x="61" y="510" on="0"/>
        <pt x="191" y="681" on="0"/>
        <pt x="324" y="774" on="1"/>
        <pt x="256" y="866" on="0"/>
        <pt x="189" y="1018" on="0"/>
        <pt x="189" y="1097" on="1"/>
        <pt x="189" y="1270" on="0"/>
        <pt x="405" y="1477" on="0"/>
        <pt x="586" y="1477" on="1"/>
        <pt x="745" y="1477" on="0"/>
        <pt x="944" y="1280" on="0"/>
        <pt x="944" y="1140" on="1"/>
        <pt x="944" y="1042" on="0"/>
        <pt x="846" y="880" on="0"/>
        <pt x="761" y="819" on="1"/>
        <pt x="668" y="753" on="1"/>
        <pt x="944" y="431" on="1"/>
        <pt x="980" y="491" on="0"/>
        <pt x="1020" y="631" on="0"/>
        <pt x="1020" y="709" on="1"/>
        <pt x="1238" y="709" on="1"/>
        <pt x="1238" y="571" on="0"/>
        <pt x="1170" y="339" on="0"/>
        <pt x="1100" y="249" on="1"/>
        <pt x="1308" y="5" on="1"/>
        <pt x="1306" y="0" on="1"/>
        <pt x="982" y="0" on="1"/>
        <pt x="905" y="89" on="1"/>
        <pt x="820" y="34" on="0"/>
        <pt x="640" y="-21" on="0"/>
        <pt x="537" y="-21" on="1"/>
        <pt x="319" y="-21" on="0"/>
        <pt x="61" y="208" on="0"/>
      </contour>
      <contour>
        <pt x="552" y="203" on="1"/>
        <pt x="605" y="203" on="0"/>
        <pt x="711" y="230" on="0"/>
        <pt x="760" y="257" on="1"/>
        <pt x="460" y="605" on="1"/>
        <pt x="441" y="592" on="1"/>
        <pt x="390" y="544" on="0"/>
        <pt x="353" y="453" on="0"/>
        <pt x="353" y="407" on="1"/>
        <pt x="353" y="318" on="0"/>
        <pt x="463" y="203" on="0"/>
      </contour>
      <contour>
        <pt x="450" y="1100" on="1"/>
        <pt x="450" y="1057" on="0"/>
        <pt x="493" y="966" on="0"/>
        <pt x="536" y="911" on="1"/>
        <pt x="622" y="967" on="1"/>
        <pt x="678" y="1003" on="0"/>
        <pt x="717" y="1079" on="0"/>
        <pt x="717" y="1124" on="1"/>
        <pt x="717" y="1174" on="0"/>
        <pt x="644" y="1252" on="0"/>
        <pt x="585" y="1252" on="1"/>
        <pt x="520" y="1252" on="0"/>
        <pt x="450" y="1165" on="0"/>
      </contour>
    </TTGlyph>
    <TTGlyph name="anoteleia" xMin="159" yMin="568" xMax="451" yMax="828">
      <component glyphName="periodcentered" x="0" y="0" flags="0x204"/>
    </TTGlyph>
    <TTGlyph name="aogonek" xMin="55" yMin="-424" xMax="1065" yMax="1102">
      <component glyphName="a" x="0" y="0" flags="0x204"/>
      <component glyphName="ogonek" x="549" y="0" flags="0x4"/>
    </TTGlyph>
    <TTGlyph name="approxequal" xMin="101" yMin="234" xMax="1075" yMax="1027">
      <contour>
        <pt x="111" y="877" on="1"/>
        <pt x="158" y="945" on="0"/>
        <pt x="282" y="1023" on="0"/>
        <pt x="347" y="1023" on="1"/>
        <pt x="417" y="1024" on="0"/>
        <pt x="510" y="992" on="0"/>
        <pt x="596" y="950" on="1"/>
        <pt x="670" y="912" on="0"/>
        <pt x="762" y="881" on="0"/>
        <pt x="829" y="881" on="1"/>
        <pt x="893" y="881" on="0"/>
        <pt x="1017" y="958" on="0"/>
        <pt x="1065" y="1027" on="1"/>
        <pt x="1075" y="814" on="1"/>
        <pt x="1027" y="745" on="0"/>
        <pt x="903" y="668" on="0"/>
        <pt x="839" y="668" on="1"/>
        <pt x="772" y="668" on="0"/>
        <pt x="680" y="699" on="0"/>
        <pt x="606" y="737" on="1"/>
        <pt x="520" y="779" on="0"/>
        <pt x="427" y="811" on="0"/>
        <pt x="357" y="810" on="1"/>
        <pt x="292" y="810" on="0"/>
        <pt x="168" y="732" on="0"/>
        <pt x="121" y="664" on="1"/>
      </contour>
      <contour>
        <pt x="101" y="447" on="1"/>
        <pt x="148" y="515" on="0"/>
        <pt x="272" y="593" on="0"/>
        <pt x="337" y="593" on="1"/>
        <pt x="407" y="594" on="0"/>
        <pt x="500" y="562" on="0"/>
        <pt x="586" y="520" on="1"/>
        <pt x="660" y="482" on="0"/>
        <pt x="752" y="451" on="0"/>
        <pt x="819" y="451" on="1"/>
        <pt x="883" y="451" on="0"/>
        <pt x="1007" y="528" on="0"/>
        <pt x="1055" y="597" on="1"/>
        <pt x="1065" y="384" on="1"/>
        <pt x="1017" y="315" on="0"/>
        <pt x="893" y="238" on="0"/>
        <pt x="829" y="238" on="1"/>
        <pt x="762" y="238" on="0"/>
        <pt x="670" y="269" on="0"/>
        <pt x="596" y="307" on="1"/>
        <pt x="510" y="349" on="0"/>
        <pt x="417" y="381" on="0"/>
        <pt x="347" y="380" on="1"/>
        <pt x="282" y="380" on="0"/>
        <pt x="158" y="302" on="0"/>
        <pt x="111" y="234" on="1"/>
      </contour>
    </TTGlyph>
    <TTGlyph name="aring" xMin="55" yMin="-21" xMax="1039" yMax="1613">
      <component glyphName="a" x="0" y="0" flags="0x204"/>
      <component glyphName="ring" x="203" y="119" flags="0x4"/>
    </TTGlyph>
    <TTGlyph name="aringacute" xMin="55" yMin="-21" xMax="1039" yMax="1818">
      <component glyphName="a" x="0" y="0" flags="0x204"/>
      <component glyphName="ringacute" x="198" y="84" flags="0x4"/>
    </TTGlyph>
    <TTGlyph name="asciicircum" xMin="44" yMin="729" xMax="854" yMax="1456">
      <contour>
        <pt x="275" y="729" on="1"/>
        <pt x="44" y="729" on="1"/>
        <pt x="343" y="1456" on="1"/>
        <pt x="555" y="1456" on="1"/>
        <pt x="854" y="729" on="1"/>
        <pt x="623" y="729" on="1"/>
        <pt x="458" y="1142" on="1"/>
        <pt x="450" y="1176" on="1"/>
        <pt x="444" y="1176" on="1"/>
        <pt x="437" y="1142" on="1"/>
      </contour>
    </TTGlyph>
    <TTGlyph name="asciitilde" xMin="105" yMin="378" xMax="1220" yMax="825">
      <contour>
        <pt x="1220" y="758" on="1"/>
        <pt x="1220" y="597" on="0"/>
        <pt x="1043" y="378" on="0"/>
        <pt x="908" y="378" on="1"/>
        <pt x="823" y="378" on="0"/>
        <pt x="679" y="441" on="0"/>
        <pt x="601" y="511" on="1"/>
        <pt x="549" y="555" on="0"/>
        <pt x="474" y="595" on="0"/>
        <pt x="430" y="595" on="1"/>
        <pt x="378" y="595" on="0"/>
        <pt x="307" y="493" on="0"/>
        <pt x="307" y="422" on="1"/>
        <pt x="105" y="448" on="1"/>
        <pt x="105" y="610" on="0"/>
        <pt x="278" y="825" on="0"/>
        <pt x="415" y="825" on="1"/>
        <pt x="498" y="825" on="0"/>
        <pt x="649" y="758" on="0"/>
        <pt x="725" y="692" on="1"/>
        <pt x="774" y="647" on="0"/>
        <pt x="849" y="608" on="0"/>
        <pt x="893" y="608" on="1"/>
        <pt x="943" y="608" on="0"/>
        <pt x="1017" y="712" on="0"/>
        <pt x="1017" y="785" on="1"/>
      </contour>
    </TTGlyph>
    <TTGlyph name="asterisk" xMin="27" yMin="579" xMax="878" yMax="1456">
      <contour>
        <pt x="329" y="966" on="1"/>
        <pt x="27" y="1055" on="1"/>
        <pt x="84" y="1232" on="1"/>
        <pt x="381" y="1109" on="1"/>
        <pt x="363" y="1456" on="1"/>
        <pt x="550" y="1456" on="1"/>
        <pt x="531" y="1103" on="1"/>
        <pt x="822" y="1223" on="1"/>
        <pt x="878" y="1043" on="1"/>
        <pt x="572" y="954" on="1"/>
        <pt x="772" y="689" on="1"/>
        <pt x="620" y="579" on="1"/>
        <pt x="446" y="869" on="1"/>
        <pt x="273" y="588" on="1"/>
        <pt x="120" y="694" on="1"/>
      </contour>
    </TTGlyph>
    <TTGlyph name="at" xMin="49" yMin="-453" xMax="1746" yMax="1418">
      <contour>
        <pt x="1730" y="513" on="1"/>
        <pt x="1721" y="295" on="0"/>
        <pt x="1483" y="-21" on="0"/>
        <pt x="1246" y="-21" on="1"/>
        <pt x="1168" y="-21" on="0"/>
        <pt x="1054" y="67" on="0"/>
        <pt x="1030" y="146" on="1"/>
        <pt x="986" y="64" on="0"/>
        <pt x="855" y="-18" on="0"/>
        <pt x="767" y="-18" on="1"/>
        <pt x="626" y="-18" on="0"/>
        <pt x="475" y="220" on="0"/>
        <pt x="495" y="416" on="1"/>
        <pt x="520" y="670" on="0"/>
        <pt x="757" y="976" on="0"/>
        <pt x="926" y="976" on="1"/>
        <pt x="1042" y="976" on="0"/>
        <pt x="1183" y="924" on="0"/>
        <pt x="1267" y="870" on="1"/>
        <pt x="1264" y="866" on="1"/>
        <pt x="1269" y="866" on="1"/>
        <pt x="1218" y="293" on="1"/>
        <pt x="1211" y="198" on="0"/>
        <pt x="1253" y="128" on="0"/>
        <pt x="1289" y="128" on="1"/>
        <pt x="1404" y="128" on="0"/>
        <pt x="1543" y="346" on="0"/>
        <pt x="1551" y="513" on="1"/>
        <pt x="1567" y="866" on="0"/>
        <pt x="1262" y="1262" on="0"/>
        <pt x="943" y="1262" on="1"/>
        <pt x="640" y="1262" on="0"/>
        <pt x="278" y="836" on="0"/>
        <pt x="263" y="478" on="1"/>
        <pt x="246" y="123" on="0"/>
        <pt x="572" y="-287" on="0"/>
        <pt x="878" y="-287" on="1"/>
        <pt x="963" y="-287" on="0"/>
        <pt x="1144" y="-247" on="0"/>
        <pt x="1209" y="-217" on="1"/>
        <pt x="1247" y="-364" on="1"/>
        <pt x="1180" y="-406" on="0"/>
        <pt x="973" y="-453" on="0"/>
        <pt x="874" y="-453" on="1"/>
        <pt x="478" y="-453" on="0"/>
        <pt x="49" y="45" on="0"/>
        <pt x="66" y="478" on="1"/>
        <pt x="84" y="905" on="0"/>
        <pt x="559" y="1418" on="0"/>
        <pt x="947" y="1418" on="1"/>
        <pt x="1334" y="1418" on="0"/>
        <pt x="1746" y="933" on="0"/>
      </contour>
      <contour>
        <pt x="720" y="416" on="1"/>
        <pt x="710" y="289" on="0"/>
        <pt x="767" y="158" on="0"/>
        <pt x="831" y="158" on="1"/>
        <pt x="887" y="158" on="0"/>
        <pt x="978" y="210" on="0"/>
        <pt x="1014" y="280" on="1"/>
        <pt x="1014" y="284" on="0"/>
        <pt x="1014" y="289" on="0"/>
        <pt x="1015" y="293" on="1"/>
        <pt x="1059" y="789" on="1"/>
        <pt x="1036" y="796" on="0"/>
        <pt x="990" y="804" on="0"/>
        <pt x="965" y="804" on="1"/>
        <pt x="854" y="804" on="0"/>
        <pt x="738" y="611" on="0"/>
      </contour>
    </TTGlyph>
    <TTGlyph name="atilde" xMin="55" yMin="-21" xMax="1039" yMax="1579">
      <component glyphName="a" x="0" y="0" flags="0x204"/>
      <component glyphName="tilde" x="50" y="50" flags="0x4"/>
    </TTGlyph>
    <TTGlyph name="b" xMin="112" yMin="-21" xMax="1088" yMax="1560">
      <contour>
        <pt x="1088" y="511" on="1"/>
        <pt x="1088" y="269" on="0"/>
        <pt x="872" y="-21" on="0"/>
        <pt x="668" y="-21" on="1"/>
        <pt x="574" y="-21" on="0"/>
        <pt x="433" y="58" on="0"/>
        <pt x="384" y="134" on="1"/>
        <pt x="362" y="0" on="1"/>
        <pt x="112" y="0" on="1"/>
        <pt x="112" y="1560" on="1"/>
        <pt x="403" y="1560" on="1"/>
        <pt x="403" y="967" on="1"/>
        <pt x="450" y="1032" on="0"/>
        <pt x="581" y="1102" on="0"/>
        <pt x="666" y="1102" on="1"/>
        <pt x="872" y="1102" on="0"/>
        <pt x="1088" y="791" on="0"/>
        <pt x="1088" y="532" on="1"/>
      </contour>
      <contour>
        <pt x="797" y="532" on="1"/>
        <pt x="797" y="690" on="0"/>
        <pt x="704" y="875" on="0"/>
        <pt x="592" y="875" on="1"/>
        <pt x="524" y="875" on="0"/>
        <pt x="430" y="818" on="0"/>
        <pt x="403" y="765" on="1"/>
        <pt x="403" y="307" on="1"/>
        <pt x="430" y="258" on="0"/>
        <pt x="525" y="206" on="0"/>
        <pt x="594" y="206" on="1"/>
        <pt x="707" y="206" on="0"/>
        <pt x="797" y="365" on="0"/>
        <pt x="797" y="511" on="1"/>
      </contour>
    </TTGlyph>
    <TTGlyph name="backslash" xMin="2" yMin="-125" xMax="899" yMax="1456">
      <contour>
        <pt x="2" y="1456" on="1"/>
        <pt x="291" y="1456" on="1"/>
        <pt x="899" y="-125" on="1"/>
        <pt x="610" y="-125" on="1"/>
      </contour>
    </TTGlyph>
    <TTGlyph name="bar" xMin="173" yMin="-270" xMax="349" yMax="1456">
      <contour>
        <pt x="349" y="-270" on="1"/>
        <pt x="173" y="-270" on="1"/>
        <pt x="173" y="1456" on="1"/>
        <pt x="349" y="1456" on="1"/>
      </contour>
    </TTGlyph>
    <TTGlyph name="beta" xMin="142" yMin="-403" xMax="1160" yMax="1477">
      <contour>
        <pt x="627" y="1477" on="1"/>
        <pt x="842" y="1477" on="0"/>
        <pt x="1097" y="1267" on="0"/>
        <pt x="1097" y="1082" on="1"/>
        <pt x="1097" y="984" on="0"/>
        <pt x="995" y="821" on="0"/>
        <pt x="906" y="773" on="1"/>
        <pt x="1027" y="730" on="0"/>
        <pt x="1160" y="544" on="0"/>
        <pt x="1160" y="415" on="1"/>
        <pt x="1160" y="208" on="0"/>
        <pt x="921" y="-21" on="0"/>
        <pt x="714" y="-21" on="1"/>
        <pt x="640" y="-21" on="0"/>
        <pt x="494" y="17" on="0"/>
        <pt x="433" y="55" on="1"/>
        <pt x="433" y="-403" on="1"/>
        <pt x="142" y="-403" on="1"/>
        <pt x="142" y="1037" on="1"/>
        <pt x="142" y="1230" on="0"/>
        <pt x="423" y="1477" on="0"/>
      </contour>
      <contour>
        <pt x="623" y="859" on="1"/>
        <pt x="717" y="859" on="0"/>
        <pt x="805" y="964" on="0"/>
        <pt x="805" y="1063" on="1"/>
        <pt x="805" y="1142" on="0"/>
        <pt x="712" y="1252" on="0"/>
        <pt x="627" y="1252" on="1"/>
        <pt x="541" y="1252" on="0"/>
        <pt x="433" y="1134" on="0"/>
        <pt x="433" y="1037" on="1"/>
        <pt x="433" y="264" on="1"/>
        <pt x="472" y="234" on="0"/>
        <pt x="581" y="203" on="0"/>
        <pt x="648" y="203" on="1"/>
        <pt x="749" y="203" on="0"/>
        <pt x="868" y="324" on="0"/>
        <pt x="868" y="418" on="1"/>
        <pt x="868" y="526" on="0"/>
        <pt x="756" y="653" on="0"/>
        <pt x="654" y="653" on="1"/>
        <pt x="558" y="653" on="1"/>
        <pt x="558" y="859" on="1"/>
      </contour>
    </TTGlyph>
    <TTGlyph name="braceleft" xMin="48" yMin="-360" xMax="641" yMax="1597">
      <contour>
        <pt x="585" y="-360" on="1"/>
        <pt x="390" y="-305" on="0"/>
        <pt x="225" y="-65" on="0"/>
        <pt x="225" y="106" on="1"/>
        <pt x="225" y="309" on="1"/>
        <pt x="225" y="408" on="0"/>
        <pt x="138" y="518" on="0"/>
        <pt x="48" y="518" on="1"/>
        <pt x="48" y="719" on="1"/>
        <pt x="138" y="719" on="0"/>
        <pt x="225" y="828" on="0"/>
        <pt x="225" y="929" on="1"/>
        <pt x="225" y="1132" on="1"/>
        <pt x="225" y="1303" on="0"/>
        <pt x="390" y="1542" on="0"/>
        <pt x="585" y="1597" on="1"/>
        <pt x="641" y="1440" on="1"/>
        <pt x="556" y="1409" on="0"/>
        <pt x="486" y="1250" on="0"/>
        <pt x="486" y="1132" on="1"/>
        <pt x="486" y="929" on="1"/>
        <pt x="486" y="825" on="0"/>
        <pt x="397" y="664" on="0"/>
        <pt x="307" y="619" on="1"/>
        <pt x="397" y="572" on="0"/>
        <pt x="486" y="411" on="0"/>
        <pt x="486" y="309" on="1"/>
        <pt x="486" y="106" on="1"/>
        <pt x="486" y="-12" on="0"/>
        <pt x="556" y="-171" on="0"/>
        <pt x="641" y="-202" on="1"/>
      </contour>
    </TTGlyph>
    <TTGlyph name="braceright" xMin="34" yMin="-360" xMax="628" yMax="1597">
      <contour>
        <pt x="34" y="-202" on="1"/>
        <pt x="119" y="-171" on="0"/>
        <pt x="189" y="-12" on="0"/>
        <pt x="189" y="106" on="1"/>
        <pt x="189" y="309" on="1"/>
        <pt x="189" y="413" on="0"/>
        <pt x="281" y="573" on="0"/>
        <pt x="375" y="618" on="1"/>
        <pt x="281" y="663" on="0"/>
        <pt x="189" y="824" on="0"/>
        <pt x="189" y="929" on="1"/>
        <pt x="189" y="1132" on="1"/>
        <pt x="189" y="1250" on="0"/>
        <pt x="119" y="1409" on="0"/>
        <pt x="34" y="1440" on="1"/>
        <pt x="90" y="1597" on="1"/>
        <pt x="284" y="1542" on="0"/>
        <pt x="450" y="1303" on="0"/>
        <pt x="450" y="1132" on="1"/>
        <pt x="450" y="929" on="1"/>
        <pt x="450" y="828" on="0"/>
        <pt x="536" y="719" on="0"/>
        <pt x="628" y="719" on="1"/>
        <pt x="628" y="518" on="1"/>
        <pt x="536" y="518" on="0"/>
        <pt x="450" y="408" on="0"/>
        <pt x="450" y="309" on="1"/>
        <pt x="450" y="106" on="1"/>
        <pt x="450" y="-65" on="0"/>
        <pt x="284" y="-305" on="0"/>
        <pt x="90" y="-360" on="1"/>
      </contour>
    </TTGlyph>
    <TTGlyph name="bracketleft" xMin="119" yMin="-336" xMax="553" yMax="1691">
      <contour>
        <pt x="553" y="1475" on="1"/>
        <pt x="412" y="1475" on="1"/>
        <pt x="412" y="-120" on="1"/>
        <pt x="553" y="-120" on="1"/>
        <pt x="553" y="-336" on="1"/>
        <pt x="119" y="-336" on="1"/>
        <pt x="119" y="1691" on="1"/>
        <pt x="553" y="1691" on="1"/>
      </contour>
    </TTGlyph>
    <TTGlyph name="bracketright" xMin="13" yMin="-336" xMax="447" yMax="1691">
      <contour>
        <pt x="13" y="1691" on="1"/>
        <pt x="447" y="1691" on="1"/>
        <pt x="447" y="-336" on="1"/>
        <pt x="13" y="-336" on="1"/>
        <pt x="13" y="-120" on="1"/>
        <pt x="155" y="-120" on="1"/>
        <pt x="155" y="1475" on="1"/>
        <pt x="13" y="1475" on="1"/>
      </contour>
    </TTGlyph>
    <TTGlyph name="breve" xMin="106" yMin="1162" xMax="798" yMax="1456">
      <contour>
        <pt x="791" y="1456" on="1"/>
        <pt x="793" y="1450" on="1"/>
        <pt x="798" y="1323" on="0"/>
        <pt x="611" y="1162" on="0"/>
        <pt x="453" y="1162" on="1"/>
        <pt x="294" y="1162" on="0"/>
        <pt x="106" y="1323" on="0"/>
        <pt x="112" y="1450" on="1"/>
        <pt x="114" y="1456" on="1"/>
        <pt x="327" y="1456" on="1"/>
        <pt x="327" y="1403" on="0"/>
        <pt x="388" y="1335" on="0"/>
        <pt x="453" y="1335" on="1"/>
        <pt x="516" y="1335" on="0"/>
        <pt x="577" y="1403" on="0"/>
        <pt x="577" y="1456" on="1"/>
      </contour>
    </TTGlyph>
    <TTGlyph name="breveacutecomb" xMin="106" yMin="1212" xMax="799" yMax="1682">
      <contour>
        <pt x="791" y="1456" on="1"/>
        <pt x="793" y="1450" on="1"/>
        <pt x="799" y="1345" on="0"/>
        <pt x="611" y="1212" on="0"/>
        <pt x="453" y="1212" on="1"/>
        <pt x="294" y="1212" on="0"/>
        <pt x="106" y="1345" on="0"/>
        <pt x="113" y="1450" on="1"/>
        <pt x="115" y="1456" on="1"/>
        <pt x="327" y="1456" on="1"/>
        <pt x="327" y="1413" on="0"/>
        <pt x="388" y="1357" on="0"/>
        <pt x="453" y="1357" on="1"/>
        <pt x="516" y="1357" on="0"/>
        <pt x="578" y="1413" on="0"/>
        <pt x="578" y="1456" on="1"/>
      </contour>
      <contour>
        <pt x="496" y="1682" on="1"/>
        <pt x="701" y="1682" on="1"/>
        <pt x="703" y="1677" on="1"/>
        <pt x="533" y="1493" on="1"/>
        <pt x="373" y="1493" on="1"/>
      </contour>
    </TTGlyph>
    <TTGlyph name="brevegravecomb" xMin="106" yMin="1212" xMax="799" yMax="1682">
      <contour>
        <pt x="553" y="1493" on="1"/>
        <pt x="371" y="1493" on="1"/>
        <pt x="197" y="1676" on="1"/>
        <pt x="200" y="1682" on="1"/>
        <pt x="415" y="1682" on="1"/>
      </contour>
      <contour>
        <pt x="791" y="1456" on="1"/>
        <pt x="793" y="1450" on="1"/>
        <pt x="799" y="1345" on="0"/>
        <pt x="611" y="1212" on="0"/>
        <pt x="453" y="1212" on="1"/>
        <pt x="294" y="1212" on="0"/>
        <pt x="106" y="1345" on="0"/>
        <pt x="113" y="1450" on="1"/>
        <pt x="115" y="1456" on="1"/>
        <pt x="327" y="1456" on="1"/>
        <pt x="327" y="1413" on="0"/>
        <pt x="388" y="1357" on="0"/>
        <pt x="453" y="1357" on="1"/>
        <pt x="516" y="1357" on="0"/>
        <pt x="578" y="1413" on="0"/>
        <pt x="578" y="1456" on="1"/>
      </contour>
    </TTGlyph>
    <TTGlyph name="brevehookcomb" xMin="107" yMin="1224" xMax="802" yMax="1822">
      <contour>
        <pt x="795" y="1456" on="1"/>
        <pt x="796" y="1450" on="1"/>
        <pt x="802" y="1350" on="0"/>
        <pt x="615" y="1224" on="0"/>
        <pt x="456" y="1224" on="1"/>
        <pt x="295" y="1224" on="0"/>
        <pt x="107" y="1350" on="0"/>
        <pt x="114" y="1450" on="1"/>
        <pt x="115" y="1456" on="1"/>
        <pt x="329" y="1456" on="1"/>
        <pt x="329" y="1414" on="0"/>
        <pt x="390" y="1361" on="0"/>
        <pt x="456" y="1361" on="1"/>
        <pt x="519" y="1361" on="0"/>
        <pt x="581" y="1414" on="0"/>
        <pt x="581" y="1456" on="1"/>
      </contour>
      <contour>
        <pt x="348" y="1506" on="1"/>
        <pt x="332" y="1615" on="1"/>
        <pt x="403" y="1617" on="0"/>
        <pt x="464" y="1639" on="0"/>
        <pt x="459" y="1662" on="1"/>
        <pt x="459" y="1668" on="1"/>
        <pt x="464" y="1694" on="0"/>
        <pt x="393" y="1718" on="0"/>
        <pt x="327" y="1718" on="1"/>
        <pt x="334" y="1822" on="1"/>
        <pt x="515" y="1822" on="0"/>
        <pt x="707" y="1742" on="0"/>
        <pt x="707" y="1671" on="1"/>
        <pt x="707" y="1621" on="0"/>
        <pt x="623" y="1566" on="0"/>
        <pt x="560" y="1559" on="1"/>
        <pt x="560" y="1506" on="1"/>
      </contour>
    </TTGlyph>
    <TTGlyph name="brevetildecomb" xMin="106" yMin="1222" xMax="795" yMax="1762">
      <contour>
        <pt x="788" y="1456" on="1"/>
        <pt x="789" y="1450" on="1"/>
        <pt x="795" y="1350" on="0"/>
        <pt x="609" y="1222" on="0"/>
        <pt x="451" y="1222" on="1"/>
        <pt x="293" y="1222" on="0"/>
        <pt x="106" y="1350" on="0"/>
        <pt x="113" y="1450" on="1"/>
        <pt x="115" y="1456" on="1"/>
        <pt x="327" y="1456" on="1"/>
        <pt x="327" y="1413" on="0"/>
        <pt x="387" y="1360" on="0"/>
        <pt x="451" y="1360" on="1"/>
        <pt x="514" y="1360" on="0"/>
        <pt x="575" y="1413" on="0"/>
        <pt x="575" y="1456" on="1"/>
      </contour>
      <contour>
        <pt x="743" y="1728" on="1"/>
        <pt x="743" y="1654" on="0"/>
        <pt x="648" y="1547" on="0"/>
        <pt x="579" y="1547" on="1"/>
        <pt x="523" y="1547" on="0"/>
        <pt x="384" y="1615" on="0"/>
        <pt x="345" y="1615" on="1"/>
        <pt x="316" y="1615" on="0"/>
        <pt x="278" y="1565" on="0"/>
        <pt x="278" y="1529" on="1"/>
        <pt x="157" y="1562" on="1"/>
        <pt x="157" y="1635" on="0"/>
        <pt x="250" y="1744" on="0"/>
        <pt x="321" y="1744" on="1"/>
        <pt x="364" y="1744" on="0"/>
        <pt x="513" y="1677" on="0"/>
        <pt x="555" y="1677" on="1"/>
        <pt x="582" y="1677" on="0"/>
        <pt x="621" y="1726" on="0"/>
        <pt x="621" y="1762" on="1"/>
      </contour>
    </TTGlyph>
    <TTGlyph name="brokenbar" xMin="127" yMin="-270" xMax="389" yMax="1456">
      <contour>
        <pt x="127" y="-270" on="1"/>
        <pt x="127" y="525" on="1"/>
        <pt x="389" y="525" on="1"/>
        <pt x="389" y="-270" on="1"/>
      </contour>
      <contour>
        <pt x="389" y="698" on="1"/>
        <pt x="127" y="698" on="1"/>
        <pt x="127" y="1456" on="1"/>
        <pt x="389" y="1456" on="1"/>
      </contour>
    </TTGlyph>
    <TTGlyph name="bullet" xMin="135" yMin="491" xMax="612" yMax="1034">
      <contour>
        <pt x="135" y="806" on="1"/>
        <pt x="135" y="906" on="0"/>
        <pt x="265" y="1034" on="0"/>
        <pt x="372" y="1034" on="1"/>
        <pt x="482" y="1034" on="0"/>
        <pt x="612" y="907" on="0"/>
        <pt x="612" y="806" on="1"/>
        <pt x="612" y="716" on="1"/>
        <pt x="612" y="615" on="0"/>
        <pt x="483" y="491" on="0"/>
        <pt x="374" y="491" on="1"/>
        <pt x="265" y="491" on="0"/>
        <pt x="135" y="616" on="0"/>
        <pt x="135" y="716" on="1"/>
      </contour>
    </TTGlyph>
    <TTGlyph name="c" xMin="62" yMin="-21" xMax="1010" yMax="1102">
      <contour>
        <pt x="566" y="203" on="1"/>
        <pt x="644" y="203" on="0"/>
        <pt x="738" y="294" on="0"/>
        <pt x="738" y="370" on="1"/>
        <pt x="1003" y="370" on="1"/>
        <pt x="1006" y="364" on="1"/>
        <pt x="1010" y="200" on="0"/>
        <pt x="755" y="-21" on="0"/>
        <pt x="566" y="-21" on="1"/>
        <pt x="324" y="-21" on="0"/>
        <pt x="62" y="285" on="0"/>
        <pt x="62" y="525" on="1"/>
        <pt x="62" y="555" on="1"/>
        <pt x="62" y="794" on="0"/>
        <pt x="323" y="1102" on="0"/>
        <pt x="565" y="1102" on="1"/>
        <pt x="765" y="1102" on="0"/>
        <pt x="1010" y="874" on="0"/>
        <pt x="1006" y="688" on="1"/>
        <pt x="1004" y="682" on="1"/>
        <pt x="738" y="682" on="1"/>
        <pt x="738" y="766" on="0"/>
        <pt x="646" y="877" on="0"/>
        <pt x="565" y="877" on="1"/>
        <pt x="449" y="877" on="0"/>
        <pt x="354" y="697" on="0"/>
        <pt x="354" y="555" on="1"/>
        <pt x="354" y="525" on="1"/>
        <pt x="354" y="380" on="0"/>
        <pt x="449" y="203" on="0"/>
      </contour>
    </TTGlyph>
    <TTGlyph name="cacute" xMin="62" yMin="-21" xMax="1010" yMax="1504">
      <component glyphName="c" x="0" y="0" flags="0x204"/>
      <component glyphName="acute" x="275" y="26" flags="0x4"/>
    </TTGlyph>
    <TTGlyph name="caron" xMin="99" yMin="1252" xMax="860" yMax="1524">
      <contour>
        <pt x="479" y="1397" on="1"/>
        <pt x="596" y="1524" on="1"/>
        <pt x="860" y="1524" on="1"/>
        <pt x="860" y="1507" on="1"/>
        <pt x="579" y="1252" on="1"/>
        <pt x="380" y="1252" on="1"/>
        <pt x="99" y="1508" on="1"/>
        <pt x="99" y="1524" on="1"/>
        <pt x="363" y="1524" on="1"/>
      </contour>
    </TTGlyph>
    <TTGlyph name="ccaron" xMin="62" yMin="-21" xMax="1010" yMax="1551">
      <component glyphName="c" x="0" y="0" flags="0x204"/>
      <component glyphName="caron" x="51" y="27" flags="0x4"/>
    </TTGlyph>
    <TTGlyph name="ccedilla" xMin="62" yMin="-460" xMax="1010" yMax="1102">
      <component glyphName="c" x="0" y="0" flags="0x204"/>
      <component glyphName="cedilla" x="318" y="-1" flags="0x4"/>
    </TTGlyph>
    <TTGlyph name="ccircumflex" xMin="62" yMin="-21" xMax="1010" yMax="1536">
      <component glyphName="c" x="0" y="0" flags="0x204"/>
      <component glyphName="circumflex" x="28" y="18" flags="0x4"/>
    </TTGlyph>
    <TTGlyph name="cedilla" xMin="97" yMin="-459" xMax="486" yMax="6">
      <contour>
        <pt x="347" y="6" on="1"/>
        <pt x="336" y="-51" on="1"/>
        <pt x="400" y="-62" on="0"/>
        <pt x="486" y="-144" on="0"/>
        <pt x="486" y="-224" on="1"/>
        <pt x="486" y="-331" on="0"/>
        <pt x="303" y="-459" on="0"/>
        <pt x="135" y="-459" on="1"/>
        <pt x="128" y="-298" on="1"/>
        <pt x="179" y="-298" on="0"/>
        <pt x="239" y="-257" on="0"/>
        <pt x="239" y="-215" on="1"/>
        <pt x="239" y="-174" on="0"/>
        <pt x="175" y="-141" on="0"/>
        <pt x="97" y="-136" on="1"/>
        <pt x="128" y="6" on="1"/>
      </contour>
    </TTGlyph>
    <TTGlyph name="cent" xMin="72" yMin="-245" xMax="1022" yMax="1318">
      <contour>
        <pt x="576" y="203" on="1"/>
        <pt x="654" y="203" on="0"/>
        <pt x="748" y="294" on="0"/>
        <pt x="748" y="370" on="1"/>
        <pt x="1015" y="370" on="1"/>
        <pt x="1017" y="365" on="1"/>
        <pt x="1020" y="230" on="0"/>
        <pt x="843" y="26" on="0"/>
        <pt x="700" y="-7" on="1"/>
        <pt x="700" y="-245" on="1"/>
        <pt x="500" y="-245" on="1"/>
        <pt x="500" y="-16" on="1"/>
        <pt x="293" y="7" on="0"/>
        <pt x="72" y="306" on="0"/>
        <pt x="72" y="525" on="1"/>
        <pt x="72" y="555" on="1"/>
        <pt x="72" y="773" on="0"/>
        <pt x="293" y="1072" on="0"/>
        <pt x="500" y="1097" on="1"/>
        <pt x="500" y="1318" on="1"/>
        <pt x="700" y="1318" on="1"/>
        <pt x="700" y="1089" on="1"/>
        <pt x="848" y="1055" on="0"/>
        <pt x="1022" y="840" on="0"/>
        <pt x="1022" y="682" on="1"/>
        <pt x="748" y="682" on="1"/>
        <pt x="748" y="766" on="0"/>
        <pt x="656" y="877" on="0"/>
        <pt x="575" y="877" on="1"/>
        <pt x="459" y="877" on="0"/>
        <pt x="364" y="697" on="0"/>
        <pt x="364" y="555" on="1"/>
        <pt x="364" y="525" on="1"/>
        <pt x="364" y="380" on="0"/>
        <pt x="459" y="203" on="0"/>
      </contour>
    </TTGlyph>
    <TTGlyph name="chi" xMin="23" yMin="-434" xMax="1088" yMax="1098">
      <contour>
        <pt x="181" y="1098" on="1"/>
        <pt x="332" y="1098" on="0"/>
        <pt x="485" y="940" on="0"/>
        <pt x="528" y="825" on="1"/>
        <pt x="590" y="680" on="1"/>
        <pt x="596" y="679" on="1"/>
        <pt x="792" y="1082" on="1"/>
        <pt x="1088" y="1082" on="1"/>
        <pt x="730" y="353" on="1"/>
        <pt x="914" y="-73" on="1"/>
        <pt x="934" y="-125" on="0"/>
        <pt x="992" y="-190" on="0"/>
        <pt x="1032" y="-198" on="1"/>
        <pt x="1043" y="-200" on="0"/>
        <pt x="1068" y="-201" on="0"/>
        <pt x="1084" y="-201" on="1"/>
        <pt x="1073" y="-423" on="1"/>
        <pt x="1042" y="-429" on="0"/>
        <pt x="967" y="-434" on="0"/>
        <pt x="933" y="-431" on="1"/>
        <pt x="822" y="-421" on="0"/>
        <pt x="687" y="-241" on="0"/>
        <pt x="637" y="-107" on="1"/>
        <pt x="578" y="29" on="1"/>
        <pt x="572" y="30" on="1"/>
        <pt x="353" y="-416" on="1"/>
        <pt x="64" y="-416" on="1"/>
        <pt x="438" y="354" on="1"/>
        <pt x="268" y="748" on="1"/>
        <pt x="245" y="805" on="0"/>
        <pt x="153" y="870" on="0"/>
        <pt x="95" y="870" on="1"/>
        <pt x="82" y="870" on="0"/>
        <pt x="40" y="866" on="0"/>
        <pt x="29" y="864" on="1"/>
        <pt x="23" y="1076" on="1"/>
        <pt x="67" y="1087" on="0"/>
        <pt x="139" y="1098" on="0"/>
      </contour>
    </TTGlyph>
    <TTGlyph name="circumflex" xMin="137" yMin="1252" xMax="875" yMax="1518">
      <contour>
        <pt x="875" y="1275" on="1"/>
        <pt x="875" y="1252" on="1"/>
        <pt x="643" y="1252" on="1"/>
        <pt x="503" y="1385" on="1"/>
        <pt x="364" y="1252" on="1"/>
        <pt x="137" y="1252" on="1"/>
        <pt x="137" y="1278" on="1"/>
        <pt x="419" y="1518" on="1"/>
        <pt x="588" y="1518" on="1"/>
      </contour>
    </TTGlyph>
    <TTGlyph name="circumflexacutecomb" xMin="90" yMin="1252" xMax="1252" yMax="1695">
      <contour>
        <pt x="387" y="1511" on="1"/>
        <pt x="627" y="1511" on="1"/>
        <pt x="923" y="1258" on="1"/>
        <pt x="921" y="1252" on="1"/>
        <pt x="659" y="1252" on="1"/>
        <pt x="506" y="1395" on="1"/>
        <pt x="355" y="1252" on="1"/>
        <pt x="92" y="1252" on="1"/>
        <pt x="90" y="1258" on="1"/>
      </contour>
      <contour>
        <pt x="982" y="1695" on="1"/>
        <pt x="1252" y="1695" on="1"/>
        <pt x="1038" y="1424" on="1"/>
        <pt x="834" y="1424" on="1"/>
      </contour>
    </TTGlyph>
    <TTGlyph name="circumflexgravecomb" xMin="-240" yMin="1252" xMax="920" yMax="1695">
      <contour>
        <pt x="920" y="1258" on="1"/>
        <pt x="918" y="1252" on="1"/>
        <pt x="656" y="1252" on="1"/>
        <pt x="504" y="1395" on="1"/>
        <pt x="352" y="1252" on="1"/>
        <pt x="89" y="1252" on="1"/>
        <pt x="87" y="1258" on="1"/>
        <pt x="384" y="1511" on="1"/>
        <pt x="624" y="1511" on="1"/>
      </contour>
      <contour>
        <pt x="177" y="1424" on="1"/>
        <pt x="-27" y="1424" on="1"/>
        <pt x="-240" y="1695" on="1"/>
        <pt x="28" y="1695" on="1"/>
      </contour>
    </TTGlyph>
    <TTGlyph name="circumflexhookcomb" xMin="86" yMin="1252" xMax="1158" yMax="1730">
      <contour>
        <pt x="921" y="1258" on="1"/>
        <pt x="918" y="1252" on="1"/>
        <pt x="663" y="1252" on="1"/>
        <pt x="503" y="1405" on="1"/>
        <pt x="344" y="1252" on="1"/>
        <pt x="89" y="1252" on="1"/>
        <pt x="86" y="1258" on="1"/>
        <pt x="379" y="1511" on="1"/>
        <pt x="629" y="1511" on="1"/>
      </contour>
      <contour>
        <pt x="847" y="1388" on="1"/>
        <pt x="834" y="1504" on="1"/>
        <pt x="896" y="1507" on="0"/>
        <pt x="949" y="1531" on="0"/>
        <pt x="945" y="1556" on="1"/>
        <pt x="945" y="1562" on="1"/>
        <pt x="949" y="1592" on="0"/>
        <pt x="887" y="1619" on="0"/>
        <pt x="830" y="1619" on="1"/>
        <pt x="837" y="1730" on="1"/>
        <pt x="993" y="1730" on="0"/>
        <pt x="1158" y="1643" on="0"/>
        <pt x="1158" y="1566" on="1"/>
        <pt x="1158" y="1511" on="0"/>
        <pt x="1085" y="1450" on="0"/>
        <pt x="1032" y="1443" on="1"/>
        <pt x="1032" y="1388" on="1"/>
      </contour>
    </TTGlyph>
    <TTGlyph name="circumflextildecomb" xMin="87" yMin="1259" xMax="911" yMax="1779">
      <contour>
        <pt x="911" y="1265" on="1"/>
        <pt x="909" y="1259" on="1"/>
        <pt x="658" y="1259" on="1"/>
        <pt x="500" y="1396" on="1"/>
        <pt x="341" y="1259" on="1"/>
        <pt x="89" y="1259" on="1"/>
        <pt x="87" y="1265" on="1"/>
        <pt x="381" y="1493" on="1"/>
        <pt x="619" y="1493" on="1"/>
      </contour>
      <contour>
        <pt x="782" y="1740" on="1"/>
        <pt x="782" y="1670" on="0"/>
        <pt x="698" y="1564" on="0"/>
        <pt x="634" y="1564" on="1"/>
        <pt x="583" y="1564" on="0"/>
        <pt x="439" y="1634" on="0"/>
        <pt x="402" y="1634" on="1"/>
        <pt x="377" y="1634" on="0"/>
        <pt x="346" y="1584" on="0"/>
        <pt x="346" y="1550" on="1"/>
        <pt x="234" y="1580" on="1"/>
        <pt x="234" y="1649" on="0"/>
        <pt x="315" y="1758" on="0"/>
        <pt x="379" y="1758" on="1"/>
        <pt x="420" y="1758" on="0"/>
        <pt x="574" y="1690" on="0"/>
        <pt x="612" y="1690" on="1"/>
        <pt x="636" y="1690" on="0"/>
        <pt x="669" y="1744" on="0"/>
        <pt x="669" y="1779" on="1"/>
      </contour>
    </TTGlyph>
    <TTGlyph name="colon" xMin="144" yMin="0" xMax="436" yMax="1132">
      <component glyphName="period" x="0" y="0" flags="0x4"/>
      <component glyphName="period" x="0" y="876" flags="0x4"/>
    </TTGlyph>
    <TTGlyph name="comma" xMin="63" yMin="-302" xMax="417" yMax="250">
      <contour>
        <pt x="417" y="13" on="1"/>
        <pt x="258" y="-302" on="1"/>
        <pt x="63" y="-302" on="1"/>
        <pt x="133" y="22" on="1"/>
        <pt x="133" y="250" on="1"/>
        <pt x="417" y="250" on="1"/>
      </contour>
    </TTGlyph>
    <TTGlyph name="commaaccent" xMin="61" yMin="-124" xMax="312" yMax="272">
      <contour>
        <pt x="312" y="111" on="1"/>
        <pt x="183" y="-124" on="1"/>
        <pt x="61" y="-124" on="1"/>
        <pt x="122" y="121" on="1"/>
        <pt x="122" y="272" on="1"/>
        <pt x="312" y="272" on="1"/>
      </contour>
    </TTGlyph>
    <TTGlyph name="commaaccentrotate" xMin="125" yMin="1104" xMax="399" yMax="1539">
      <contour>
        <pt x="125" y="1279" on="1"/>
        <pt x="240" y="1539" on="1"/>
        <pt x="399" y="1539" on="1"/>
        <pt x="364" y="1269" on="1"/>
        <pt x="364" y="1104" on="1"/>
        <pt x="125" y="1104" on="1"/>
      </contour>
    </TTGlyph>
    <TTGlyph name="copyright" xMin="86" yMin="-21" xMax="1506" yMax="1476">
      <contour>
        <pt x="1109" y="596" on="1"/>
        <pt x="1111" y="590" on="1"/>
        <pt x="1115" y="439" on="0"/>
        <pt x="939" y="282" on="0"/>
        <pt x="782" y="282" on="1"/>
        <pt x="622" y="282" on="0"/>
        <pt x="433" y="494" on="0"/>
        <pt x="433" y="669" on="1"/>
        <pt x="433" y="788" on="1"/>
        <pt x="433" y="961" on="0"/>
        <pt x="622" y="1175" on="0"/>
        <pt x="782" y="1175" on="1"/>
        <pt x="939" y="1175" on="0"/>
        <pt x="1116" y="1016" on="0"/>
        <pt x="1112" y="867" on="1"/>
        <pt x="1110" y="861" on="1"/>
        <pt x="962" y="861" on="1"/>
        <pt x="962" y="955" on="0"/>
        <pt x="872" y="1040" on="0"/>
        <pt x="782" y="1040" on="1"/>
        <pt x="688" y="1040" on="0"/>
        <pt x="588" y="902" on="0"/>
        <pt x="588" y="789" on="1"/>
        <pt x="588" y="669" on="1"/>
        <pt x="588" y="554" on="0"/>
        <pt x="688" y="417" on="0"/>
        <pt x="782" y="417" on="1"/>
        <pt x="872" y="417" on="0"/>
        <pt x="961" y="500" on="0"/>
        <pt x="961" y="596" on="1"/>
      </contour>
      <contour>
        <pt x="208" y="729" on="1"/>
        <pt x="208" y="465" on="0"/>
        <pt x="551" y="104" on="0"/>
        <pt x="796" y="104" on="1"/>
        <pt x="1040" y="104" on="0"/>
        <pt x="1383" y="465" on="0"/>
        <pt x="1383" y="729" on="1"/>
        <pt x="1383" y="992" on="0"/>
        <pt x="1040" y="1351" on="0"/>
        <pt x="796" y="1351" on="1"/>
        <pt x="550" y="1351" on="0"/>
        <pt x="208" y="992" on="0"/>
      </contour>
      <contour>
        <pt x="86" y="729" on="1"/>
        <pt x="86" y="1044" on="0"/>
        <pt x="500" y="1476" on="0"/>
        <pt x="796" y="1476" on="1"/>
        <pt x="1091" y="1476" on="0"/>
        <pt x="1506" y="1044" on="0"/>
        <pt x="1506" y="729" on="1"/>
        <pt x="1506" y="413" on="0"/>
        <pt x="1090" y="-21" on="0"/>
        <pt x="796" y="-21" on="1"/>
        <pt x="500" y="-21" on="0"/>
        <pt x="86" y="413" on="0"/>
      </contour>
    </TTGlyph>
    <TTGlyph name="crossbar" xMin="156" yMin="648" xMax="827" yMax="829">
      <contour>
        <pt x="827" y="648" on="1"/>
        <pt x="156" y="648" on="1"/>
        <pt x="156" y="829" on="1"/>
        <pt x="827" y="829" on="1"/>
      </contour>
    </TTGlyph>
    <TTGlyph name="currency" xMin="80" yMin="-27" xMax="1346" yMax="1265">
      <contour>
        <pt x="1072" y="107" on="1"/>
        <pt x="995" y="45" on="0"/>
        <pt x="811" y="-20" on="0"/>
        <pt x="711" y="-20" on="1"/>
        <pt x="610" y="-20" on="0"/>
        <pt x="425" y="45" on="0"/>
        <pt x="350" y="106" on="1"/>
        <pt x="221" y="-26" on="1"/>
        <pt x="80" y="118" on="1"/>
        <pt x="215" y="255" on="1"/>
        <pt x="166" y="331" on="0"/>
        <pt x="115" y="510" on="0"/>
        <pt x="115" y="608" on="1"/>
        <pt x="115" y="709" on="0"/>
        <pt x="171" y="895" on="0"/>
        <pt x="224" y="973" on="1"/>
        <pt x="80" y="1120" on="1"/>
        <pt x="221" y="1264" on="1"/>
        <pt x="363" y="1119" on="1"/>
        <pt x="437" y="1174" on="0"/>
        <pt x="614" y="1234" on="0"/>
        <pt x="711" y="1234" on="1"/>
        <pt x="807" y="1234" on="0"/>
        <pt x="985" y="1173" on="0"/>
        <pt x="1060" y="1117" on="1"/>
        <pt x="1204" y="1265" on="1"/>
        <pt x="1346" y="1120" on="1"/>
        <pt x="1198" y="969" on="1"/>
        <pt x="1249" y="891" on="0"/>
        <pt x="1305" y="708" on="0"/>
        <pt x="1305" y="608" on="1"/>
        <pt x="1305" y="511" on="0"/>
        <pt x="1254" y="334" on="0"/>
        <pt x="1207" y="259" on="1"/>
        <pt x="1346" y="118" on="1"/>
        <pt x="1204" y="-27" on="1"/>
      </contour>
      <contour>
        <pt x="301" y="608" on="1"/>
        <pt x="301" y="423" on="0"/>
        <pt x="539" y="169" on="0"/>
        <pt x="711" y="169" on="1"/>
        <pt x="881" y="169" on="0"/>
        <pt x="1120" y="424" on="0"/>
        <pt x="1120" y="608" on="1"/>
        <pt x="1120" y="791" on="0"/>
        <pt x="881" y="1045" on="0"/>
        <pt x="711" y="1045" on="1"/>
        <pt x="539" y="1045" on="0"/>
        <pt x="301" y="791" on="0"/>
      </contour>
    </TTGlyph>
    <TTGlyph name="cyrillicbreve" xMin="106" yMin="1162" xMax="798" yMax="1456">
      <component glyphName="breve" x="0" y="0" flags="0x204"/>
    </TTGlyph>
    <TTGlyph name="cyrillichook" xMin="-98" yMin="-437" xMax="427" yMax="247">
      <contour>
        <pt x="427" y="247" on="1"/>
        <pt x="427" y="-40" on="1"/>
        <pt x="427" y="-230" on="0"/>
        <pt x="225" y="-437" on="0"/>
        <pt x="45" y="-437" on="1"/>
        <pt x="5" y="-437" on="0"/>
        <pt x="-61" y="-429" on="0"/>
        <pt x="-98" y="-420" on="1"/>
        <pt x="-84" y="-196" on="1"/>
        <pt x="-62" y="-201" on="0"/>
        <pt x="-12" y="-208" on="0"/>
        <pt x="14" y="-208" on="1"/>
        <pt x="72" y="-208" on="0"/>
        <pt x="134" y="-122" on="0"/>
        <pt x="134" y="-40" on="1"/>
        <pt x="134" y="247" on="1"/>
      </contour>
    </TTGlyph>
    <TTGlyph name="cyrillichookleft" xMin="33" yMin="-417" xMax="476" yMax="63">
      <contour>
        <pt x="296" y="63" on="1"/>
        <pt x="387" y="11" on="0"/>
        <pt x="476" y="-128" on="0"/>
        <pt x="476" y="-203" on="1"/>
        <pt x="476" y="-304" on="0"/>
        <pt x="332" y="-417" on="0"/>
        <pt x="223" y="-417" on="1"/>
        <pt x="160" y="-417" on="0"/>
        <pt x="69" y="-392" on="0"/>
        <pt x="33" y="-373" on="1"/>
        <pt x="68" y="-219" on="1"/>
        <pt x="91" y="-227" on="0"/>
        <pt x="136" y="-239" on="0"/>
        <pt x="167" y="-239" on="1"/>
        <pt x="220" y="-239" on="0"/>
        <pt x="257" y="-196" on="0"/>
        <pt x="257" y="-169" on="1"/>
        <pt x="257" y="-122" on="0"/>
        <pt x="209" y="-51" on="0"/>
        <pt x="159" y="0" on="1"/>
      </contour>
    </TTGlyph>
    <TTGlyph name="cyrillictic" xMin="90" yMin="-357" xMax="382" yMax="234">
      <contour>
        <pt x="382" y="-357" on="1"/>
        <pt x="90" y="-357" on="1"/>
        <pt x="90" y="234" on="1"/>
        <pt x="382" y="234" on="1"/>
      </contour>
    </TTGlyph>
    <TTGlyph name="d" xMin="67" yMin="-21" xMax="1042" yMax="1560">
      <contour>
        <pt x="67" y="532" on="1"/>
        <pt x="67" y="788" on="0"/>
        <pt x="288" y="1102" on="0"/>
        <pt x="489" y="1102" on="1"/>
        <pt x="570" y="1102" on="0"/>
        <pt x="700" y="1032" on="0"/>
        <pt x="749" y="967" on="1"/>
        <pt x="749" y="1560" on="1"/>
        <pt x="1042" y="1560" on="1"/>
        <pt x="1042" y="0" on="1"/>
        <pt x="791" y="0" on="1"/>
        <pt x="767" y="132" on="1"/>
        <pt x="716" y="57" on="0"/>
        <pt x="577" y="-21" on="0"/>
        <pt x="487" y="-21" on="1"/>
        <pt x="288" y="-21" on="0"/>
        <pt x="67" y="271" on="0"/>
        <pt x="67" y="511" on="1"/>
      </contour>
      <contour>
        <pt x="358" y="511" on="1"/>
        <pt x="358" y="369" on="0"/>
        <pt x="454" y="206" on="0"/>
        <pt x="562" y="206" on="1"/>
        <pt x="625" y="206" on="0"/>
        <pt x="719" y="257" on="0"/>
        <pt x="749" y="306" on="1"/>
        <pt x="749" y="767" on="1"/>
        <pt x="719" y="818" on="0"/>
        <pt x="626" y="875" on="0"/>
        <pt x="564" y="875" on="1"/>
        <pt x="457" y="875" on="0"/>
        <pt x="358" y="685" on="0"/>
        <pt x="358" y="532" on="1"/>
      </contour>
    </TTGlyph>
    <TTGlyph name="dagger" xMin="57" yMin="0" xMax="1046" yMax="1456">
      <contour>
        <pt x="1046" y="850" on="1"/>
        <pt x="695" y="850" on="1"/>
        <pt x="695" y="0" on="1"/>
        <pt x="403" y="0" on="1"/>
        <pt x="403" y="850" on="1"/>
        <pt x="57" y="850" on="1"/>
        <pt x="57" y="1082" on="1"/>
        <pt x="403" y="1082" on="1"/>
        <pt x="403" y="1456" on="1"/>
        <pt x="695" y="1456" on="1"/>
        <pt x="695" y="1082" on="1"/>
        <pt x="1046" y="1082" on="1"/>
      </contour>
    </TTGlyph>
    <TTGlyph name="daggerdbl" xMin="98" yMin="-416" xMax="1087" yMax="1456">
      <contour>
        <pt x="1087" y="0" on="1"/>
        <pt x="736" y="0" on="1"/>
        <pt x="736" y="-416" on="1"/>
        <pt x="443" y="-416" on="1"/>
        <pt x="443" y="0" on="1"/>
        <pt x="98" y="0" on="1"/>
        <pt x="98" y="224" on="1"/>
        <pt x="443" y="224" on="1"/>
        <pt x="443" y="856" on="1"/>
        <pt x="98" y="856" on="1"/>
        <pt x="98" y="1082" on="1"/>
        <pt x="443" y="1082" on="1"/>
        <pt x="443" y="1456" on="1"/>
        <pt x="736" y="1456" on="1"/>
        <pt x="736" y="1082" on="1"/>
        <pt x="1087" y="1082" on="1"/>
        <pt x="1087" y="856" on="1"/>
        <pt x="736" y="856" on="1"/>
        <pt x="736" y="224" on="1"/>
        <pt x="1087" y="224" on="1"/>
      </contour>
    </TTGlyph>
    <TTGlyph name="dasiaoxia" xMin="114" yMin="1135" xMax="714" yMax="1477">
      <contour>
        <pt x="401" y="1164" on="1"/>
        <pt x="503" y="1477" on="1"/>
        <pt x="714" y="1477" on="1"/>
        <pt x="714" y="1456" on="1"/>
        <pt x="484" y="1137" on="1"/>
        <pt x="401" y="1137" on="1"/>
      </contour>
      <contour>
        <pt x="114" y="1290" on="1"/>
        <pt x="262" y="1476" on="1"/>
        <pt x="370" y="1476" on="1"/>
        <pt x="289" y="1272" on="1"/>
        <pt x="289" y="1135" on="1"/>
        <pt x="114" y="1135" on="1"/>
      </contour>
    </TTGlyph>
    <TTGlyph name="dcaron" xMin="67" yMin="-21" xMax="1368" yMax="1560">
      <component glyphName="d" x="0" y="0" flags="0x4"/>
      <component glyphName="commaaccent" x="1056" y="1287" flags="0x4"/>
    </TTGlyph>
    <TTGlyph name="dcroat" xMin="67" yMin="-21" xMax="1186" yMax="1560">
      <contour>
        <pt x="1186" y="1220" on="1"/>
        <pt x="1042" y="1220" on="1"/>
        <pt x="1042" y="0" on="1"/>
        <pt x="791" y="0" on="1"/>
        <pt x="767" y="132" on="1"/>
        <pt x="716" y="57" on="0"/>
        <pt x="577" y="-21" on="0"/>
        <pt x="487" y="-21" on="1"/>
        <pt x="288" y="-21" on="0"/>
        <pt x="67" y="271" on="0"/>
        <pt x="67" y="511" on="1"/>
        <pt x="67" y="532" on="1"/>
        <pt x="67" y="788" on="0"/>
        <pt x="288" y="1102" on="0"/>
        <pt x="489" y="1102" on="1"/>
        <pt x="570" y="1102" on="0"/>
        <pt x="700" y="1032" on="0"/>
        <pt x="749" y="967" on="1"/>
        <pt x="749" y="1220" on="1"/>
        <pt x="515" y="1220" on="1"/>
        <pt x="515" y="1401" on="1"/>
        <pt x="749" y="1401" on="1"/>
        <pt x="749" y="1560" on="1"/>
        <pt x="1042" y="1560" on="1"/>
        <pt x="1042" y="1401" on="1"/>
        <pt x="1186" y="1401" on="1"/>
      </contour>
      <contour>
        <pt x="358" y="511" on="1"/>
        <pt x="358" y="369" on="0"/>
        <pt x="454" y="206" on="0"/>
        <pt x="562" y="206" on="1"/>
        <pt x="625" y="206" on="0"/>
        <pt x="719" y="257" on="0"/>
        <pt x="749" y="306" on="1"/>
        <pt x="749" y="767" on="1"/>
        <pt x="719" y="818" on="0"/>
        <pt x="626" y="875" on="0"/>
        <pt x="564" y="875" on="1"/>
        <pt x="457" y="875" on="0"/>
        <pt x="358" y="685" on="0"/>
        <pt x="358" y="532" on="1"/>
      </contour>
    </TTGlyph>
    <TTGlyph name="degree" xMin="126" yMin="932" xMax="667" yMax="1477">
      <contour>
        <pt x="126" y="1203" on="1"/>
        <pt x="126" y="1315" on="0"/>
        <pt x="287" y="1477" on="0"/>
        <pt x="399" y="1477" on="1"/>
        <pt x="509" y="1477" on="0"/>
        <pt x="667" y="1315" on="0"/>
        <pt x="667" y="1203" on="1"/>
        <pt x="667" y="1090" on="0"/>
        <pt x="509" y="932" on="0"/>
        <pt x="399" y="932" on="1"/>
        <pt x="286" y="932" on="0"/>
        <pt x="126" y="1090" on="0"/>
      </contour>
      <contour>
        <pt x="273" y="1203" on="1"/>
        <pt x="273" y="1150" on="0"/>
        <pt x="347" y="1079" on="0"/>
        <pt x="399" y="1079" on="1"/>
        <pt x="450" y="1079" on="0"/>
        <pt x="520" y="1149" on="0"/>
        <pt x="520" y="1203" on="1"/>
        <pt x="520" y="1257" on="0"/>
        <pt x="450" y="1331" on="0"/>
        <pt x="399" y="1331" on="1"/>
        <pt x="347" y="1331" on="0"/>
        <pt x="273" y="1257" on="0"/>
      </contour>
    </TTGlyph>
    <TTGlyph name="delta" xMin="67" yMin="-21" xMax="1088" yMax="1456">
      <contour>
        <pt x="979" y="1456" on="1"/>
        <pt x="979" y="1232" on="1"/>
        <pt x="575" y="1232" on="1"/>
        <pt x="573" y="1226" on="1"/>
        <pt x="817" y="1038" on="1"/>
        <pt x="935" y="951" on="0"/>
        <pt x="1088" y="706" on="0"/>
        <pt x="1088" y="551" on="1"/>
        <pt x="1088" y="530" on="1"/>
        <pt x="1088" y="286" on="0"/>
        <pt x="817" y="-21" on="0"/>
        <pt x="578" y="-21" on="1"/>
        <pt x="338" y="-21" on="0"/>
        <pt x="67" y="271" on="0"/>
        <pt x="67" y="504" on="1"/>
        <pt x="67" y="525" on="1"/>
        <pt x="67" y="725" on="0"/>
        <pt x="283" y="1005" on="0"/>
        <pt x="452" y="1035" on="1"/>
        <pt x="460" y="1036" on="1"/>
        <pt x="461" y="1042" on="1"/>
        <pt x="170" y="1279" on="1"/>
        <pt x="170" y="1456" on="1"/>
      </contour>
      <contour>
        <pt x="576" y="877" on="1"/>
        <pt x="463" y="877" on="0"/>
        <pt x="358" y="694" on="0"/>
        <pt x="358" y="551" on="1"/>
        <pt x="358" y="530" on="1"/>
        <pt x="358" y="382" on="0"/>
        <pt x="462" y="203" on="0"/>
        <pt x="578" y="203" on="1"/>
        <pt x="691" y="203" on="0"/>
        <pt x="796" y="383" on="0"/>
        <pt x="796" y="530" on="1"/>
        <pt x="796" y="551" on="1"/>
        <pt x="796" y="695" on="0"/>
        <pt x="690" y="877" on="0"/>
      </contour>
    </TTGlyph>
    <TTGlyph name="dieresis" xMin="156" yMin="1252" xMax="922" yMax="1456">
      <contour>
        <pt x="922" y="1252" on="1"/>
        <pt x="656" y="1252" on="1"/>
        <pt x="656" y="1456" on="1"/>
        <pt x="922" y="1456" on="1"/>
      </contour>
      <contour>
        <pt x="422" y="1252" on="1"/>
        <pt x="156" y="1252" on="1"/>
        <pt x="156" y="1456" on="1"/>
        <pt x="422" y="1456" on="1"/>
      </contour>
    </TTGlyph>
    <TTGlyph name="dieresistonos" xMin="153" yMin="1252" xMax="955" yMax="1757">
      <contour>
        <pt x="955" y="1252" on="1"/>
        <pt x="701" y="1252" on="1"/>
        <pt x="701" y="1456" on="1"/>
        <pt x="955" y="1456" on="1"/>
      </contour>
      <contour>
        <pt x="406" y="1252" on="1"/>
        <pt x="153" y="1252" on="1"/>
        <pt x="153" y="1456" on="1"/>
        <pt x="406" y="1456" on="1"/>
      </contour>
      <contour>
        <pt x="520" y="1757" on="1"/>
        <pt x="802" y="1757" on="1"/>
        <pt x="626" y="1478" on="1"/>
        <pt x="478" y="1478" on="1"/>
      </contour>
    </TTGlyph>
    <TTGlyph name="divide" xMin="63" yMin="164" xMax="1092" yMax="1206">
      <contour>
        <pt x="1092" y="573" on="1"/>
        <pt x="63" y="573" on="1"/>
        <pt x="63" y="800" on="1"/>
        <pt x="1092" y="800" on="1"/>
      </contour>
      <contour>
        <pt x="725" y="973" on="1"/>
        <pt x="432" y="973" on="1"/>
        <pt x="432" y="1206" on="1"/>
        <pt x="725" y="1206" on="1"/>
      </contour>
      <contour>
        <pt x="725" y="164" on="1"/>
        <pt x="432" y="164" on="1"/>
        <pt x="432" y="397" on="1"/>
        <pt x="725" y="397" on="1"/>
      </contour>
    </TTGlyph>
    <TTGlyph name="dollar" xMin="92" yMin="-214" xMax="1080" yMax="1688">
      <contour>
        <pt x="789" y="383" on="1"/>
        <pt x="789" y="464" on="0"/>
        <pt x="696" y="566" on="0"/>
        <pt x="583" y="610" on="1"/>
        <pt x="361" y="691" on="0"/>
        <pt x="146" y="890" on="0"/>
        <pt x="146" y="1071" on="1"/>
        <pt x="146" y="1239" on="0"/>
        <pt x="361" y="1454" on="0"/>
        <pt x="543" y="1473" on="1"/>
        <pt x="543" y="1688" on="1"/>
        <pt x="702" y="1688" on="1"/>
        <pt x="702" y="1471" on="1"/>
        <pt x="878" y="1445" on="0"/>
        <pt x="1079" y="1203" on="0"/>
        <pt x="1077" y="1010" on="1"/>
        <pt x="1074" y="1005" on="1"/>
        <pt x="789" y="1005" on="1"/>
        <pt x="789" y="1123" on="0"/>
        <pt x="692" y="1251" on="0"/>
        <pt x="608" y="1251" on="1"/>
        <pt x="522" y="1251" on="0"/>
        <pt x="438" y="1152" on="0"/>
        <pt x="438" y="1070" on="1"/>
        <pt x="438" y="992" on="0"/>
        <pt x="527" y="895" on="0"/>
        <pt x="646" y="848" on="1"/>
        <pt x="867" y="761" on="0"/>
        <pt x="1080" y="563" on="0"/>
        <pt x="1080" y="385" on="1"/>
        <pt x="1080" y="211" on="0"/>
        <pt x="866" y="3" on="0"/>
        <pt x="682" y="-16" on="1"/>
        <pt x="682" y="-214" on="1"/>
        <pt x="523" y="-214" on="1"/>
        <pt x="523" y="-17" on="1"/>
        <pt x="336" y="2" on="0"/>
        <pt x="92" y="229" on="0"/>
        <pt x="96" y="449" on="1"/>
        <pt x="98" y="454" on="1"/>
        <pt x="383" y="454" on="1"/>
        <pt x="383" y="320" on="0"/>
        <pt x="506" y="204" on="0"/>
        <pt x="601" y="204" on="1"/>
        <pt x="692" y="204" on="0"/>
        <pt x="789" y="301" on="0"/>
      </contour>
    </TTGlyph>
    <TTGlyph name="dotaccent" xMin="146" yMin="1227" xMax="450" yMax="1468">
      <contour>
        <pt x="450" y="1227" on="1"/>
        <pt x="146" y="1227" on="1"/>
        <pt x="146" y="1468" on="1"/>
        <pt x="450" y="1468" on="1"/>
      </contour>
    </TTGlyph>
    <TTGlyph name="dotbelow" xMin="-762" yMin="-354" xMax="-435" yMax="-113">
      <contour>
        <pt x="-435" y="-354" on="1"/>
        <pt x="-762" y="-354" on="1"/>
        <pt x="-762" y="-113" on="1"/>
        <pt x="-435" y="-113" on="1"/>
      </contour>
    </TTGlyph>
    <TTGlyph name="dotlessi" xMin="133" yMin="0" xMax="425" yMax="1082">
      <contour>
        <pt x="425" y="0" on="1"/>
        <pt x="133" y="0" on="1"/>
        <pt x="133" y="1082" on="1"/>
        <pt x="425" y="1082" on="1"/>
      </contour>
    </TTGlyph>
    <TTGlyph name="e" xMin="77" yMin="-21" xMax="1026" yMax="1103">
      <contour>
        <pt x="591" y="-21" on="1"/>
        <pt x="357" y="-21" on="0"/>
        <pt x="77" y="279" on="0"/>
        <pt x="77" y="510" on="1"/>
        <pt x="77" y="550" on="1"/>
        <pt x="77" y="791" on="0"/>
        <pt x="342" y="1103" on="0"/>
        <pt x="565" y="1102" on="1"/>
        <pt x="784" y="1102" on="0"/>
        <pt x="1026" y="838" on="0"/>
        <pt x="1026" y="613" on="1"/>
        <pt x="1026" y="454" on="1"/>
        <pt x="380" y="454" on="1"/>
        <pt x="378" y="448" on="1"/>
        <pt x="386" y="341" on="0"/>
        <pt x="513" y="203" on="0"/>
        <pt x="622" y="203" on="1"/>
        <pt x="719" y="203" on="0"/>
        <pt x="847" y="242" on="0"/>
        <pt x="923" y="284" on="1"/>
        <pt x="1002" y="104" on="1"/>
        <pt x="936" y="50" on="0"/>
        <pt x="722" y="-21" on="0"/>
      </contour>
      <contour>
        <pt x="565" y="877" on="1"/>
        <pt x="484" y="877" on="0"/>
        <pt x="390" y="753" on="0"/>
        <pt x="379" y="652" on="1"/>
        <pt x="382" y="647" on="1"/>
        <pt x="740" y="647" on="1"/>
        <pt x="740" y="673" on="1"/>
        <pt x="740" y="766" on="0"/>
        <pt x="653" y="877" on="0"/>
      </contour>
    </TTGlyph>
    <TTGlyph name="eacute" xMin="77" yMin="-21" xMax="1026" yMax="1504">
      <component glyphName="e" x="0" y="0" flags="0x204"/>
      <component glyphName="acute" x="290" y="26" flags="0x4"/>
    </TTGlyph>
    <TTGlyph name="ebreve" xMin="77" yMin="-21" xMax="1026" yMax="1575">
      <component glyphName="e" x="0" y="0" flags="0x204"/>
      <component glyphName="breve" x="94" y="119" flags="0x4"/>
    </TTGlyph>
    <TTGlyph name="ecaron" xMin="77" yMin="-21" xMax="1026" yMax="1552">
      <component glyphName="e" x="0" y="0" flags="0x204"/>
      <component glyphName="caron" x="66" y="28" flags="0x4"/>
    </TTGlyph>
    <TTGlyph name="ecircumflex" xMin="77" yMin="-21" xMax="1026" yMax="1537">
      <component glyphName="e" x="0" y="0" flags="0x204"/>
      <component glyphName="circumflex" x="43" y="19" flags="0x4"/>
    </TTGlyph>
    <TTGlyph name="edieresis" xMin="77" yMin="-21" xMax="1026" yMax="1484">
      <component glyphName="e" x="0" y="0" flags="0x204"/>
      <component glyphName="dieresis" x="7" y="28" flags="0x4"/>
    </TTGlyph>
    <TTGlyph name="edotaccent" xMin="77" yMin="-21" xMax="1026" yMax="1521">
      <component glyphName="e" x="0" y="0" flags="0x204"/>
      <component glyphName="dotaccent" x="245" y="53" flags="0x4"/>
    </TTGlyph>
    <TTGlyph name="egrave" xMin="77" yMin="-21" xMax="1026" yMax="1504">
      <component glyphName="e" x="0" y="0" flags="0x204"/>
      <component glyphName="grave" x="109" y="26" flags="0x4"/>
    </TTGlyph>
    <TTGlyph name="eight" xMin="91" yMin="-21" xMax="1084" yMax="1477">
      <contour>
        <pt x="1050" y="1070" on="1"/>
        <pt x="1050" y="961" on="0"/>
        <pt x="935" y="793" on="0"/>
        <pt x="834" y="746" on="1"/>
        <pt x="950" y="697" on="0"/>
        <pt x="1084" y="515" on="0"/>
        <pt x="1084" y="398" on="1"/>
        <pt x="1084" y="196" on="0"/>
        <pt x="810" y="-21" on="0"/>
        <pt x="589" y="-21" on="1"/>
        <pt x="366" y="-21" on="0"/>
        <pt x="91" y="196" on="0"/>
        <pt x="91" y="398" on="1"/>
        <pt x="91" y="516" on="0"/>
        <pt x="224" y="697" on="0"/>
        <pt x="341" y="747" on="1"/>
        <pt x="239" y="794" on="0"/>
        <pt x="125" y="961" on="0"/>
        <pt x="125" y="1070" on="1"/>
        <pt x="125" y="1264" on="0"/>
        <pt x="379" y="1477" on="0"/>
        <pt x="587" y="1477" on="1"/>
        <pt x="794" y="1477" on="0"/>
        <pt x="1050" y="1264" on="0"/>
      </contour>
      <contour>
        <pt x="792" y="418" on="1"/>
        <pt x="792" y="516" on="0"/>
        <pt x="678" y="634" on="0"/>
        <pt x="587" y="634" on="1"/>
        <pt x="495" y="634" on="0"/>
        <pt x="384" y="516" on="0"/>
        <pt x="384" y="418" on="1"/>
        <pt x="384" y="318" on="0"/>
        <pt x="496" y="203" on="0"/>
        <pt x="589" y="203" on="1"/>
        <pt x="680" y="203" on="0"/>
        <pt x="792" y="319" on="0"/>
      </contour>
      <contour>
        <pt x="759" y="1057" on="1"/>
        <pt x="759" y="1145" on="0"/>
        <pt x="666" y="1252" on="0"/>
        <pt x="587" y="1252" on="1"/>
        <pt x="507" y="1252" on="0"/>
        <pt x="417" y="1147" on="0"/>
        <pt x="417" y="1057" on="1"/>
        <pt x="417" y="966" on="0"/>
        <pt x="508" y="859" on="0"/>
        <pt x="589" y="859" on="1"/>
        <pt x="668" y="859" on="0"/>
        <pt x="759" y="966" on="0"/>
      </contour>
    </TTGlyph>
    <TTGlyph name="eight.lnum" xMin="91" yMin="-21" xMax="1123" yMax="1477">
      <contour>
        <pt x="1090" y="1070" on="1"/>
        <pt x="1090" y="961" on="0"/>
        <pt x="969" y="792" on="0"/>
        <pt x="864" y="746" on="1"/>
        <pt x="984" y="696" on="0"/>
        <pt x="1123" y="515" on="0"/>
        <pt x="1123" y="398" on="1"/>
        <pt x="1123" y="196" on="0"/>
        <pt x="838" y="-21" on="0"/>
        <pt x="608" y="-21" on="1"/>
        <pt x="377" y="-21" on="0"/>
        <pt x="91" y="196" on="0"/>
        <pt x="91" y="398" on="1"/>
        <pt x="91" y="515" on="0"/>
        <pt x="229" y="697" on="0"/>
        <pt x="350" y="746" on="1"/>
        <pt x="243" y="793" on="0"/>
        <pt x="124" y="961" on="0"/>
        <pt x="124" y="1070" on="1"/>
        <pt x="124" y="1264" on="0"/>
        <pt x="389" y="1477" on="0"/>
        <pt x="606" y="1477" on="1"/>
        <pt x="823" y="1477" on="0"/>
        <pt x="1090" y="1264" on="0"/>
      </contour>
      <contour>
        <pt x="832" y="418" on="1"/>
        <pt x="832" y="516" on="0"/>
        <pt x="706" y="634" on="0"/>
        <pt x="606" y="634" on="1"/>
        <pt x="506" y="634" on="0"/>
        <pt x="383" y="516" on="0"/>
        <pt x="383" y="418" on="1"/>
        <pt x="383" y="318" on="0"/>
        <pt x="505" y="203" on="0"/>
        <pt x="608" y="203" on="1"/>
        <pt x="708" y="203" on="0"/>
        <pt x="832" y="319" on="0"/>
      </contour>
      <contour>
        <pt x="798" y="1057" on="1"/>
        <pt x="798" y="1145" on="0"/>
        <pt x="695" y="1252" on="0"/>
        <pt x="606" y="1252" on="1"/>
        <pt x="517" y="1252" on="0"/>
        <pt x="417" y="1147" on="0"/>
        <pt x="417" y="1057" on="1"/>
        <pt x="417" y="966" on="0"/>
        <pt x="518" y="859" on="0"/>
        <pt x="608" y="859" on="1"/>
        <pt x="697" y="859" on="0"/>
        <pt x="798" y="966" on="0"/>
      </contour>
    </TTGlyph>
    <TTGlyph name="eight.smcp" xMin="76" yMin="-17" xMax="1033" yMax="1181">
      <contour>
        <pt x="998" y="860" on="1"/>
        <pt x="998" y="775" on="0"/>
        <pt x="893" y="643" on="0"/>
        <pt x="803" y="604" on="1"/>
        <pt x="908" y="564" on="0"/>
        <pt x="1033" y="420" on="0"/>
        <pt x="1033" y="328" on="1"/>
        <pt x="1033" y="166" on="0"/>
        <pt x="766" y="-17" on="0"/>
        <pt x="563" y="-17" on="1"/>
        <pt x="354" y="-17" on="0"/>
        <pt x="76" y="166" on="0"/>
        <pt x="76" y="328" on="1"/>
        <pt x="76" y="420" on="0"/>
        <pt x="204" y="564" on="0"/>
        <pt x="314" y="604" on="1"/>
        <pt x="219" y="643" on="0"/>
        <pt x="111" y="775" on="0"/>
        <pt x="111" y="860" on="1"/>
        <pt x="111" y="1013" on="0"/>
        <pt x="366" y="1181" on="0"/>
        <pt x="562" y="1181" on="1"/>
        <pt x="751" y="1181" on="0"/>
        <pt x="998" y="1013" on="0"/>
      </contour>
      <contour>
        <pt x="740" y="347" on="1"/>
        <pt x="740" y="410" on="0"/>
        <pt x="636" y="491" on="0"/>
        <pt x="562" y="491" on="1"/>
        <pt x="481" y="491" on="0"/>
        <pt x="369" y="410" on="0"/>
        <pt x="369" y="347" on="1"/>
        <pt x="369" y="284" on="0"/>
        <pt x="481" y="205" on="0"/>
        <pt x="563" y="205" on="1"/>
        <pt x="637" y="205" on="0"/>
        <pt x="740" y="284" on="0"/>
      </contour>
      <contour>
        <pt x="706" y="840" on="1"/>
        <pt x="706" y="893" on="0"/>
        <pt x="622" y="958" on="0"/>
        <pt x="562" y="958" on="1"/>
        <pt x="495" y="958" on="0"/>
        <pt x="403" y="893" on="0"/>
        <pt x="403" y="840" on="1"/>
        <pt x="403" y="785" on="0"/>
        <pt x="496" y="715" on="0"/>
        <pt x="563" y="715" on="1"/>
        <pt x="623" y="715" on="0"/>
        <pt x="706" y="785" on="0"/>
      </contour>
    </TTGlyph>
    <TTGlyph name="eight.sup" xMin="95" yMin="-11" xMax="789" yMax="812">
      <contour>
        <pt x="764" y="592" on="1"/>
        <pt x="764" y="534" on="0"/>
        <pt x="688" y="443" on="0"/>
        <pt x="624" y="416" on="1"/>
        <pt x="699" y="388" on="0"/>
        <pt x="789" y="289" on="0"/>
        <pt x="789" y="226" on="1"/>
        <pt x="789" y="114" on="0"/>
        <pt x="596" y="-11" on="0"/>
        <pt x="449" y="-11" on="1"/>
        <pt x="296" y="-11" on="0"/>
        <pt x="95" y="114" on="0"/>
        <pt x="95" y="226" on="1"/>
        <pt x="95" y="289" on="0"/>
        <pt x="187" y="388" on="0"/>
        <pt x="266" y="416" on="1"/>
        <pt x="197" y="443" on="0"/>
        <pt x="119" y="534" on="0"/>
        <pt x="119" y="592" on="1"/>
        <pt x="119" y="696" on="0"/>
        <pt x="306" y="812" on="0"/>
        <pt x="448" y="812" on="1"/>
        <pt x="585" y="812" on="0"/>
        <pt x="764" y="697" on="0"/>
      </contour>
      <contour>
        <pt x="579" y="238" on="1"/>
        <pt x="579" y="281" on="0"/>
        <pt x="502" y="337" on="0"/>
        <pt x="448" y="337" on="1"/>
        <pt x="387" y="337" on="0"/>
        <pt x="305" y="281" on="0"/>
        <pt x="305" y="238" on="1"/>
        <pt x="305" y="195" on="0"/>
        <pt x="387" y="144" on="0"/>
        <pt x="449" y="144" on="1"/>
        <pt x="504" y="144" on="0"/>
        <pt x="579" y="195" on="0"/>
      </contour>
      <contour>
        <pt x="554" y="577" on="1"/>
        <pt x="554" y="614" on="0"/>
        <pt x="492" y="657" on="0"/>
        <pt x="448" y="657" on="1"/>
        <pt x="398" y="657" on="0"/>
        <pt x="331" y="615" on="0"/>
        <pt x="331" y="577" on="1"/>
        <pt x="331" y="539" on="0"/>
        <pt x="399" y="492" on="0"/>
        <pt x="449" y="492" on="1"/>
        <pt x="493" y="492" on="0"/>
        <pt x="554" y="539" on="0"/>
      </contour>
    </TTGlyph>
    <TTGlyph name="ellipsis" xMin="144" yMin="0" xMax="1299" yMax="256">
      <component glyphName="period" x="0" y="0" flags="0x4"/>
      <component glyphName="period" x="443" y="0" flags="0x4"/>
      <component glyphName="period" x="863" y="0" flags="0x4"/>
    </TTGlyph>
    <TTGlyph name="emacron" xMin="77" yMin="-21" xMax="1026" yMax="1457">
      <component glyphName="e" x="0" y="0" flags="0x204"/>
      <component glyphName="macron" x="34" y="0" flags="0x4"/>
    </TTGlyph>
    <TTGlyph name="emdash" xMin="154" yMin="601" xMax="1488" yMax="829">
      <component glyphName="minus" x="-80" y="0" scalex="1.59997558594" scaley="1.0" flags="0x4"/>
    </TTGlyph>
    <TTGlyph name="endash" xMin="152" yMin="601" xMax="1236" yMax="829">
      <component glyphName="minus" x="-38" y="0" scalex="1.29998779297" scaley="1.0" flags="0x4"/>
    </TTGlyph>
    <TTGlyph name="eng" xMin="107" yMin="-437" xMax="1048" yMax="1102">
      <contour>
        <pt x="379" y="1082" on="1"/>
        <pt x="392" y="930" on="1"/>
        <pt x="445" y="1011" on="0"/>
        <pt x="603" y="1102" on="0"/>
        <pt x="700" y="1102" on="1"/>
        <pt x="864" y="1102" on="0"/>
        <pt x="1048" y="891" on="0"/>
        <pt x="1048" y="663" on="1"/>
        <pt x="1048" y="-40" on="1"/>
        <pt x="1048" y="-230" on="0"/>
        <pt x="846" y="-437" on="0"/>
        <pt x="666" y="-437" on="1"/>
        <pt x="626" y="-437" on="0"/>
        <pt x="558" y="-429" on="0"/>
        <pt x="522" y="-420" on="1"/>
        <pt x="536" y="-196" on="1"/>
        <pt x="558" y="-202" on="0"/>
        <pt x="608" y="-208" on="0"/>
        <pt x="635" y="-208" on="1"/>
        <pt x="693" y="-208" on="0"/>
        <pt x="755" y="-122" on="0"/>
        <pt x="755" y="-40" on="1"/>
        <pt x="755" y="662" on="1"/>
        <pt x="755" y="778" on="0"/>
        <pt x="674" y="875" on="0"/>
        <pt x="593" y="875" on="1"/>
        <pt x="529" y="875" on="0"/>
        <pt x="431" y="828" on="0"/>
        <pt x="399" y="786" on="1"/>
        <pt x="399" y="0" on="1"/>
        <pt x="107" y="0" on="1"/>
        <pt x="107" y="1082" on="1"/>
      </contour>
    </TTGlyph>
    <TTGlyph name="eogonek" xMin="77" yMin="-381" xMax="1026" yMax="1103">
      <component glyphName="e" x="0" y="0" flags="0x204"/>
      <component glyphName="ogonek" x="472" y="43" flags="0x4"/>
    </TTGlyph>
    <TTGlyph name="epsilon" xMin="95" yMin="-20" xMax="1070" yMax="1101">
      <contour>
        <pt x="584" y="458" on="1"/>
        <pt x="488" y="458" on="0"/>
        <pt x="386" y="394" on="0"/>
        <pt x="386" y="325" on="1"/>
        <pt x="386" y="270" on="0"/>
        <pt x="489" y="191" on="0"/>
        <pt x="582" y="191" on="1"/>
        <pt x="676" y="191" on="0"/>
        <pt x="782" y="265" on="0"/>
        <pt x="782" y="320" on="1"/>
        <pt x="1063" y="320" on="1"/>
        <pt x="1065" y="314" on="1"/>
        <pt x="1070" y="152" on="0"/>
        <pt x="791" y="-20" on="0"/>
        <pt x="598" y="-20" on="1"/>
        <pt x="378" y="-20" on="0"/>
        <pt x="95" y="155" on="0"/>
        <pt x="95" y="306" on="1"/>
        <pt x="95" y="396" on="0"/>
        <pt x="200" y="524" on="0"/>
        <pt x="299" y="557" on="1"/>
        <pt x="212" y="593" on="0"/>
        <pt x="114" y="714" on="0"/>
        <pt x="114" y="786" on="1"/>
        <pt x="114" y="936" on="0"/>
        <pt x="378" y="1101" on="0"/>
        <pt x="598" y="1101" on="1"/>
        <pt x="791" y="1101" on="0"/>
        <pt x="1053" y="922" on="0"/>
        <pt x="1048" y="777" on="1"/>
        <pt x="1046" y="771" on="1"/>
        <pt x="764" y="771" on="1"/>
        <pt x="764" y="825" on="0"/>
        <pt x="662" y="889" on="0"/>
        <pt x="583" y="889" on="1"/>
        <pt x="494" y="889" on="0"/>
        <pt x="405" y="815" on="0"/>
        <pt x="405" y="765" on="1"/>
        <pt x="405" y="710" on="0"/>
        <pt x="497" y="647" on="0"/>
        <pt x="584" y="647" on="1"/>
        <pt x="771" y="647" on="1"/>
        <pt x="771" y="458" on="1"/>
      </contour>
    </TTGlyph>
    <TTGlyph name="epsilontonos" xMin="95" yMin="-20" xMax="1070" yMax="1577">
      <component glyphName="epsilon" x="0" y="0" flags="0x204"/>
      <component glyphName="tonos" x="234" y="-47" flags="0x4"/>
    </TTGlyph>
    <TTGlyph name="equal" xMin="136" yMin="332" xMax="1032" yMax="992">
      <contour>
        <pt x="1032" y="763" on="1"/>
        <pt x="136" y="763" on="1"/>
        <pt x="136" y="992" on="1"/>
        <pt x="1032" y="992" on="1"/>
      </contour>
      <contour>
        <pt x="1032" y="332" on="1"/>
        <pt x="136" y="332" on="1"/>
        <pt x="136" y="561" on="1"/>
        <pt x="1032" y="561" on="1"/>
      </contour>
    </TTGlyph>
    <TTGlyph name="estimated" xMin="148" yMin="-20" xMax="1167" yMax="1102">
      <contour>
        <pt x="1042" y="94" on="1"/>
        <pt x="955" y="39" on="0"/>
        <pt x="767" y="-20" on="0"/>
        <pt x="672" y="-20" on="1"/>
        <pt x="454" y="-20" on="0"/>
        <pt x="148" y="309" on="0"/>
        <pt x="148" y="541" on="1"/>
        <pt x="148" y="767" on="0"/>
        <pt x="471" y="1102" on="0"/>
        <pt x="672" y="1102" on="1"/>
        <pt x="879" y="1102" on="0"/>
        <pt x="1167" y="792" on="0"/>
        <pt x="1167" y="561" on="1"/>
        <pt x="1167" y="514" on="1"/>
        <pt x="399" y="514" on="1"/>
        <pt x="399" y="186" on="1"/>
        <pt x="454" y="133" on="0"/>
        <pt x="595" y="76" on="0"/>
        <pt x="672" y="76" on="1"/>
        <pt x="767" y="76" on="0"/>
        <pt x="953" y="136" on="0"/>
        <pt x="1040" y="198" on="1"/>
      </contour>
      <contour>
        <pt x="672" y="1008" on="1"/>
        <pt x="598" y="1008" on="0"/>
        <pt x="457" y="943" on="0"/>
        <pt x="399" y="886" on="1"/>
        <pt x="399" y="609" on="1"/>
        <pt x="939" y="609" on="1"/>
        <pt x="939" y="895" on="1"/>
        <pt x="885" y="947" on="0"/>
        <pt x="746" y="1008" on="0"/>
      </contour>
    </TTGlyph>
    <TTGlyph name="eta" xMin="107" yMin="-415" xMax="1048" yMax="1102">
      <contour>
        <pt x="379" y="1082" on="1"/>
        <pt x="392" y="930" on="1"/>
        <pt x="445" y="1011" on="0"/>
        <pt x="603" y="1102" on="0"/>
        <pt x="700" y="1102" on="1"/>
        <pt x="865" y="1102" on="0"/>
        <pt x="1048" y="894" on="0"/>
        <pt x="1048" y="663" on="1"/>
        <pt x="1048" y="-415" on="1"/>
        <pt x="755" y="-415" on="1"/>
        <pt x="755" y="662" on="1"/>
        <pt x="755" y="778" on="0"/>
        <pt x="674" y="877" on="0"/>
        <pt x="593" y="877" on="1"/>
        <pt x="529" y="877" on="0"/>
        <pt x="431" y="830" on="0"/>
        <pt x="399" y="787" on="1"/>
        <pt x="399" y="0" on="1"/>
        <pt x="107" y="0" on="1"/>
        <pt x="107" y="1082" on="1"/>
      </contour>
    </TTGlyph>
    <TTGlyph name="etatonos" xMin="107" yMin="-415" xMax="1048" yMax="1578">
      <component glyphName="eta" x="0" y="0" flags="0x204"/>
      <component glyphName="tonos" x="226" y="-46" flags="0x4"/>
    </TTGlyph>
    <TTGlyph name="eth" xMin="48" yMin="-21" xMax="1136" yMax="1517">
      <contour>
        <pt x="921" y="1290" on="1"/>
        <pt x="1023" y="1184" on="0"/>
        <pt x="1136" y="906" on="0"/>
        <pt x="1136" y="742" on="1"/>
        <pt x="1136" y="546" on="1"/>
        <pt x="1136" y="296" on="0"/>
        <pt x="822" y="-21" on="0"/>
        <pt x="587" y="-21" on="1"/>
        <pt x="349" y="-21" on="0"/>
        <pt x="48" y="260" on="0"/>
        <pt x="48" y="468" on="1"/>
        <pt x="48" y="694" on="0"/>
        <pt x="317" y="967" on="0"/>
        <pt x="548" y="967" on="1"/>
        <pt x="629" y="967" on="0"/>
        <pt x="773" y="916" on="0"/>
        <pt x="825" y="871" on="1"/>
        <pt x="829" y="875" on="1"/>
        <pt x="815" y="958" on="0"/>
        <pt x="735" y="1099" on="0"/>
        <pt x="675" y="1154" on="1"/>
        <pt x="430" y="1018" on="1"/>
        <pt x="352" y="1131" on="1"/>
        <pt x="544" y="1237" on="1"/>
        <pt x="543" y="1243" on="1"/>
        <pt x="512" y="1259" on="0"/>
        <pt x="438" y="1287" on="0"/>
        <pt x="398" y="1299" on="1"/>
        <pt x="490" y="1517" on="1"/>
        <pt x="578" y="1498" on="0"/>
        <pt x="739" y="1431" on="0"/>
        <pt x="808" y="1384" on="1"/>
        <pt x="1006" y="1493" on="1"/>
        <pt x="1083" y="1380" on="1"/>
      </contour>
      <contour>
        <pt x="591" y="203" on="1"/>
        <pt x="707" y="203" on="0"/>
        <pt x="844" y="396" on="0"/>
        <pt x="844" y="546" on="1"/>
        <pt x="844" y="664" on="1"/>
        <pt x="809" y="703" on="0"/>
        <pt x="681" y="755" on="0"/>
        <pt x="594" y="755" on="1"/>
        <pt x="472" y="755" on="0"/>
        <pt x="340" y="597" on="0"/>
        <pt x="340" y="468" on="1"/>
        <pt x="340" y="356" on="0"/>
        <pt x="476" y="203" on="0"/>
      </contour>
    </TTGlyph>
    <TTGlyph name="exclam" xMin="134" yMin="0" xMax="426" yMax="1456">
      <contour>
        <pt x="426" y="502" on="1"/>
        <pt x="134" y="502" on="1"/>
        <pt x="134" y="1456" on="1"/>
        <pt x="426" y="1456" on="1"/>
      </contour>
      <contour>
        <pt x="426" y="0" on="1"/>
        <pt x="134" y="0" on="1"/>
        <pt x="134" y="256" on="1"/>
        <pt x="426" y="256" on="1"/>
      </contour>
    </TTGlyph>
    <TTGlyph name="exclamdbl" xMin="134" yMin="0" xMax="983" yMax="1456">
      <component glyphName="exclam" x="0" y="0" flags="0x4"/>
      <component glyphName="exclam" x="557" y="0" flags="0x4"/>
    </TTGlyph>
    <TTGlyph name="exclamdown" xMin="142" yMin="-374" xMax="434" yMax="1082">
      <contour>
        <pt x="434" y="-374" on="1"/>
        <pt x="142" y="-374" on="1"/>
        <pt x="142" y="579" on="1"/>
        <pt x="434" y="579" on="1"/>
      </contour>
      <contour>
        <pt x="434" y="825" on="1"/>
        <pt x="142" y="825" on="1"/>
        <pt x="142" y="1082" on="1"/>
        <pt x="434" y="1082" on="1"/>
      </contour>
    </TTGlyph>
    <TTGlyph name="f" xMin="27" yMin="0" xMax="748" yMax="1581">
      <contour>
        <pt x="188" y="0" on="1"/>
        <pt x="188" y="877" on="1"/>
        <pt x="27" y="877" on="1"/>
        <pt x="27" y="1082" on="1"/>
        <pt x="188" y="1082" on="1"/>
        <pt x="188" y="1202" on="1"/>
        <pt x="188" y="1384" on="0"/>
        <pt x="398" y="1581" on="0"/>
        <pt x="588" y="1581" on="1"/>
        <pt x="625" y="1581" on="0"/>
        <pt x="702" y="1570" on="0"/>
        <pt x="748" y="1560" on="1"/>
        <pt x="723" y="1343" on="1"/>
        <pt x="699" y="1347" on="0"/>
        <pt x="654" y="1353" on="0"/>
        <pt x="624" y="1353" on="1"/>
        <pt x="553" y="1353" on="0"/>
        <pt x="480" y="1275" on="0"/>
        <pt x="480" y="1202" on="1"/>
        <pt x="480" y="1082" on="1"/>
        <pt x="695" y="1082" on="1"/>
        <pt x="695" y="877" on="1"/>
        <pt x="480" y="877" on="1"/>
        <pt x="480" y="0" on="1"/>
      </contour>
    </TTGlyph>
    <TTGlyph name="fi" xMin="20" yMin="0" xMax="1121" yMax="1581">
      <contour>
        <pt x="181" y="0" on="1"/>
        <pt x="181" y="877" on="1"/>
        <pt x="20" y="877" on="1"/>
        <pt x="20" y="1082" on="1"/>
        <pt x="181" y="1082" on="1"/>
        <pt x="181" y="1156" on="1"/>
        <pt x="181" y="1360" on="0"/>
        <pt x="430" y="1581" on="0"/>
        <pt x="656" y="1581" on="1"/>
        <pt x="734" y="1581" on="0"/>
        <pt x="886" y="1550" on="0"/>
        <pt x="986" y="1521" on="1"/>
        <pt x="944" y="1291" on="1"/>
        <pt x="871" y="1313" on="0"/>
        <pt x="752" y="1337" on="0"/>
        <pt x="675" y="1337" on="1"/>
        <pt x="574" y="1337" on="0"/>
        <pt x="473" y="1245" on="0"/>
        <pt x="473" y="1156" on="1"/>
        <pt x="473" y="1082" on="1"/>
        <pt x="686" y="1082" on="1"/>
        <pt x="686" y="877" on="1"/>
        <pt x="473" y="877" on="1"/>
        <pt x="473" y="0" on="1"/>
      </contour>
      <contour>
        <pt x="1121" y="0" on="1"/>
        <pt x="829" y="0" on="1"/>
        <pt x="829" y="1082" on="1"/>
        <pt x="1121" y="1082" on="1"/>
      </contour>
    </TTGlyph>
    <TTGlyph name="five" xMin="105" yMin="-21" xMax="1083" yMax="1456">
      <contour>
        <pt x="136" y="645" on="1"/>
        <pt x="220" y="1456" on="1"/>
        <pt x="1032" y="1456" on="1"/>
        <pt x="1032" y="1222" on="1"/>
        <pt x="459" y="1222" on="1"/>
        <pt x="419" y="886" on="1"/>
        <pt x="459" y="916" on="0"/>
        <pt x="573" y="955" on="0"/>
        <pt x="642" y="956" on="1"/>
        <pt x="852" y="959" on="0"/>
        <pt x="1083" y="699" on="0"/>
        <pt x="1083" y="467" on="1"/>
        <pt x="1083" y="257" on="0"/>
        <pt x="830" y="-21" on="0"/>
        <pt x="592" y="-21" on="1"/>
        <pt x="391" y="-21" on="0"/>
        <pt x="105" y="198" on="0"/>
        <pt x="110" y="390" on="1"/>
        <pt x="112" y="395" on="1"/>
        <pt x="393" y="409" on="1"/>
        <pt x="393" y="312" on="0"/>
        <pt x="503" y="203" on="0"/>
        <pt x="592" y="203" on="1"/>
        <pt x="694" y="203" on="0"/>
        <pt x="791" y="348" on="0"/>
        <pt x="791" y="465" on="1"/>
        <pt x="791" y="591" on="0"/>
        <pt x="687" y="743" on="0"/>
        <pt x="585" y="743" on="1"/>
        <pt x="501" y="743" on="0"/>
        <pt x="412" y="681" on="0"/>
        <pt x="393" y="628" on="1"/>
      </contour>
    </TTGlyph>
    <TTGlyph name="five.lnum" xMin="110" yMin="-21" xMax="1088" yMax="1456">
      <contour>
        <pt x="141" y="645" on="1"/>
        <pt x="225" y="1456" on="1"/>
        <pt x="1037" y="1456" on="1"/>
        <pt x="1037" y="1222" on="1"/>
        <pt x="464" y="1222" on="1"/>
        <pt x="424" y="886" on="1"/>
        <pt x="465" y="916" on="0"/>
        <pt x="579" y="955" on="0"/>
        <pt x="647" y="956" on="1"/>
        <pt x="857" y="959" on="0"/>
        <pt x="1088" y="699" on="0"/>
        <pt x="1088" y="467" on="1"/>
        <pt x="1088" y="257" on="0"/>
        <pt x="835" y="-21" on="0"/>
        <pt x="597" y="-21" on="1"/>
        <pt x="397" y="-21" on="0"/>
        <pt x="110" y="198" on="0"/>
        <pt x="115" y="390" on="1"/>
        <pt x="117" y="395" on="1"/>
        <pt x="398" y="409" on="1"/>
        <pt x="398" y="312" on="0"/>
        <pt x="508" y="203" on="0"/>
        <pt x="597" y="203" on="1"/>
        <pt x="699" y="203" on="0"/>
        <pt x="796" y="348" on="0"/>
        <pt x="796" y="465" on="1"/>
        <pt x="796" y="591" on="0"/>
        <pt x="693" y="743" on="0"/>
        <pt x="590" y="743" on="1"/>
        <pt x="506" y="743" on="0"/>
        <pt x="418" y="682" on="0"/>
        <pt x="398" y="628" on="1"/>
      </contour>
    </TTGlyph>
    <TTGlyph name="five.smcp" xMin="66" yMin="-17" xMax="1007" yMax="1165">
      <contour>
        <pt x="111" y="504" on="1"/>
        <pt x="182" y="1165" on="1"/>
        <pt x="935" y="1165" on="1"/>
        <pt x="935" y="943" on="1"/>
        <pt x="441" y="943" on="1"/>
        <pt x="416" y="701" on="1"/>
        <pt x="454" y="722" on="0"/>
        <pt x="555" y="750" on="0"/>
        <pt x="618" y="751" on="1"/>
        <pt x="800" y="753" on="0"/>
        <pt x="1007" y="551" on="0"/>
        <pt x="1007" y="371" on="1"/>
        <pt x="1007" y="193" on="0"/>
        <pt x="776" y="-17" on="0"/>
        <pt x="540" y="-17" on="1"/>
        <pt x="338" y="-17" on="0"/>
        <pt x="66" y="150" on="0"/>
        <pt x="71" y="312" on="1"/>
        <pt x="73" y="318" on="1"/>
        <pt x="356" y="334" on="1"/>
        <pt x="356" y="275" on="0"/>
        <pt x="457" y="205" on="0"/>
        <pt x="540" y="205" on="1"/>
        <pt x="627" y="205" on="0"/>
        <pt x="715" y="302" on="0"/>
        <pt x="715" y="385" on="1"/>
        <pt x="715" y="465" on="0"/>
        <pt x="622" y="560" on="0"/>
        <pt x="542" y="560" on="1"/>
        <pt x="473" y="560" on="0"/>
        <pt x="391" y="519" on="0"/>
        <pt x="374" y="491" on="1"/>
      </contour>
    </TTGlyph>
    <TTGlyph name="five.sup" xMin="97" yMin="-11" xMax="779" yMax="801">
      <contour>
        <pt x="128" y="346" on="1"/>
        <pt x="180" y="801" on="1"/>
        <pt x="728" y="801" on="1"/>
        <pt x="728" y="647" on="1"/>
        <pt x="365" y="647" on="1"/>
        <pt x="348" y="485" on="1"/>
        <pt x="375" y="501" on="0"/>
        <pt x="450" y="523" on="0"/>
        <pt x="495" y="524" on="1"/>
        <pt x="628" y="526" on="0"/>
        <pt x="779" y="387" on="0"/>
        <pt x="779" y="264" on="1"/>
        <pt x="779" y="137" on="0"/>
        <pt x="612" y="-11" on="0"/>
        <pt x="440" y="-11" on="1"/>
        <pt x="292" y="-11" on="0"/>
        <pt x="97" y="104" on="0"/>
        <pt x="103" y="217" on="1"/>
        <pt x="104" y="222" on="1"/>
        <pt x="305" y="233" on="1"/>
        <pt x="305" y="190" on="0"/>
        <pt x="378" y="144" on="0"/>
        <pt x="440" y="144" on="1"/>
        <pt x="505" y="144" on="0"/>
        <pt x="569" y="204" on="0"/>
        <pt x="569" y="258" on="1"/>
        <pt x="569" y="315" on="0"/>
        <pt x="503" y="386" on="0"/>
        <pt x="451" y="386" on="1"/>
        <pt x="394" y="386" on="0"/>
        <pt x="332" y="358" on="0"/>
        <pt x="317" y="337" on="1"/>
      </contour>
    </TTGlyph>
    <TTGlyph name="fiveeighths" xMin="95" yMin="-11" xMax="1831" yMax="1455">
      <component glyphName="five.sup" x="-2" y="654" flags="0x4"/>
      <component glyphName="fraction" x="503" y="0" flags="0x4"/>
      <component glyphName="eight.sup" x="1042" y="0" flags="0x4"/>
    </TTGlyph>
</ttFont>
